<?xml version="1.0" encoding="UTF-8"?>
<svg id="_レイヤー_2" data-name="レイヤー 2" xmlns="http://www.w3.org/2000/svg" viewBox="0 0 350.56 57.98">
  <defs>
    <style>
      .cls-1 {
        fill: none;
        stroke: #14b09b;
        stroke-miterlimit: 10;
        stroke-width: 3px;
      }

      .cls-2 {
        fill: #fff;
        stroke-width: 0px;
      }
    </style>
  </defs>
  <g id="_レイヤー_5" data-name="レイヤー 5">
    <g>
      <g>
        <path class="cls-2" d="M54.75,35.6v10.96h-21.08v-7.92l-1.76-.88v8.72h-10.44v-7.84c-1.04.52-2.32,1.12-3.92,1.6v-12c3.52-1.28,5.44-3.32,6.52-5.32h-6.52v-10.24h4v-3.4h10.68v3.4h3.84v2.68h3v-6.08h10.4v6.08h4.64v10.96h-4.64v9.28h5.28ZM34.07,29.6l-3.44-1.84c1.52-2.28,2.56-4.72,3.4-7.08v-5.68h-4.08v-3.44h-6.12v3.44h-4v5.64h7.44c-.76,4-3.76,7.56-7.44,9.08v7.16c1.32-.6,2.68-1.32,3.92-2.2v9.52h5.88v-10.24l4.44,2.4v-6.76ZM39.07,26.32h-4.48v-1.68c-.36.8-.76,1.64-1.16,2.52l2.92,1.56v6.88h2.72v-9.28ZM52.47,37.88h-5.28v-13.84h4.64v-6.4h-4.64v-6.08h-5.84v6.08h-5.16v6.4h5.16v13.84h-5.36v6.4h16.48v-6.4Z"/>
        <path class="cls-2" d="M57.47,26.44v-10.56l2.04-.24c4.24-.56,8.76-2.28,10.6-5.28l.68-1.08h10.28l.64,1.08c1.8,3,6.36,4.72,10.56,5.24l2.04.24v10.52l-4.08-.32v1.32h4.08v9.68h-2.84l3.32,7.12v2.36h-11.4l-.64-1.52c-2.76.64-5.6.96-8.36,1.08-3.4.16-6.68.08-9.88.08h-7.04v-18.8h3.8v-1.32l-3.8.4ZM79.75,11.56h-7.72c-2,3.32-6.56,5.64-12.24,6.32v6.32c1.12-.08,2.6-.32,3.76-.64v3.68h24.36v-3.72c1.16.28,2.68.56,4.08.68v-6.32c-5.68-.68-10.28-3-12.24-6.32ZM91.99,34.96v-5.52h-32.19v5.52h4.32l-1.6,3.04h-2.72v5.84h4.72c10,0,14.92-.08,19.6-1.64l.92,2h7.2l-4.24-9.24h4ZM75.91,17.12c1.88,2,3.72,3.28,6.68,4.52h-13.4c3-1.24,4.8-2.56,6.72-4.52ZM70.15,37.96l1.6-3h9.16l1.08,2.08c-3.32.6-7.12.8-11.84.92Z"/>
        <path class="cls-2" d="M134.79,29.2v11.04l-1.52.24v6.04h-10.92v-4.52l-9.36,1.4v-4.72l-.68-.44v8.24h-10.12v-4.52l-2.8,1.92h-1.88v-12.8c1.08-.68,2.48-1.56,2.88-2h-2.88V10.8h4.8c4.64,0,9.28-.6,12-1.4h2.32v1.56l5.72,2.4v-4.08h10.92v20.16l1.52-.24ZM130.95,11.56h-6.36v21.52l-9.44,1.24v-4.04l-4.64-2.24v-1.12h4.12v-6h-4.12v-2.44c1.16-.04,2.76-.16,4.08-.48v-6.12c-2.6.68-9.04,1.2-14.8,1.2v5.76c1.44,0,3.6,0,4.72-.04v2.12h-4.72v6h4.68c-.4,1.52-2.4,4.08-4.68,5.4v8.44c1.8-1.16,3.4-2.6,4.72-4.4v7.84h5.84v-9.84l4.68,2.8v3.56l9.56-1.36v4.84h6.36v-5.64l1.52-.28v-6.24l-1.52.12V11.56ZM123.03,16.2l-6.6-2.76v6.76l6.6,2.88v-6.88ZM123.03,25.64l-6.6-2.96v6.76l6.6,3.08v-6.88Z"/>
        <path class="cls-2" d="M169.19,26.48v1.72h5.6v10.32h-12.4c0,4.64-1.6,8-6.96,8h-10.28v-8h-7.64v-10.32h5.6v-1.76h-5.6v-13.96h2.2l-.6-3.2h20.2c.44.84,1.12,2.36,1.4,3.2h.8l.96-3.2h10.96l-.56,3.2h1.92v14h-5.6ZM161.27,30.52c2.48-.88,4-1.6,5.6-2.68v-3.64h5.6v-9.44h-2.88l.92-3.2h-6.36l-.96,3.2h-4.2c-.28-1.12-.72-2.32-1-3.2h-6.36c.28.88.72,2.16.96,3.2h-3.04c-.28-1.12-.72-2.36-1-3.2h-6.36c.44,1.08.72,2.12,1,3.2h-3.36v9.4h5.6v3.52h13.52c-1.88.64-3.04,1.04-5.56,1.68v1.16h-13.56v5.72h13.56v1.4c0,.48-.28.84-.84.84h-5.12v5.72h8c2.92,0,4.64-1.64,4.64-4.44v-3.52h12.4v-5.72h-11.2ZM145.95,20.4h20.48v1.8h-20.48v-1.8Z"/>
        <path class="cls-2" d="M214.71,46.48h-10.68l-2.6-7.24v7.24h-10.72v-6.28c-.36,1.48-1.4,4.56-2.16,6.28h-11.2v-2.24c1.64-2.48,2.8-5.2,3.32-6.92h-3.04v-10.4h1.6v-5.96l.48-.4h-1.4v-10.28h2.28c15,0,24.96-.12,30.83-1.04h2.16v9.84l-1.92.28c-.72.12-1.52.24-2.32.32l-2.72,2.52h3.72l4.6,13.44v2.24h-2.96l2.72,6.56v2.04ZM208.71,24.48h-6.36l1.36,3.76c-2.08.6-4.04.8-7.88.84l10.76-9.96h-8.6l-3.44,2.92h-4.6l4.44-3.84c7.76-.12,12.84-.44,16.92-1.08v-5.56c-6.12.96-15.96,1-30.71,1v5.72h5.6l-4.68,3.76v5h7.16l-2.56,2.2c-1.84,0-3.92-.04-6.16-.04v5.8h12.8v9.2h6.64v-9.36c2.84-.2,4.48-.56,6.2-1.12l.68,1.88h6.36l-3.92-11.12ZM183.27,36.4c-.68,2.8-1.48,4.8-3.32,7.8h7.08c1.32-2.56,2.04-4.56,2.64-7.8h-6.4ZM208.95,36.4h-6.56l3.2,7.8h6.56l-3.2-7.8Z"/>
        <path class="cls-2" d="M218.35,46.16V9.76h35.59v36.39h-35.59ZM220.67,12.08v31.75h30.95V12.08h-30.95ZM226.35,17.48h19.56v1.32h-5.36c-.28,3.4-1.6,6.52-3.88,8.88l-2.04-2.32h-6.84l4.64,5.28c-1.44.68-3.08,1.2-4.92,1.44v6.36c3.48-.48,6.52-1.56,9.04-3.12l1.72,2h6.96l-4.68-5.28c2.92-3.12,4.72-7.08,5.36-11.36v17.76h-19.56v-20.96ZM226.87,18.8l.96,5.52h4.68l-1.16-5.52h-4.48ZM233.03,18.8l1,5.52h4.6l-1.08-5.52h-4.52Z"/>
        <path class="cls-2" d="M294.79,27.32v8h-1.72v10.8h-33.88v-10.8h-1.68v-8h.84v-5h-.84v-7.96h.84v-4.2h12.04v-.88h10.84v.88h11.84v4.2h1.72v7.96h-1.72v.64h.88v4.36h.84ZM278.95,29.64v-1.04h12.72v-3.32h-12.72v-1.12h11.84v-4.16h1.68v-3.36h-1.68v-4.16h-11.84v-.92h-6.24v.92h-12.04v3.16h12.04v1h-12.88v3.36h12.88v1.04h-12.04v3.12h12.04v1.12h-12.04v3.32h12.04v1.04h-12.88v3.36h32.63v-3.36h-13.52ZM261.47,34v9.8h29.31v-9.8h-29.31ZM267.71,36.52h16.88v1.12h-16.88v-1.12ZM267.71,40.2h16.88v1.16h-16.88v-1.16ZM278.95,15.64h6.08v1.24h-6.08v-1.24ZM278.95,19.76h6.08v1.28h-6.08v-1.28Z"/>
        <path class="cls-2" d="M313.27,10.8v-.48h5.28v-1.04h10.96v1.04h5.28v12.76h-.88v7.12h.04v15.92h-15.4l.08.4h-10v-.56c-1.24.12-2.48.16-3.44.16h-7.68v-9.96h.72v-13.24l-.72.12v-11.04l2.16-.12c1.48-.12,2.04-.52,2.6-1.16l.84-1.44h8.72l1.44,1.52ZM327.31,12.6v-1.04h-6.24v1.04h-5.6v1.56c-1.96-.24-4.04-1.24-4.72-2.6h-6.16c-.64,1.36-2.68,2.48-4.76,2.6v6.24c2.48-.28,6.04-2.12,7.84-4.12,1.68,1.92,5.4,3.6,7.8,4v.6h1.24v22.92h14.96v-11.28h-9.4v-1.84h9.36v-9.92h.84v-8.16h-5.16ZM309.51,36.48l.2,1.6c-1.04.28-2.16.36-3.76.36v-2.88h8.64v-14.8h-4.32v-2.28h-5.16v2.28h-4.6v17.68h-.68v5.36h5.24c2.04,0,4-.16,5.36-.64l.08,1.04h5.04l-1.28-7.72h-4.76ZM305.95,24.44h3.28v1.96h-3.28v-1.96ZM305.95,29.68h3.28v2h-3.28v-2ZM320.95,17.56h6v1.96h-6v-1.96ZM322.27,24h3.72v2.24h-3.72v-2.24ZM322.27,37h3.76v2.4h-3.76v-2.4Z"/>
      </g>
      <rect class="cls-1" x="1.5" y="1.5" width="347.56" height="54.98"/>
    </g>
  </g>
</svg>