<?xml version="1.0" encoding="UTF-8"?>
<svg id="_レイヤー_2" data-name="レイヤー 2" xmlns="http://www.w3.org/2000/svg" viewBox="0 0 65.64 92.68">
  <defs>
    <style>
      .cls-1 {
        fill: #10af9b;
        stroke: #fff;
        stroke-miterlimit: 10;
      }
    </style>
  </defs>
  <g id="_レイヤー_4" data-name="レイヤー 4">
    <path class="cls-1" d="M59.61,51.61h.13c-2.28,2.95-8.61,11.19-14.37,18.78-.65.86-1.56,2.07-2.65,3.77-2.82,4.43-4.75,7.48-5.65,11.67-.58,2.72-.47,4.71-2.07,5.76-.74.48-1.84.77-2.79.43-1.89-.69-2.26-3.54-2.86-5.91-.67-2.62-2.52-5.66-6.22-11.74-1.52-2.5-3.47-5.07-7.29-10.1-1.86-2.44-4.31-5.63-7.27-9.37-.18-.19-.31-.34-.38-.42-1.23-1.43-8.1-9.68-7.68-21.21C1.06,18.62,13.33.5,32.83.5c17.84,0,32.31,14.67,32.31,32.77,0,6.79-2.04,13.1-5.53,18.34ZM32.82,18.87c-6.93,0-12.55,5.62-12.55,12.55s5.62,12.55,12.55,12.55,12.55-5.62,12.55-12.55-5.62-12.55-12.55-12.55Z"/>
  </g>
</svg>