<?xml version="1.0" encoding="UTF-8"?>
<svg id="_レイヤー_2" data-name="レイヤー 2" xmlns="http://www.w3.org/2000/svg" viewBox="0 0 591.27 54.21">
  <defs>
    <style>
      .cls-1 {
        fill: none;
        stroke: #fff;
        stroke-miterlimit: 10;
        stroke-width: .83px;
      }

      .cls-2 {
        fill: #fff;
        stroke-width: 0px;
      }
    </style>
  </defs>
  <g id="_レイヤー_5" data-name="レイヤー 5">
    <g>
      <rect class="cls-1" x=".42" y=".42" width="590.44" height="53.38"/>
      <g>
        <path class="cls-2" d="M19.23,8.99c.47.78.88,1.6,1.22,2.45.6-.41,1.04-.89,1.32-1.44.26-.49.41-1.1.47-1.83l-1.52.03c-.08,0-.12-.01-.14-.04-.01-.02-.02-.07-.02-.14v-1.03c0-.09,0-.14.03-.16.01-.01.06-.02.13-.02l1.74.03h2.48l1.74-.03c.13,0,.2.07.2.2,0,.15-.02.34-.03.56,0,.23-.01.38-.01.44-.04,1.64-.16,2.78-.36,3.43-.22.79-.77,1.19-1.64,1.19-.38,0-.71-.01-1-.04-.24-.01-.39-.05-.43-.1-.03-.04-.07-.18-.11-.4-.08-.39-.17-.7-.29-.94.53.09,1.01.13,1.46.13.31,0,.52-.12.63-.36.17-.4.28-1.32.32-2.75h-1.77c-.14,2.15-1.03,3.73-2.65,4.73-.19.11-.32.16-.37.16-.08,0-.16-.09-.26-.26-.12-.21-.29-.42-.5-.64l-.33.15c-.09.04-.15.07-.18.07-.04,0-.08-.04-.1-.12-.02-.05-.06-.18-.13-.38-.05-.14-.09-.24-.12-.32-.98.38-2.26.81-3.85,1.29-.19.05-.33.13-.43.23-.07.07-.16.1-.26.1s-.17-.06-.23-.18c-.12-.33-.25-.8-.37-1.41.41-.04.81-.1,1.19-.18l-.14-2.95c-.03-.63-.08-1.15-.16-1.57.46.06.93.16,1.44.31.82-.17,1.64-.42,2.45-.75.29-.12.53-.25.71-.37.32.24.63.54.94.92.1.1.15.18.15.26,0,.1-.08.16-.23.18-.12.01-.31.06-.55.15-1.1.42-2.19.73-3.25.93l.1,2.53c.87-.24,1.54-.45,2.01-.62-.2-.4-.36-.7-.47-.9-.03-.05-.04-.09-.04-.12,0-.04.05-.09.15-.14l.79-.33c.08-.03.14-.04.17-.04.04,0,.08.04.13.11ZM16.95,19.79h-1.23c-.08,0-.12,0-.14-.03-.02-.02-.02-.06-.02-.13l.03-2.79v-1.4l-.03-1.92c0-.08,0-.12.03-.14s.06-.02.13-.02l2.1.03h5.6l2.1-.03c.1,0,.15.05.15.16l-.03,1.71v1.59l.03,2.78c0,.11-.05.16-.15.16h-1.25c-.08,0-.13,0-.15-.03-.01-.02-.02-.06-.02-.13v-.51h-6.99v.54c0,.08,0,.12-.03.14s-.07.02-.14.02ZM17.12,14.56v1.11h2.64v-1.11h-2.64ZM17.12,17.91h2.64v-1.15h-2.64v1.15ZM24.1,14.56h-2.85v1.11h2.85v-1.11ZM21.25,17.91h2.85v-1.15h-2.85v1.15Z"/>
        <path class="cls-2" d="M30.97,15.85l-1.88.03c-.08,0-.12,0-.14-.03s-.02-.06-.02-.13v-1.16c0-.08,0-.13.03-.15.02-.01.06-.02.13-.02l1.88.03h3.95c-.02-.56-.05-.99-.09-1.27l.87.09c.45-.29.91-.65,1.36-1.08h-3.24l-1.94.03c-.11,0-.16-.05-.16-.15v-1.05c0-.08,0-.12.03-.14s.06-.02.13-.02l1.94.03h4.06c.2,0,.31,0,.36-.03.1-.04.17-.06.19-.06.1,0,.32.16.65.48.28.29.42.51.42.64,0,.12-.06.2-.18.24-.21.11-.45.27-.72.5-.71.6-1.41,1.12-2.1,1.55v.24h3.75l1.88-.03c.08,0,.13,0,.15.03.02.02.02.07.02.14v1.16c0,.07,0,.12-.03.14-.02.02-.07.03-.14.03l-1.88-.03h-3.75v.97l.03,1.3c0,.6-.16,1.01-.48,1.23-.21.13-.49.22-.83.26-.32.04-.81.07-1.47.07-.24,0-.39-.02-.43-.06-.04-.04-.1-.16-.15-.37-.11-.42-.26-.79-.45-1.1.6.06,1.13.09,1.6.09.23,0,.39-.04.47-.12.08-.08.12-.21.12-.4v-1.88h-3.95ZM31.01,6.58l.9-.33c.07-.03.12-.04.16-.04.05,0,.11.04.17.12.39.5.72,1.02,1,1.56.03.06.04.1.04.12,0,.03-.06.07-.18.12l-.99.36h3.12c-.22-.65-.51-1.27-.86-1.88-.03-.05-.04-.09-.04-.11,0-.03.06-.07.18-.12l.99-.3c.06-.02.11-.03.14-.03.06,0,.11.04.16.12.32.53.6,1.11.83,1.74.01.05.02.08.02.1,0,.04-.06.08-.19.12l-.97.34h2.31c.22-.38.46-.88.73-1.52.09-.22.16-.49.23-.79.53.1,1.02.25,1.48.45.14.06.21.14.21.23,0,.08-.05.16-.15.23-.1.06-.2.18-.29.34-.21.39-.42.74-.62,1.06h.39l1.98-.03c.09,0,.14,0,.16.03.01.02.02.06.02.13l-.03.81v.69l.03,1.68c0,.09-.01.14-.04.16-.02.01-.07.02-.15.02h-1.18c-.08,0-.13-.01-.15-.04-.02-.02-.02-.07-.02-.15v-1.98h-9.6v1.98c0,.08,0,.13-.03.15s-.06.02-.13.02h-1.19c-.09,0-.14,0-.16-.03-.02-.02-.02-.07-.02-.14l.03-1.69v-.56l-.03-.93c0-.08.01-.12.04-.14.02-.01.07-.02.15-.02l1.98.03h.4c-.24-.58-.56-1.14-.96-1.68-.04-.05-.05-.09-.05-.12,0-.04.05-.08.16-.11Z"/>
        <path class="cls-2" d="M46.09,19.08l-1.9.03c-.08,0-.13,0-.15-.03-.01-.02-.02-.06-.02-.13v-1.27c0-.08.01-.12.04-.14.01-.01.06-.02.13-.02l1.9.03h3.77v-2.72h-1.65l-2.07.03c-.08,0-.12,0-.14-.03s-.02-.06-.02-.13v-1.22c0-.1.05-.15.16-.15l2.07.03h1.65v-2.56h-3.15c-.38.76-.82,1.46-1.32,2.09-.14.18-.23.27-.29.27-.04,0-.15-.08-.33-.24-.29-.29-.6-.51-.94-.67,1.03-1.2,1.83-2.66,2.41-4.39.11-.34.18-.67.21-.99.36.06.84.18,1.46.36.18.05.27.12.27.23,0,.06-.05.15-.15.27-.09.1-.19.29-.29.57l-.36.99h2.48v-.78c0-.95-.04-1.71-.12-2.28.7.02,1.26.06,1.69.11.16.01.24.07.24.16,0,.08-.03.18-.07.3-.07.18-.11.73-.11,1.66v.83h2.58l2.06-.03c.09,0,.14,0,.15.03s.02.06.02.13v1.24c0,.08-.01.12-.03.14-.02.01-.07.02-.15.02l-2.06-.03h-2.58v2.56h1.88l2.07-.03c.11,0,.16.05.16.15v1.22c0,.07,0,.12-.03.14-.02.02-.06.03-.14.03l-2.07-.03h-1.88v2.72h3.55l1.9-.03c.08,0,.13,0,.15.03.01.02.02.06.02.13v1.27c0,.07,0,.12-.03.14-.02.02-.07.03-.14.03l-1.9-.03h-8.95Z"/>
        <path class="cls-2" d="M68.15,18.07c.61.04,1.03.06,1.26.06.42,0,.63-.16.63-.48v-7.53h-8.86v7.19l.03,2.2c0,.1-.05.15-.16.15h-1.35c-.11,0-.16-.05-.16-.15l.03-2.4v-5.86l-.03-2.42c0-.08,0-.13.03-.15s.07-.02.14-.02l2.04.03h1.76c.31-.58.58-1.15.79-1.72.1-.26.18-.54.23-.84.73.09,1.29.17,1.68.26.12.02.18.09.18.19,0,.09-.04.18-.12.26-.12.1-.2.22-.26.36-.26.55-.52,1.05-.77,1.5h4.26l2.02-.03c.09,0,.14,0,.16.03.01.02.02.07.02.14l-.03,2.49v4.06l.03,2.62c0,.56-.14.97-.43,1.23-.26.22-.97.34-2.13.37-.24,0-.39-.02-.44-.07-.03-.04-.08-.16-.13-.37-.11-.45-.25-.82-.42-1.1ZM64.04,17.32h-1.13c-.08,0-.13-.01-.15-.04-.01-.01-.02-.06-.02-.13l.04-2.5v-1.29l-.04-1.65c0-.08,0-.13.03-.15.02-.01.07-.02.14-.02l1.59.03h2.14l1.6-.03c.08,0,.13,0,.15.03s.02.07.02.14l-.03,1.39v1.41l.03,2.42c0,.08,0,.13-.03.14-.02.02-.06.03-.14.03h-1.12c-.09,0-.14,0-.16-.03-.02-.02-.02-.07-.02-.14v-.45h-2.74v.66c0,.08,0,.13-.03.14-.02.02-.06.03-.14.03ZM64.2,12.9v2.24h2.74v-2.24h-2.74Z"/>
        <path class="cls-2" d="M75.94,6.86c.67.16,1.19.34,1.58.53.22.11.33.22.33.33,0,.09-.03.19-.09.3-.08.21-.18.58-.29,1.11-.38,2.16-.57,3.66-.57,4.5,0,1.12.05,1.91.15,2.37.62-1.33.96-2.04,1-2.15.13.34.29.68.49,1,.09.1.14.2.14.29s-.06.25-.18.49c-.28.62-.5,1.24-.67,1.83-.03.12-.04.25-.04.4v.36c0,.09-.07.16-.2.21-.38.17-.72.27-1.03.31-.03,0-.06,0-.09,0-.1,0-.19-.07-.26-.21-.26-.51-.48-1.27-.65-2.27-.16-.86-.23-1.65-.23-2.37,0-1.1.15-2.71.45-4.8.11-.84.17-1.58.17-2.23ZM82.94,9.92c-.05-1.23-.08-1.89-.09-1.99-.06-.52-.14-.93-.25-1.23.93.03,1.58.1,1.93.21.16.04.24.12.24.24,0,.08-.04.18-.11.3-.05.1-.07.31-.07.63v1.67c.72-.1,1.36-.21,1.92-.33.05-.01.1-.02.13-.02.08,0,.13.05.14.15.04.27.08.64.12,1.13v.04c0,.13-.07.21-.2.22-.63.12-1.33.22-2.07.3v2.31c.03,1.39-.19,2.55-.64,3.48-.46.99-1.18,1.77-2.15,2.33-.14.09-.27.13-.37.13-.12,0-.22-.04-.3-.13-.29-.26-.68-.51-1.17-.74.74-.4,1.31-.8,1.71-1.22.34-.35.62-.78.83-1.27.33-.75.48-1.87.47-3.35v-1.36c-.82.06-1.42.09-1.82.09-.17,0-.35.01-.54.01s-.42,0-.72-.01c-.21,0-.33-.08-.34-.23-.01-.08-.07-.53-.17-1.37.46.05,1.08.08,1.86.08.63,0,1.19-.02,1.67-.07Z"/>
        <path class="cls-2" d="M90.86,7.21c.7.17,1.24.35,1.61.55.23.12.34.24.34.36,0,.07-.08.22-.23.45-.13.23-.25.59-.36,1.06-.42,1.86-.63,3.48-.63,4.85,0,.64.03,1.22.09,1.75.68-1.48,1.02-2.23,1.02-2.23.05.16.23.48.53.94.07.12.1.19.1.23,0,.08-.02.16-.07.24-.42.94-.71,1.7-.86,2.26-.03.09-.04.25-.04.47l.03.42c0,.1-.07.17-.2.2-.42.12-.83.2-1.22.24h-.03c-.08,0-.14-.06-.17-.17-.22-.55-.4-1.29-.53-2.22-.11-.78-.16-1.53-.16-2.25,0-1.38.17-3.02.51-4.92.18-1.03.26-1.77.26-2.23ZM94.32,14.95l1.36-.12h.03c.08,0,.12.08.12.23.05.54.29.92.73,1.14.38.18.95.27,1.72.27.82,0,1.77-.06,2.86-.19.03,0,.06,0,.07,0,.08,0,.13.07.15.2.06.42.09.85.09,1.29,0,.1-.01.16-.04.18-.03.02-.1.03-.22.04-.93.11-1.75.17-2.45.17-1.16,0-2.05-.11-2.66-.33-.52-.19-.93-.5-1.24-.92-.35-.44-.52-1.09-.52-1.95ZM94.8,10.69c.01-.86.03-1.35.04-1.47.02-.15.09-.23.21-.26.97-.18,2.05-.27,3.26-.27.85,0,1.59.03,2.22.09.16,0,.26.03.3.06.03.02.04.07.04.14,0,.57,0,1-.03,1.27-.01.12-.07.18-.16.18h-.04c-.9-.06-1.71-.1-2.45-.1-.99,0-2.12.12-3.41.35Z"/>
        <path class="cls-2" d="M108.47,18.34c.26-.01.39-.17.39-.48v-2.09h-3c-.12,1.47-.41,2.67-.88,3.61-.1.19-.18.29-.24.29-.04,0-.12-.05-.21-.16-.25-.32-.54-.59-.85-.8.41-.77.69-1.6.83-2.49.13-.8.2-1.88.2-3.25v-2.02l-.12.13c-.12.14-.21.21-.25.21-.05,0-.13-.1-.24-.3-.18-.31-.37-.57-.59-.77.9-.93,1.58-1.98,2.02-3.15.15-.36.25-.7.29-1.02.53.09.95.19,1.26.3.16.04.24.11.24.21,0,.08-.04.16-.12.24-.11.11-.21.28-.32.51h1.46c.12,0,.21-.01.29-.04.08-.04.15-.06.2-.06.07,0,.24.1.49.31.25.19.38.34.38.44,0,.09-.06.18-.17.26-.1.09-.2.23-.3.42-.21.42-.4.79-.59,1.11l1.29-.03c.09,0,.14,0,.16.03.01.02.02.07.02.14l-.03,1.74v4.48l.03,2.01c0,.59-.12,1.01-.37,1.25-.25.2-.79.3-1.62.31-.25,0-.4-.02-.44-.07-.04-.04-.08-.17-.13-.38-.1-.41-.23-.73-.37-.96.46.04.89.06,1.29.06ZM105.61,9.76h1.63c.25-.45.46-.89.63-1.3h-1.49c-.22.43-.48.86-.78,1.3ZM105.94,14.62h.88v-1.3h-.85c0,.35,0,.79-.03,1.3ZM105.97,12.16h.85v-1.26h-.85v1.26ZM108.86,10.9h-.86v1.26h.86v-1.26ZM108,14.62h.86v-1.3h-.86v1.3ZM113.31,11.5c.56.02,1.04.05,1.44.09.13.01.2.07.2.15,0,.04-.03.13-.08.26-.05.13-.07.35-.07.66v.39l2.1-.03c.08,0,.12,0,.14.03s.02.07.02.14v1c0,.08,0,.13-.03.15-.02.02-.06.03-.14.03l-2.1-.03v1.4h.67l1.83-.03c.08,0,.12,0,.14.03.01.02.02.06.02.13v1.03c0,.08,0,.13-.03.15-.02.02-.06.03-.14.03l-1.83-.03h-.67v.6l.03,1.93c0,.08,0,.13-.03.15-.02.01-.07.02-.14.02h-1.11c-.08,0-.13-.01-.15-.04-.02-.01-.02-.06-.02-.13l.02-1.93v-.6h-.87l-1.85.03c-.08,0-.13-.01-.15-.04-.01-.02-.02-.07-.02-.15v-1.03c0-.07,0-.12.03-.14.02-.02.06-.03.14-.03l1.85.03h.87v-1.4h-1.39c-.04.11-.1.25-.18.41-.09.2-.14.31-.15.34-.12.22-.21.33-.27.33s-.18-.06-.34-.18c-.26-.14-.54-.26-.84-.36.42-.67.75-1.41,1-2.22.09-.34.14-.61.15-.81.37.08.75.19,1.13.31.16.06.24.12.24.18s-.01.12-.04.16c-.07.09-.14.25-.2.47l-.04.07h.93v-.39c0-.43-.03-.82-.09-1.16ZM110.79,6.8l1.74.03h2.54l1.74-.03c.12,0,.18.05.18.14,0,.01,0,.03,0,.04l-.03.75c-.06,1.39-.18,2.3-.37,2.75-.22.5-.7.75-1.41.75-.31,0-.57,0-.79-.03-.22-.02-.36-.06-.39-.1-.04-.04-.07-.14-.09-.29-.04-.43-.14-.78-.29-1.05.43.08.79.12,1.06.12.23,0,.39-.03.48-.09.07-.05.13-.14.18-.29.07-.25.13-.73.16-1.41h-1.65c-.15.86-.43,1.58-.83,2.14-.34.48-.82.92-1.42,1.3-.18.11-.29.17-.33.17-.06,0-.16-.1-.29-.3-.2-.29-.44-.54-.74-.75.7-.34,1.22-.72,1.54-1.14.29-.37.48-.84.59-1.41l-1.57.03c-.08,0-.12,0-.14-.03s-.02-.06-.02-.13v-.99c0-.08,0-.13.03-.15s.06-.02.13-.02Z"/>
        <path class="cls-2" d="M132.78,18.2c-.25.25-.49.64-.7,1.16-.1.23-.19.34-.27.34-.07,0-.19-.06-.36-.17-1.03-.7-1.93-1.51-2.7-2.43-.95,1.09-2.05,1.95-3.31,2.57-.18.09-.3.13-.34.13-.07,0-.17-.11-.3-.34-.22-.4-.46-.69-.71-.87-.3.58-.76.87-1.38.87-.29,0-.51,0-.66-.01-.17,0-.28-.04-.32-.09-.03-.04-.06-.16-.09-.35-.06-.5-.18-.89-.35-1.18.37.07.71.1,1.04.1.23,0,.41-.07.51-.2.09-.12.16-.32.21-.62.2-1.1.3-2.58.32-4.45h-1.5c-.1,1.59-.3,2.9-.59,3.92-.28,1-.7,1.9-1.25,2.7-.11.17-.19.26-.25.26-.05,0-.15-.09-.29-.26-.27-.42-.55-.72-.84-.92.79-.99,1.31-2.28,1.56-3.85.17-1.03.27-2.6.3-4.72-.43,0-.81.01-1.13.02-.22,0-.33,0-.34,0-.08,0-.12,0-.14-.03-.01-.02-.02-.08-.02-.15v-1.11c0-.08,0-.13.03-.15.02-.01.06-.02.13-.02l1.77.03h.64v-.82c0-.6-.04-1.08-.12-1.46.66.02,1.19.05,1.58.09.16.02.24.07.24.15,0,.06-.03.16-.09.3-.06.18-.09.49-.09.92v.82h.48l1.76-.03c.08,0,.13,0,.15.03.02.02.02.07.02.14v1.11c0,.09-.01.14-.04.16-.02.01-.06.02-.13.02l-1.76-.03h-1.49c-.03.98-.05,1.48-.05,1.52h1.73l1.02-.03c.12,0,.18.06.18.18-.02.21-.03.36-.03.48.91-1.22,1.55-2.65,1.92-4.28.16-.71.24-1.24.26-1.59.41.07.87.17,1.39.3.19.06.29.13.29.21,0,.06-.03.14-.1.22-.11.14-.21.39-.3.75-.12.48-.24.92-.37,1.3h2.45l1.97-.03c.1,0,.15.05.15.16v1.08c0,.11-.05.16-.15.16,0,0-.12,0-.33,0-.22,0-.47-.02-.72-.02-.17,2.33-.7,4.21-1.59,5.64.74.83,1.78,1.62,3.11,2.36ZM125.82,13.04c-.13.19-.23.29-.3.29-.04,0-.12-.08-.23-.23-.18-.25-.34-.46-.49-.63v.6c0,1.13-.07,2.18-.17,3.14-.1.94-.22,1.6-.37,1.99-.06.16-.11.28-.15.34,1.57-.68,2.81-1.59,3.72-2.72-.64-1.09-1.11-2.32-1.42-3.67-.2.33-.4.62-.59.88ZM128.72,14.5c.54-1.08.88-2.51,1-4.29h-2.32v.04c.24,1.71.68,3.12,1.32,4.25Z"/>
        <path class="cls-2" d="M139.94,9.5c-.34-.71-.57-1.23-.71-1.55-.24-.5-.49-.91-.75-1.22.87-.16,1.46-.24,1.78-.24.34,0,.51.1.51.31v.21c0,.08,0,.15.02.21.05.22.13.47.23.75.24.61.41,1.02.51,1.22,1.19-.28,2.24-.59,3.13-.93.06-.03.1-.04.13-.04.05,0,.1.05.15.15.1.19.22.57.37,1.16,0,.03.01.06.01.09,0,.08-.04.14-.13.17-.79.29-1.79.58-2.99.86.59,1.06,1.35,2.12,2.29,3.17.08.08.21.19.4.33.1.08.15.15.15.19,0,.07-.03.16-.09.26-.12.29-.31.61-.59.97-.11.15-.21.23-.3.23-.05,0-.13-.04-.24-.12-.26-.19-.47-.32-.62-.4-.98-.51-2.04-.76-3.18-.76-1.67,0-2.5.47-2.5,1.41,0,1.06,1.24,1.59,3.72,1.59.79,0,1.59-.07,2.4-.21-.06.6-.17,1.13-.32,1.6-.03.11-.13.18-.29.21-.42.07-.98.1-1.67.1-1.88,0-3.29-.31-4.23-.92-.81-.53-1.21-1.26-1.21-2.19s.39-1.66,1.19-2.2c.7-.47,1.62-.71,2.75-.71,1.04,0,1.94.13,2.67.4-.71-.66-1.35-1.55-1.93-2.66-.98.17-1.94.3-2.89.38-.68.05-1.17.07-1.47.07-.12,0-.2-.09-.24-.27-.12-.36-.23-.81-.34-1.35.3,0,.57.01.81.01.36,0,.71,0,1.06-.03.61-.03,1.4-.12,2.37-.29Z"/>
        <path class="cls-2" d="M152.1,6.52c.79.08,1.36.17,1.71.29.21.05.32.15.32.3,0,.07-.04.16-.1.29-.06.12-.11.36-.14.74-.02.38-.04.88-.07,1.49.23.12.42.23.57.33.09.06.13.13.13.21,0,.04-.02.1-.07.17-.29.47-.55.94-.78,1.42v.07c.42-.47.88-.96,1.39-1.45,1.03-.98,1.93-1.47,2.71-1.47.6,0,1.06.2,1.38.6.28.35.42.82.42,1.4,0,.77-.04,1.67-.12,2.72-.02.38-.05.94-.1,1.68-.03.4-.04.67-.04.83,0,.38.05.62.15.73.08.08.21.12.4.12.31,0,.68-.18,1.11-.54.31-.26.61-.68.9-1.26.18.5.37.88.56,1.13.11.14.16.25.16.34,0,.07-.03.15-.1.26-.82,1.15-1.78,1.72-2.89,1.72-1.28,0-1.92-.76-1.92-2.29,0-.31.04-1.15.12-2.52.07-1.23.11-2.05.11-2.46,0-.66-.16-.99-.47-.99-.39,0-.95.32-1.68.97-.82.8-1.51,1.53-2.09,2.2,0,.36.01,1.4.04,3.13.02,1.1.02,1.95.02,2.55,0,.14-.07.21-.21.21-.26.04-.65.06-1.17.06-.14,0-.21-.09-.21-.26,0-1.96.01-3.39.04-4.29-.49.77-1.07,1.67-1.74,2.7-.05.1-.11.15-.16.15-.04,0-.1-.02-.18-.07-.36-.22-.67-.51-.93-.84-.06-.06-.09-.11-.09-.16,0-.08.04-.17.13-.26,1-1.27,1.98-2.59,2.94-3.94,0-.44,0-.78.02-1.02-.71.19-1.31.38-1.8.59-.03.01-.08.04-.14.08-.13.09-.23.13-.29.13-.12,0-.22-.08-.3-.24-.15-.24-.34-.7-.59-1.38.28,0,.65-.06,1.09-.14.8-.19,1.5-.37,2.12-.56v-2.04c0-.6-.05-1.08-.15-1.46Z"/>
        <path class="cls-2" d="M169.69,9.26c.62-.11,1.33-.28,2.13-.51.03,0,.06-.01.08-.01.09,0,.14.05.15.16.06.4.09.76.11,1.08v.07c0,.11-.08.19-.23.22-.86.24-1.73.43-2.61.57-.99,3.23-1.91,5.94-2.75,8.12-.04.12-.1.18-.18.18-.03,0-.08,0-.15-.03-.51-.21-.91-.39-1.2-.56-.09-.05-.14-.12-.14-.21,0-.03,0-.06.02-.09,1.05-2.4,1.92-4.77,2.6-7.1-1.06.11-1.93.17-2.62.17-.19,0-.29-.08-.32-.24-.05-.26-.12-.72-.21-1.37.21.03.58.05,1.11.05.79,0,1.59-.05,2.42-.15.12-.46.24-1.08.38-1.88.06-.45.09-.91.09-1.38.91.14,1.54.28,1.88.42.11.04.17.12.17.24,0,.09-.03.17-.07.24-.19.33-.29.52-.31.59-.05.2-.12.47-.21.83-.07.28-.12.48-.15.6ZM169.97,16.15c.58-.15,1.01-.23,1.27-.23.14,0,.21.07.23.21.06.56.3.95.73,1.16.34.17.86.26,1.56.26.56,0,1.4-.07,2.52-.21.02,0,.04,0,.05,0,.08,0,.12.05.13.14.08.52.12.96.12,1.31,0,.03,0,.06,0,.07,0,.1-.08.15-.24.16-.75.11-1.43.17-2.04.17-1.04,0-1.86-.09-2.43-.26-.5-.15-.91-.39-1.23-.72-.42-.42-.64-1.11-.67-2.06ZM171.14,13.31c-.04-.71-.07-1.16-.07-1.36,0-.11.02-.19.06-.22.03-.03.11-.06.21-.08,1.11-.23,2.09-.34,2.92-.34.59,0,1.17.05,1.76.15.12.02.19.04.21.07.03.02.04.08.04.16.01.21.02.43.02.69,0,.15,0,.32,0,.51,0,.19-.06.29-.18.29-.03,0-.07,0-.11-.01-.6-.12-1.22-.18-1.86-.18-.86,0-1.86.11-3.01.34Z"/>
        <path class="cls-2" d="M182.05,19.72h-1.3c-.07,0-.12,0-.14-.03-.02-.02-.03-.06-.03-.14l.03-4.89v-2.77l-.03-3.73c0-.08,0-.12.03-.14s.07-.02.14-.02l2.08.03h.97c.17-.34.36-.81.56-1.41.06-.16.11-.4.16-.71.41.04.95.11,1.6.23.14.03.21.1.21.2,0,.06-.04.13-.12.21-.11.13-.19.25-.23.36-.18.43-.35.81-.52,1.13h2.92l2.09-.03c.08,0,.12,0,.14.03.01.02.02.06.02.13l-.03,3.32v3.16l.03,4.88c0,.08,0,.13-.03.15-.02.01-.06.02-.13.02h-1.33c-.08,0-.13-.01-.15-.04-.01-.01-.02-.06-.02-.13v-.67h-6.77v.7c0,.08-.01.13-.03.15-.02.01-.07.02-.14.02ZM182.22,9.47v1.63h6.77v-1.63h-6.77ZM182.22,14.19h6.77v-1.67h-6.77v1.67ZM182.22,17.41h6.77v-1.8h-6.77v1.8Z"/>
        <path class="cls-2" d="M198.1,9.71c0,.14-.01.44-.01.9,0,.09,0,.15,0,.19,0,.14-.03.23-.09.29-.03.02-.14.09-.34.19l-.14.07c.17,0,.4.01.67.01.21,0,.35-.04.42-.11.06-.06.09-.17.09-.31v-3.11h-2.76l-1.68.03c-.08,0-.13-.01-.15-.04-.01-.02-.02-.07-.02-.14v-1.03c0-.08,0-.13.03-.15.02-.01.07-.02.14-.02l1.68.03h2.34l1.71-.03c.08,0,.13.01.15.04.01.02.02.07.02.15l-.03,1.11v1.96l.04,1.55c0,.47-.11.81-.33,1.02.69.11,1.18.2,1.46.29.13.05.2.11.2.2,0,.09-.05.17-.16.26-.09.06-.17.16-.24.29l-.1.17h2.15l2.08-.03c.08,0,.13.01.15.04.01.02.02.07.02.15l-.03,1.67v1.55l.03,2.73c0,.08-.01.13-.03.15-.02.01-.06.02-.13.02h-1.2c-.09,0-.14,0-.15-.03-.02-.02-.03-.07-.03-.14v-.39h-6.42v.46c0,.08,0,.13-.03.15s-.07.02-.14.02h-1.23c-.08,0-.12,0-.14-.03s-.02-.07-.02-.14l.03-2.78v-1.36l-.03-1.88c0-.09,0-.14.03-.16.02-.01.06-.02.13-.02l2.09.03h1.28s.06-.14.12-.3c.11-.27.19-.55.24-.84-.25.2-.84.31-1.77.31-.09,0-.14,0-.17,0-.13,0-.21-.03-.25-.09-.03-.04-.07-.16-.11-.35-.08-.34-.17-.6-.26-.77-.64.33-1.28.62-1.93.89-.25.1-.4.18-.46.24-.09.07-.16.1-.23.1-.09,0-.16-.06-.2-.18-.09-.23-.21-.66-.37-1.29.34-.05.73-.15,1.16-.29.89-.28,1.86-.7,2.91-1.25ZM195.59,8.05c.6.24,1.17.57,1.73.97.07.05.1.1.1.14,0,.03-.04.08-.11.15l-.69.62c-.1.09-.16.14-.19.14s-.07-.02-.12-.07c-.46-.38-1.01-.73-1.65-1.05-.06-.03-.09-.06-.09-.09s.04-.08.11-.15l.62-.6c.07-.06.13-.1.18-.1.03,0,.07.01.12.04ZM197.46,14.74v.98h6.42v-.98h-6.42ZM197.46,17.99h6.42v-1.11h-6.42v1.11ZM204.7,9.62c-.01.2-.02.41-.02.63,0,.09,0,.19,0,.29v.16c0,.15-.03.25-.09.31-.04.03-.15.09-.34.19l-.27.13c.2.02.46.03.79.03.22,0,.38-.04.46-.11.06-.06.1-.17.1-.31v-3.11h-2.75l-1.68.03c-.08,0-.13-.01-.15-.04-.02-.02-.02-.07-.02-.14v-1.03c0-.08.01-.13.04-.15.02-.01.06-.02.13-.02l1.68.03h2.31l1.72-.03c.08,0,.13.01.15.04.01.02.02.07.02.15l-.03,1.11v1.96l.03,1.55c0,.5-.12.85-.37,1.06-.26.2-.86.31-1.8.33-.09,0-.15,0-.18,0-.13,0-.21-.03-.24-.08-.02-.04-.06-.14-.09-.31-.06-.31-.16-.6-.3-.86-.35.16-.91.41-1.68.73-.32.13-.48.2-.5.21-.01,0-.06.03-.15.08-.04.02-.08.04-.11.04-.08,0-.15-.05-.19-.16-.14-.45-.26-.88-.34-1.28.48-.07.88-.16,1.19-.26.72-.23,1.61-.62,2.67-1.16ZM202.13,8.05c.58.26,1.15.61,1.71,1.03.07.05.1.1.1.12,0,.04-.04.09-.11.15l-.73.63c-.09.08-.15.12-.18.12s-.07-.02-.12-.06c-.44-.41-.99-.78-1.63-1.12-.07-.04-.11-.07-.11-.1s.04-.08.11-.15l.63-.54c.07-.07.14-.1.2-.1.03,0,.07,0,.13.03Z"/>
        <path class="cls-2" d="M210.97,19.28l-1.88.03c-.07,0-.12,0-.13-.03-.01-.01-.02-.06-.02-.14v-1.14c0-.08,0-.12.02-.13s.06-.01.12-.01h1.88s3.79.01,3.79.01v-1.25h-2.03l-2.07.03c-.08,0-.12,0-.14-.03-.02-.02-.02-.06-.02-.13v-1.05c0-.08,0-.13.03-.15.02-.01.06-.02.13-.02l2.07.03h2.03c0-.5-.03-.91-.1-1.25.51.01,1.03.04,1.56.09.16.02.24.07.24.15,0,.05-.03.14-.09.29-.05.1-.07.34-.07.72h2.22l2.07-.03c.08,0,.13,0,.15.03.01.02.02.07.02.15v1.05c0,.07,0,.12-.03.14-.02.02-.06.03-.14.03l-2.07-.03h-2.22v1.25h5.86c.08-.01.12,0,.14,0,0,.01.01.06.01.12v1.14c0,.08,0,.13-.02.15-.02.01-.06.02-.13.02l-1.89-.03h-9.3ZM219.87,7.31l1.97-.03c.08,0,.12,0,.14.03.01.02.02.08.02.15l-.03.68v.59l.03,1.55c0,.08-.01.12-.03.14-.02.01-.07.02-.14.02h-1.19c-.09,0-.14,0-.16-.03-.02-.02-.02-.06-.02-.13v-1.63h-9.7v1.63c0,.08-.01.12-.03.14-.02.01-.06.02-.13.02h-1.2c-.09,0-.14,0-.16-.03-.02-.02-.02-.06-.02-.13l.03-1.55v-.48l-.03-.79c0-.09,0-.14.03-.16.02-.01.08-.02.15-.02l1.96.03h3.38v-.18c0-.42-.04-.8-.11-1.12.56.01,1.1.04,1.6.09.16.01.24.07.24.17,0,.04-.03.14-.09.28-.05.1-.07.3-.07.6v.17h3.57ZM213.22,10.95l-1.85.03c-.08,0-.13,0-.15-.03-.02-.02-.02-.06-.02-.13v-1.01c0-.08,0-.12.03-.14s.07-.02.14-.02l1.85.03h4.8l1.83-.03c.08,0,.12,0,.14.03.01.02.02.06.02.13v1.01c0,.08,0,.12-.03.14s-.06.02-.13.02c0,0-.16,0-.45,0-.31,0-.64-.02-1-.02l.06.04c.79.63,1.61,1.45,2.43,2.45.04.06.07.1.07.14,0,.05-.05.11-.14.18l-.84.6c-.06.05-.11.07-.15.07-.05,0-.1-.03-.14-.1l-.64-.86c-2.6.25-5.2.42-7.8.51-.29,0-.47.04-.54.09s-.13.07-.2.07c-.08,0-.14-.07-.17-.2-.06-.28-.15-.72-.25-1.33.36.02.88.03,1.56.03.37,0,.64,0,.83-.01.45-.7.77-1.26.94-1.68h-.22ZM214.14,12.59c1.2-.04,2.51-.11,3.94-.21l-.73-.71c-.05-.04-.08-.08-.08-.11s.06-.08.17-.14l.72-.47h-3.05c-.32.63-.64,1.18-.96,1.63Z"/>
        <path class="cls-2" d="M225.89,15.8c.64,0,1.18.24,1.61.71.38.41.56.89.56,1.45,0,.64-.24,1.18-.72,1.6-.42.37-.9.56-1.46.56-.64,0-1.18-.24-1.61-.71-.38-.41-.56-.89-.56-1.45,0-.64.24-1.18.72-1.6.42-.37.9-.56,1.46-.56ZM225.89,16.72c-.38,0-.69.13-.93.4-.21.23-.31.52-.31.84,0,.38.13.69.4.93.23.21.51.31.84.31.38,0,.69-.13.93-.4.21-.23.32-.52.32-.84,0-.38-.13-.69-.4-.93-.23-.21-.52-.31-.84-.31Z"/>
        <path class="cls-2" d="M245.33,9.19l2.7-.06c.33-.01.58-.08.75-.18.05-.04.11-.06.19-.06s.16.03.25.09c.34.22.68.49,1.02.81.13.11.2.23.2.34,0,.11-.06.21-.18.31-.19.15-.35.36-.49.64-.94,1.91-1.93,3.46-2.97,4.64-.68.77-1.47,1.52-2.37,2.23-.77.62-1.5,1.12-2.19,1.5-.08.05-.16.07-.24.07-.11,0-.22-.06-.34-.17-.37-.29-.85-.52-1.43-.69,1.22-.67,2.21-1.31,2.98-1.92.64-.51,1.31-1.14,2.01-1.9.64-.72,1.17-1.4,1.58-2.04.38-.6.78-1.34,1.19-2.23l-3.63.11c-1.21,1.48-2.15,2.51-2.83,3.07-.11.11-.21.17-.32.17-.07,0-.15-.03-.22-.09-.45-.33-.94-.54-1.44-.64,1.67-1.37,3.02-2.85,4.04-4.45.46-.78.75-1.46.89-2.03.85.3,1.43.56,1.75.8.1.07.15.15.15.25s-.06.18-.17.25c-.06.04-.19.17-.37.4-.11.17-.27.42-.49.75ZM249.1,7.66l.79-.56s.06-.04.09-.04c.04,0,.08.02.14.07.51.4.99.93,1.42,1.6.03.04.04.08.04.11,0,.05-.03.09-.09.13l-.63.47s-.08.04-.12.04c-.05,0-.1-.03-.14-.1-.46-.71-.97-1.29-1.51-1.74ZM250.47,6.67l.75-.54s.07-.04.09-.04c.03,0,.08.02.13.07.58.43,1.05.95,1.43,1.55.03.04.04.09.04.12,0,.05-.03.1-.09.15l-.6.46s-.09.05-.12.05c-.05,0-.09-.03-.13-.1-.42-.67-.92-1.24-1.5-1.72Z"/>
        <path class="cls-2" d="M263.52,16.88h-5.82v.89c0,.13-.02.21-.07.24-.04.03-.12.05-.26.05-.2,0-.39.01-.59.01s-.4,0-.59-.01c-.21,0-.31-.07-.31-.18v-.04c.03-1.56.04-2.55.04-2.98v-4.65c0-.59,0-1.09-.03-1.51,0-.14.06-.21.17-.21.53.03,1.42.04,2.68.04h3.57c1.41,0,2.35,0,2.82-.03.13,0,.2.08.2.23v2.5s-.01,3.58-.01,3.58c0,.54.02,1.49.07,2.86,0,.17-.09.26-.29.26-.23,0-.46,0-.69,0s-.46,0-.69-.01c-.09,0-.15-.01-.18-.04-.01-.03-.02-.09-.02-.19v-.8ZM263.52,15.29v-5.17h-5.83v5.17h5.83Z"/>
        <path class="cls-2" d="M269.68,12.05c.78.12,1.86.18,3.24.18h4.83c.47,0,1.08,0,1.83-.02.95-.01,1.49-.02,1.62-.03h.07c.13,0,.2.07.2.21.01.23.02.47.02.71s0,.47-.02.7c0,.15-.07.23-.21.23h-.06c-1.5-.02-2.62-.03-3.35-.03h-5.4l-2.2.18c-.19,0-.31-.1-.34-.31-.09-.4-.16-1-.23-1.82Z"/>
        <path class="cls-2" d="M283.77,16.23c1.41-1.25,2.49-2.73,3.25-4.47.41-.91.63-1.65.68-2.22.84.3,1.46.55,1.85.76.12.05.18.13.18.24s-.05.2-.15.3c-.14.14-.31.45-.52.92-.92,2.08-1.99,3.76-3.21,5.04-.14.15-.28.23-.42.23-.11,0-.23-.05-.34-.15-.33-.26-.77-.48-1.32-.65ZM291.44,10.54c.17-.11.41-.28.74-.51.22-.15.37-.25.45-.31.08-.06.15-.09.21-.09s.14.04.23.12c1.55,1.55,2.8,3.39,3.76,5.51.04.07.06.14.06.21,0,.09-.05.17-.15.24-.35.27-.76.54-1.25.79-.07.03-.13.05-.18.05-.09,0-.15-.06-.19-.18-1.06-2.4-2.29-4.34-3.7-5.84ZM293.59,8.49l.8-.56s.06-.04.09-.04c.04,0,.08.02.14.07.51.4.99.93,1.42,1.6.03.04.04.08.04.11,0,.05-.03.09-.09.13l-.63.46s-.08.05-.12.05c-.05,0-.1-.03-.14-.1-.46-.71-.97-1.29-1.52-1.74ZM294.98,7.49l.75-.53s.07-.04.09-.04c.03,0,.08.02.13.07.58.44,1.06.95,1.43,1.55.03.04.04.09.04.12,0,.05-.03.1-.09.15l-.6.46s-.08.05-.12.05c-.05,0-.09-.03-.13-.1-.43-.67-.93-1.25-1.5-1.73Z"/>
        <path class="cls-2" d="M301.91,8.8c.97.12,1.6.23,1.9.33.16.04.24.13.24.27,0,.05-.01.12-.04.19-.12.24-.18.58-.18,1.02-.03,1.8-.3,3.27-.81,4.41-.44,1.04-1.15,1.98-2.13,2.82-.16.13-.29.2-.39.2-.08,0-.17-.04-.29-.12-.35-.24-.78-.45-1.27-.63,1.17-.89,2-1.88,2.49-2.99.24-.59.4-1.16.48-1.74.09-.61.14-1.44.15-2.5,0-.47-.05-.89-.15-1.26ZM307.15,15.47c.67-.36,1.38-.82,2.13-1.4,1.03-.79,1.91-1.64,2.62-2.55.06.53.21,1.03.47,1.52.06.14.09.23.09.26,0,.1-.08.23-.23.37-.74.76-1.48,1.41-2.22,1.97-.86.66-1.75,1.26-2.67,1.8-.14.09-.29.2-.43.31-.1.08-.2.12-.31.12-.08,0-.18-.04-.31-.12-.29-.2-.59-.51-.9-.92-.09-.14-.13-.24-.13-.31s.02-.15.06-.23c.06-.11.09-.49.09-1.14v-4.69c0-1.28-.05-2.15-.15-2.61.95.12,1.58.23,1.88.31.18.04.27.13.27.26,0,.09-.04.22-.12.38-.09.19-.14.74-.14,1.66v5.01Z"/>
        <path class="cls-2" d="M317.01,14.5c.29.01.5.03.64.06.27-.25.53-.54.78-.86h-2.3c-.37.24-.84.5-1.41.78-.18.08-.29.12-.34.12-.08,0-.18-.11-.32-.34-.13-.26-.31-.49-.54-.7,1.29-.57,2.44-1.26,3.43-2.07h-1.05l-1.89.03c-.1,0-.15-.05-.15-.16v-.93c0-.11.05-.17.15-.17l1.89.04h.67v-1.26h-.39l-1.46.03c-.08,0-.13,0-.15-.03-.01-.02-.02-.07-.02-.14v-.94c0-.08.01-.12.04-.14.01-.01.06-.02.13-.02l1.46.03h.39c0-.68-.04-1.24-.11-1.66.59.02,1.06.06,1.41.11.16.01.24.06.24.15,0,.07-.03.18-.09.31-.05.09-.07.45-.07,1.08l1.26-.03c.08,0,.13,0,.15.03.02.02.02.06.02.13v.94c.24-.35.46-.71.67-1.08.2-.39.34-.73.42-1.03.6.28,1,.49,1.2.63.14.09.21.18.21.27,0,.09-.05.17-.15.24-.19.13-.34.31-.46.53-.41.7-.83,1.31-1.25,1.83l.92-.04c.08,0,.13,0,.15.03.01.02.02.07.02.14v.93c0,.08,0,.12-.03.14s-.07.02-.15.02l-1.8-.03h-.2c-.31.33-.72.69-1.22,1.08h1.38c.12,0,.2-.02.26-.05.08-.04.13-.06.16-.06.1,0,.25.12.47.37.25.27.37.46.37.56,0,.12-.06.2-.18.26-.17.08-.33.2-.48.37-.5.54-.88.92-1.14,1.14-.02.04-.03.07-.03.09,1.22-.22,2.06-.39,2.51-.5-.05.3-.09.58-.1.84-.01.25-.05.4-.1.45-.04.04-.18.08-.41.12-.63.15-1.28.29-1.93.4v.11l.03,1.52c0,.51-.16.89-.48,1.15-.21.15-.44.25-.7.3-.24.04-.6.06-1.09.06-.09,0-.16,0-.21,0-.14,0-.23-.02-.27-.07-.04-.04-.07-.13-.1-.28-.09-.42-.23-.78-.4-1.06.45.05.86.07,1.23.07.39,0,.59-.16.59-.48v-1.1c-.38.06-.99.15-1.85.26-.34.06-.53.1-.57.14-.08.05-.16.07-.24.07-.1,0-.17-.07-.21-.21-.11-.31-.22-.74-.32-1.29.56-.01,1.09-.05,1.6-.11.52-.05,1.05-.11,1.57-.18-.01-.33-.04-.66-.09-.97ZM319.27,9.06h-.04l-1.26-.03v1.26h.29c.35-.37.69-.78,1.02-1.23ZM327.73,18.22c-.23.23-.46.59-.69,1.08-.11.23-.2.34-.27.34-.05,0-.15-.05-.32-.16-1.04-.83-1.86-1.64-2.45-2.4-.89,1.05-1.99,1.91-3.3,2.59-.18.09-.31.13-.37.13-.09,0-.18-.1-.27-.29-.16-.31-.4-.62-.73-.92,1.66-.69,2.94-1.62,3.85-2.79-.49-.91-.87-1.92-1.14-3.01-.03.04-.1.15-.21.31-.07.11-.13.2-.18.26-.14.17-.24.26-.29.26-.06,0-.16-.09-.32-.27-.23-.29-.48-.52-.75-.67,1.11-1.29,1.91-3.07,2.39-5.34.08-.4.13-.82.15-1.26.35.06.8.15,1.36.29.17.05.26.13.26.22,0,.04-.05.16-.15.34-.08.15-.15.37-.21.67-.09.42-.21.87-.36,1.36h1.79l1.77-.03c.08,0,.13,0,.15.03.02.02.02.06.02.13v1.03c0,.08-.01.12-.04.14-.02.01-.06.02-.13.02,0,0-.11,0-.3,0-.2,0-.42-.02-.64-.02-.11,2.3-.6,4.16-1.47,5.58.71.87,1.65,1.67,2.83,2.39ZM322.96,11.02c.22,1.32.57,2.46,1.04,3.42.5-1.07.81-2.47.92-4.19h-1.63c-.14.34-.25.6-.33.77Z"/>
        <path class="cls-2" d="M331,8.75l-1.88.03c-.08,0-.13,0-.15-.03s-.02-.06-.02-.13v-1c0-.08,0-.13.03-.15.02-.01.07-.02.14-.02l1.88.03h3.71v-.04c0-.6-.04-1.06-.1-1.4.49,0,1.02.03,1.6.08.15.01.23.06.23.15,0,.03-.01.08-.04.15-.03.07-.05.12-.05.15-.05.13-.08.42-.08.87v.04h3.96l1.88-.03c.09,0,.14,0,.15.03.02.02.03.06.03.13v1.01c0,.08-.01.12-.04.14-.02.01-.07.02-.15.02l-1.88-.03h-1.39c1.14.75,2.07,1.53,2.78,2.33.05.05.07.1.07.14,0,.05-.04.11-.12.19l-.73.66c-.08.07-.14.11-.18.11-.04,0-.08-.02-.12-.07-.24-.3-.56-.64-.96-1.04-2.31.22-5.29.39-8.91.51-.25,0-.42.04-.51.09-.08.04-.15.06-.21.06-.09,0-.15-.07-.18-.2-.08-.29-.16-.74-.24-1.35.43.02.81.04,1.13.04.14,0,.27,0,.41,0,.37,0,.65,0,.83-.01.46-.6.79-1.08.98-1.44h-1.89ZM336.68,18.24c.57.04,1.04.07,1.43.07.21,0,.34-.04.41-.12.06-.07.09-.2.09-.37v-.6h-6v.67l.03,1.7c0,.08,0,.12-.03.14s-.07.02-.14.02h-1.22c-.08,0-.12,0-.14-.03-.01-.02-.02-.06-.02-.13l.03-1.68v-3.82l-.03-1.73c0-.09,0-.14.03-.16.02-.01.07-.02.14-.02l2.07.03h4.59l2.05-.03c.08,0,.13.01.15.04.01.02.02.07.02.15l-.03,1.85v1.98l.04,1.9c0,.58-.13,1-.39,1.25-.27.24-.98.36-2.12.36-.25,0-.41-.01-.45-.04-.05-.04-.1-.14-.13-.3-.07-.38-.2-.74-.39-1.1ZM338.61,13.43h-6v.78h6v-.78ZM332.61,16.1h6v-.77h-6v.77ZM337.5,9.36c-.06-.04-.09-.08-.09-.11s.03-.08.09-.15l.4-.36h-3.3c-.35.56-.68,1.03-.97,1.41,1.62-.05,3.18-.12,4.68-.21-.06-.05-.33-.25-.8-.59Z"/>
        <path class="cls-2" d="M348.05,11.26v-1.44c0-1.1-.07-1.98-.2-2.64.84.07,1.48.17,1.94.3.19.04.29.13.29.27,0,.07-.03.15-.09.24-.13.25-.2.69-.2,1.33v1.55l3.91-.92c.48-.11.83-.25,1.07-.43.07-.06.14-.09.21-.09.07,0,.14.03.21.09.38.23.75.56,1.11.97.09.09.13.18.13.27,0,.1-.07.2-.2.3-.11.08-.26.27-.46.59-.85,1.43-1.65,2.51-2.39,3.24-.15.15-.28.23-.39.23-.09,0-.19-.03-.29-.1-.48-.29-.9-.48-1.24-.57.86-.75,1.67-1.75,2.45-3l-4.12,1.05v3.41c0,.44.13.73.4.86.26.13.76.2,1.49.2,1.17,0,2.38-.11,3.63-.33.02,0,.04,0,.06,0,.1,0,.17.1.2.31.09.48.13.9.13,1.26,0,.14-.1.21-.31.22-1.03.12-2.22.18-3.58.18-1.52,0-2.55-.21-3.07-.64-.46-.38-.69-1.05-.69-2v-3.02l-.96.26c-1.07.28-1.78.49-2.12.64-.1.04-.16.06-.18.06-.09,0-.17-.08-.24-.24-.16-.29-.36-.8-.6-1.53.98-.12,1.92-.3,2.82-.52l1.27-.31Z"/>
        <path class="cls-2" d="M360.12,9.29c.25-.3.6-.69,1.05-1.17.06-.08.13-.12.21-.12.04,0,.11.02.2.07.93.5,1.89,1.21,2.86,2.13.09.09.13.16.13.21s-.03.12-.09.19c-.33.43-.64.81-.93,1.13-.08.08-.14.12-.18.12-.05,0-.11-.04-.19-.12-.91-.94-1.93-1.76-3.06-2.45ZM360.45,16.78c.8-.22,1.48-.47,2.03-.75.97-.5,1.77-.96,2.41-1.38.56-.37,1.2-.83,1.9-1.41,1-.82,1.8-1.52,2.39-2.11.56-.57,1.13-1.22,1.72-1.97.08.66.22,1.24.42,1.75.05.12.07.21.07.29,0,.11-.08.26-.24.45-.88,1.02-2.02,2.08-3.45,3.18-1.24.97-2.75,1.95-4.53,2.94-.53.32-.86.55-1,.7-.1.1-.19.15-.27.15s-.16-.05-.26-.16c-.46-.52-.86-1.08-1.2-1.67Z"/>
        <path class="cls-2" d="M383.1,14.13c.65.53,1.19,1.03,1.62,1.51.06.06.09.13.09.21,0,.07-.03.13-.09.2-.31.37-.62.69-.93.94-.07.05-.13.07-.18.07-.05,0-.1-.03-.16-.09-.41-.48-.9-.96-1.46-1.46-1.43,1.54-3.03,2.79-4.78,3.75-.16.09-.29.13-.37.13s-.18-.04-.29-.13c-.4-.32-.87-.58-1.43-.76,1.25-.64,2.31-1.28,3.17-1.93.78-.59,1.57-1.3,2.35-2.13-.63-.52-1.36-.99-2.16-1.41.6-.65.93-1.01.99-1.07.07-.07.13-.1.2-.1.02,0,.07.02.15.06.43.21,1.07.61,1.93,1.2.66-.85,1.25-1.84,1.76-2.97l-3.72.07c-1.2,1.53-2.27,2.65-3.21,3.38-.13.09-.23.13-.3.13-.09,0-.17-.03-.24-.1-.35-.25-.77-.48-1.26-.69,1.06-.84,1.95-1.68,2.66-2.51.55-.63,1.08-1.37,1.59-2.2.43-.73.7-1.35.81-1.85.91.32,1.49.56,1.76.73.11.05.16.13.16.24s-.06.21-.18.3c-.11.07-.21.18-.31.31-.12.21-.27.45-.47.75l2.64-.06c.32,0,.59-.09.82-.23.1-.07.19-.1.26-.1s.16.04.27.12c.32.19.66.5,1.03.92.08.08.12.17.12.27s-.06.19-.17.29c-.19.17-.34.36-.45.57-.74,1.46-1.47,2.67-2.21,3.63Z"/>
        <path class="cls-2" d="M389.68,12.05c.78.12,1.86.18,3.24.18h4.83c.47,0,1.08,0,1.83-.02.95-.01,1.49-.02,1.62-.03h.07c.13,0,.2.07.2.21.01.23.02.47.02.71s0,.47-.02.7c0,.15-.07.23-.21.23h-.06c-1.5-.02-2.62-.03-3.35-.03h-5.4l-2.2.18c-.19,0-.31-.1-.34-.31-.09-.4-.16-1-.23-1.82Z"/>
        <path class="cls-2" d="M411.57,9.44c-.38,2.78-1,4.93-1.88,6.46-.66,1.15-1.51,1.73-2.56,1.73-.76,0-1.4-.38-1.92-1.14-.49-.72-.73-1.63-.73-2.71,0-1.47.56-2.77,1.69-3.9,1.28-1.28,2.91-1.92,4.88-1.92s3.34.56,4.39,1.67c.88.94,1.32,2.11,1.32,3.53,0,2.71-1.54,4.54-4.62,5.46-.09.02-.16.04-.22.04-.15,0-.29-.1-.42-.31-.21-.34-.56-.65-1.05-.94,1.54-.37,2.67-.88,3.37-1.55.77-.73,1.16-1.71,1.16-2.94,0-1-.35-1.85-1.05-2.53-.63-.63-1.4-.94-2.31-.94h-.06ZM409.83,9.53c-1.07.21-1.92.67-2.56,1.36-.78.88-1.17,1.8-1.17,2.78,0,.69.12,1.24.37,1.66.2.32.41.48.64.48.41,0,.79-.31,1.13-.92.37-.67.7-1.53,1-2.58.27-.95.47-1.88.59-2.79Z"/>
        <path class="cls-2" d="M420.97,8.33l-1.88.03c-.07,0-.11,0-.12-.02-.02-.01-.02-.06-.02-.14v-1.19c0-.09,0-.15.02-.16.01-.01.06-.02.12-.02l1.88.03h9.32l1.86-.03c.07,0,.12.01.13.04,0,.01.02.06.02.15v1.19c0,.08,0,.12-.02.14s-.06.02-.12.02l-1.86-.03h-3.84c-.18.6-.42,1.23-.73,1.89h2.59l2.09-.03c.08,0,.12,0,.14.03s.02.07.02.14l-.02,2.65v2.58l.02,3.82c0,.08-.01.13-.03.15-.02.01-.06.02-.13.02h-1.3c-.09,0-.14,0-.15-.03-.02-.02-.03-.07-.03-.14v-.67h-6.67v.77c0,.08,0,.12-.03.14s-.07.02-.15.02h-1.27c-.08,0-.12,0-.14-.03-.02-.02-.02-.06-.02-.13l.03-3.87v-2.31l-.03-2.97c0-.08,0-.13.03-.15s.06-.02.13-.02l2.1.03h1.03c.29-.59.54-1.22.75-1.89h-3.72ZM422.26,11.68v2.04h6.67v-2.04h-6.67ZM422.26,17.28h6.67v-2.14h-6.67v2.14Z"/>
        <path class="cls-2" d="M435.92,16.48l-1.88.03c-.08,0-.13,0-.15-.03s-.02-.06-.02-.13v-1.19c0-.1.06-.15.17-.15l1.88.03h.36v-2.1l-.03-1.35c0-.08,0-.12.03-.14.02-.01.07-.02.15-.02l2.06.03h1.92v-2h-3.08c-.5.77-1.09,1.48-1.76,2.15-.14.16-.25.24-.31.24-.05,0-.15-.1-.3-.29-.25-.34-.53-.61-.83-.81,1.2-1.04,2.13-2.25,2.78-3.63.19-.4.32-.76.39-1.1.63.13,1.12.24,1.44.33.18.06.27.15.27.26,0,.07-.06.17-.18.29-.14.12-.26.3-.38.54l-.3.64h6.2l2.06-.03c.08,0,.12,0,.14.03s.02.06.02.13v1.11c0,.08,0,.12-.03.14s-.06.02-.13.02l-2.06-.03h-2.31v2h1.6l2.05-.03c.1,0,.15.05.15.16v1.13c0,.11-.05.16-.15.16l-2.05-.03h-1.6v2.19h3.18l1.88-.03c.11,0,.16.05.16.15v1.19c0,.07,0,.12-.03.14-.02.02-.06.03-.14.03l-1.88-.03h-3.18v.73l.03,2.45c0,.08-.01.13-.04.15-.01.01-.06.02-.13.02h-1.33c-.09,0-.14-.01-.15-.04-.01-.01-.02-.06-.02-.13l.03-2.45v-.73h-4.48ZM437.87,15.03h2.53v-2.19h-2.53v2.19Z"/>
        <path class="cls-2" d="M450.73,8.69h2.61l1.6-.03c.1,0,.15.05.15.16v1.07c0,.08-.01.13-.03.15-.02.01-.06.02-.12.02l-1.6-.03h-2.61l-1.61.03c-.07,0-.11,0-.12-.03-.01-.02-.02-.07-.02-.15v-1.07c0-.11.05-.16.15-.16l1.61.03ZM454.58,19.41c0,.08,0,.12-.03.14s-.07.02-.14.02h-1.19c-.08,0-.12,0-.14-.03-.01-.02-.02-.06-.02-.13v-.48h-1.85v.76c0,.08,0,.13-.03.15s-.06.02-.13.02h-1.17c-.09,0-.14,0-.16-.03-.01-.02-.02-.07-.02-.14l.03-2.26v-.99l-.03-1.41c0-.08.01-.13.04-.15.02-.01.07-.02.15-.02l1.36.03h1.79l1.38-.03c.08,0,.13,0,.15.03s.02.07.02.14l-.03,1.15v1.07l.03,2.16ZM451.26,6.67h1.77l1.35-.03c.09,0,.14,0,.16.03.01.02.02.06.02.13v1.01c0,.08-.01.12-.04.14-.02.01-.07.02-.15.02l-1.35-.03h-1.77l-1.36.03c-.08,0-.13,0-.15-.03-.01-.02-.02-.06-.02-.13v-1.01c0-.08.01-.12.04-.14.01-.01.06-.02.13-.02l1.36.03ZM451.34,10.84h1.63l1.26-.03c.09,0,.14,0,.15.03.01.02.02.06.02.13v.97c0,.08,0,.12-.03.14s-.07.02-.15.02l-1.26-.03h-1.63l-1.28.03c-.08,0-.13,0-.15-.03-.01-.02-.02-.06-.02-.13v-.97c0-.08,0-.12.03-.14s.07-.02.14-.02l1.28.03ZM451.34,12.84h1.63l1.26-.03c.09,0,.14,0,.15.03.01.02.02.06.02.13v.98c0,.07,0,.11-.03.12s-.07.02-.15.02l-1.26-.03h-1.63l-1.28.03c-.11,0-.17-.05-.17-.15v-.98c0-.08,0-.12.03-.14s.07-.02.14-.02l1.28.03ZM453.06,16.16h-1.85v1.49h1.85v-1.49ZM460.07,8.29h-2.65l-1.7.03c-.08,0-.13,0-.15-.03-.01-.02-.02-.06-.02-.13v-1.17c0-.08.01-.13.04-.15.01-.01.06-.02.13-.02l1.7.03h2.37l1.71-.03c.09,0,.14,0,.16.03.01.02.02.07.02.14l-.03,1.6v3.35l.03,1.6c0,.08,0,.13-.03.15-.02.02-.07.03-.16.03h-1.26c-.08,0-.12,0-.14-.03s-.02-.07-.02-.15v-.57h-2.82v4.18c0,.37.06.6.18.67.16.13.62.2,1.38.2.97,0,1.56-.12,1.79-.37.19-.24.3-.87.33-1.9.27.17.63.31,1.08.42.21.05.34.1.39.14.05.05.07.14.07.26,0,.05,0,.11,0,.2-.07,1.07-.3,1.79-.69,2.16-.23.22-.58.38-1.08.46-.47.08-1.15.12-2.04.12-1.36,0-2.2-.13-2.51-.39-.29-.22-.43-.72-.43-1.47v-4.29l-.03-1.66c0-.08,0-.13.03-.15.02-.01.07-.02.14-.02l1.57.03h2.65v-3.27Z"/>
        <path class="cls-2" d="M471.42,10.64h-1.76l-1.49.03c-.08,0-.13,0-.15-.03-.01-.02-.02-.06-.02-.13v-.78c-.97.65-2.03,1.2-3.16,1.66-.19.07-.31.1-.34.1-.08,0-.17-.13-.27-.39-.17-.37-.38-.69-.63-.97,2.39-.81,4.29-1.96,5.7-3.46.22-.21.42-.47.6-.79.79.1,1.33.19,1.63.26.15.04.23.1.23.19,0,.08-.05.14-.15.18l-.12.06c1.64,1.57,3.71,2.68,6.21,3.33-.22.27-.42.64-.59,1.11-.1.27-.19.4-.27.4-.03,0-.15-.03-.34-.1-1.22-.45-2.36-1.02-3.41-1.71v.92c0,.08,0,.12-.03.14s-.06.02-.13.02l-1.5-.03ZM465.3,15.27c.02-.08.06-.12.1-.12.02,0,.08.02.18.05l1.08.37c.11.04.17.09.17.14,0,.02,0,.06-.02.12-.39,1.25-.85,2.28-1.41,3.08-.07.09-.13.14-.18.14-.04,0-.1-.02-.18-.07l-1.03-.57c-.1-.06-.15-.11-.15-.17,0-.03.02-.08.06-.13.62-.79,1.08-1.74,1.38-2.83ZM473.5,11.5c.15,0,.28-.02.37-.06.12-.05.2-.07.26-.07.12,0,.32.14.62.43.28.27.42.46.42.57,0,.12-.07.22-.21.3-.17.1-.35.28-.55.54-.52.69-1.03,1.32-1.53,1.89-.09.09-.16.13-.21.13-.08,0-.27-.1-.57-.3-.39-.28-.59-.46-.59-.54,0-.04.02-.08.07-.13.55-.59.96-1.07,1.25-1.46h-4.59l-2.04.03c-.08,0-.12-.01-.14-.04-.02-.02-.02-.07-.02-.14v-1.03c0-.08,0-.12.03-.14s.06-.02.13-.02l2.04.03h5.27ZM472.89,16.69c.36.15.74.26,1.16.33.16.03.26.06.29.09.04.03.07.08.07.15,0,.04,0,.12-.03.24-.15.89-.45,1.46-.92,1.73-.45.25-1.42.37-2.91.37-1.28,0-2.1-.1-2.46-.31-.37-.21-.56-.64-.56-1.3v-1.79c0-.48-.03-.89-.07-1.25.52,0,1.03.02,1.53.07.18.03.27.09.27.17,0,.06-.03.14-.07.24-.06.12-.09.34-.09.67v1.36c0,.32.08.52.24.6.2.1.65.15,1.35.15.61,0,1.02-.02,1.24-.05.22-.03.41-.1.56-.21.25-.16.39-.58.4-1.27ZM468.52,9.35c.15,0,.53.01,1.15.01h1.76c.74,0,1.18,0,1.3-.01-.74-.51-1.45-1.12-2.15-1.85-.62.67-1.3,1.29-2.07,1.85ZM470.55,14.24c.61.45,1.21.99,1.79,1.62.05.07.07.11.07.14,0,.04-.04.1-.12.16l-.77.66c-.08.07-.14.11-.16.11-.04,0-.09-.04-.15-.12-.52-.64-1.07-1.2-1.66-1.68-.06-.04-.09-.09-.09-.14,0-.04.03-.09.1-.15l.69-.59c.06-.06.12-.09.15-.09.03,0,.08.02.15.07ZM475.52,15.17c.69.87,1.27,1.79,1.74,2.76.03.05.04.1.04.12,0,.04-.06.1-.18.18l-1.02.58c-.1.05-.16.08-.18.08-.04,0-.07-.05-.1-.15-.45-1.08-1-2.04-1.65-2.88-.04-.05-.07-.09-.07-.12,0-.04.05-.09.15-.15l.94-.46c.08-.04.14-.06.17-.06.04,0,.09.03.15.1Z"/>
        <path class="cls-2" d="M492.33,10.38c0,.08,0,.12-.03.14s-.07.02-.15.02h-.83c-.01.13-.02.42-.02.86v1.25l.03,1.21c0,.08,0,.13-.03.14-.02.02-.06.03-.14.03l-1.45-.03h-2.37v1.02h2.81l1.6-.03c.09,0,.14,0,.16.03.01.01.02.05.02.12l-.03,1.34v1.89l.03,1.29c0,.08-.01.12-.04.14-.02.01-.07.02-.14.02h-1.18c-.08,0-.12,0-.14-.03-.02-.02-.02-.06-.02-.13v-.56h-3.08v.59c0,.08,0,.12-.03.14s-.07.02-.14.02h-1.17c-.08,0-.12,0-.14-.03s-.02-.06-.02-.13l.03-2.07v-5.34l-.02-1.72h-.66c-.08,0-.13,0-.15-.03-.02-.02-.02-.06-.02-.13l.03-1.44v-.51c-.2.21-.35.46-.46.75-.09.22-.17.33-.24.33-.06,0-.18-.06-.34-.18-.62-.44-1.19-1-1.71-1.66-.78,1.08-1.71,1.99-2.79,2.73-.15.1-.26.15-.33.15-.07,0-.12-.09-.17-.27-.1-.44-.24-.79-.42-1.05,1.17-.7,2.09-1.56,2.76-2.59.11-.15.21-.36.31-.64.52.07.96.14,1.32.22.16.03.24.09.24.18,0,.1-.05.17-.15.21l-.07.04c.55.64,1.24,1.2,2.05,1.68,0-.1-.01-.24-.02-.41,0-.1,0-.16,0-.19,0-.08,0-.12.03-.14s.07-.02.14-.02l1.9.03h.72v-.07c0-.62-.03-1.09-.1-1.41.55.01,1.06.05,1.53.1.16.02.24.07.24.15,0,.07-.03.17-.09.31-.05.11-.08.37-.08.78v.14h.92l1.89-.03c.09,0,.14,0,.16.03.02.02.02.06.02.13l-.03.67v.54l.03,1.44ZM483.96,15.71c.51.81.96,1.77,1.36,2.89.01.05.02.09.02.12,0,.05-.06.1-.18.15l-.9.31c-.11.04-.18.06-.2.06-.04,0-.06-.04-.09-.12,0-.02-.12-.34-.33-.95-1.23.4-2.41.74-3.52,1.03-.2.04-.39.11-.57.23-.09.07-.17.1-.24.1-.08,0-.15-.06-.21-.18-.16-.39-.28-.87-.37-1.45.37-.03.73-.08,1.08-.14v-5.47l-.03-1.9c0-.08,0-.13.03-.15s.07-.02.14-.02l1.58.03h.07v-.45c0-.42-.03-.75-.09-.99.62.02,1.07.04,1.36.07.14.01.21.07.21.17,0,.04-.03.11-.09.21-.04.09-.06.27-.06.53v.46h.24l1.28-.03c.08,0,.12,0,.14.03s.02.07.02.14l-.03,1.45v1.8l.03,1.46c0,.1-.05.15-.16.15l-1.28-.03h-1.9v2.23c.66-.15,1.28-.31,1.88-.48-.15-.31-.29-.58-.42-.83-.03-.05-.04-.09-.04-.11,0-.05.06-.1.19-.15l.79-.27c.08-.03.14-.04.17-.04.04,0,.08.04.13.12ZM483.16,11.35h-1.89v.82h1.89v-.82ZM483.16,14.13v-.91h-1.89v.91h1.89ZM490.91,8.87h-4.45v1.14c.19,0,.61.01,1.26.01h2c.63,0,1.03,0,1.19-.01v-1.14ZM489.84,12.77v-1.53h-2.49v1.53h2.49ZM490.43,16.22h-3.08v1.63h3.08v-1.63Z"/>
        <path class="cls-2" d="M495.81,6.93c.84.21,1.41.39,1.71.53.15.08.23.18.23.3,0,.08-.03.19-.1.33-.08.14-.17.42-.27.83-.5,2.29-.75,4.11-.75,5.46,0,.86.02,1.5.04,1.92.07-.17.24-.53.49-1.09.18-.4.33-.73.44-1,.18.41.35.72.53.94.06.07.09.14.09.21s-.03.15-.09.24c-.44.98-.7,1.74-.77,2.28-.02.17-.04.32-.04.46,0,.09,0,.2.02.34v.03c0,.07-.06.12-.18.16-.27.1-.64.18-1.12.26-.05.01-.09.02-.12.02-.07,0-.13-.07-.18-.2-.43-1.09-.64-2.62-.64-4.58,0-1.27.21-3.17.62-5.69.08-.58.12-1.03.12-1.35,0-.15,0-.29-.02-.42ZM502.73,14.9c-.02-.83-.04-1.97-.06-3.44-.7.02-1.25.04-1.65.04-.54,0-1.02-.01-1.44-.04-.17,0-.25-.07-.26-.2-.07-.42-.11-.88-.11-1.37.66.06,1.33.1,2,.1.47,0,.94-.02,1.42-.05v-1.57c-.03-.52-.1-1.01-.21-1.46.82.07,1.42.16,1.82.28.18.05.27.14.27.26,0,.03-.03.12-.09.26-.06.15-.11.32-.12.53-.02.34-.03.87-.03,1.59.67-.06,1.38-.15,2.13-.27.04,0,.07-.01.09-.01.07,0,.12.06.15.19.06.27.09.63.09,1.07,0,.13-.06.21-.17.23-.53.13-1.3.24-2.31.31,0,1.47.04,2.81.11,4.02.91.37,1.74.84,2.49,1.44.08.05.12.1.12.15,0,.03-.01.08-.04.15-.23.45-.46.84-.69,1.16-.05.06-.1.09-.14.09-.04,0-.08-.02-.13-.07-.47-.44-1.01-.84-1.62-1.2-.13,1.3-1.04,1.95-2.75,1.95-.91,0-1.61-.21-2.08-.64-.41-.37-.61-.85-.61-1.46,0-.66.28-1.19.84-1.6.48-.35,1.08-.52,1.79-.52.41,0,.81.04,1.19.12ZM502.77,16.33c-.42-.13-.85-.2-1.3-.2-.75,0-1.13.24-1.13.72,0,.5.41.75,1.22.75.39,0,.7-.11.94-.32.19-.18.29-.4.29-.65,0-.12,0-.22-.02-.3Z"/>
        <path class="cls-2" d="M509.84,15.9c.06,0,.12.03.19.09,1.12.7,2.12,1.62,2.99,2.75.07.09.1.17.1.23,0,.07-.05.15-.15.24l-.92.78c-.11.09-.18.14-.21.14-.08,0-.15-.05-.21-.15-.82-1.18-1.76-2.14-2.84-2.87-.09-.06-.13-.11-.13-.15s.03-.1.1-.18l.84-.75c.08-.08.15-.12.23-.12Z"/>
        <path class="cls-2" d="M525.86,12.74l-1.86.03c-.1,0-.15-.05-.15-.16v-.97c0-.08,0-.13.03-.15.01-.01.05-.02.12-.02l1.86.03h3.9v-.77h-1.9l-2.09.03c-.08,0-.12,0-.14-.03s-.02-.07-.02-.14l.03-1.19v-1.45l-.03-1.22c0-.08,0-.13.03-.15.02-.01.06-.02.13-.02l2.09.03h5.52l2.09-.03c.09,0,.14.01.16.04.01.02.02.07.02.14l-.03,1.22v1.45l.03,1.19c0,.08-.01.13-.04.15-.02.01-.07.02-.15.02l-2.09-.03h-2.08v.77h4.08l1.85-.03c.07,0,.12.01.13.04,0,.02.01.07.01.14v.97c0,.11-.05.16-.15.16l-1.85-.03h-9.51ZM527.19,16.45c.36.15.76.33,1.2.54.12.06.18.14.18.23,0,.07-.07.14-.2.21-.04.02-.18.13-.4.33-.74.66-1.55,1.21-2.45,1.66-.17.09-.28.13-.34.13-.06,0-.17-.11-.33-.33-.24-.36-.48-.64-.71-.84,1.03-.39,1.88-.84,2.52-1.35.19-.14.37-.33.53-.59ZM532.98,13.4l2.05-.03c.09,0,.14,0,.15.03.02.02.03.06.03.13l-.03.9v.8l.03.91c0,.08-.01.13-.03.14-.02.02-.07.03-.15.03l-2.05-.03h-1.6v.74l.03,1.32c0,.32-.03.56-.1.71-.06.15-.17.3-.34.43-.17.13-.38.22-.64.26s-.7.06-1.31.06c-.25,0-.4-.02-.45-.07-.04-.04-.09-.17-.14-.4-.09-.37-.21-.7-.36-.97.44.04.87.07,1.29.07.2,0,.33-.04.4-.11.07-.07.1-.19.1-.37v-1.66h-1.67l-2.05.03c-.08,0-.13,0-.15-.03-.02-.02-.02-.07-.02-.14l.02-.91v-.8l-.02-.9c0-.08,0-.12.03-.14s.07-.02.15-.02l2.05.03h4.79ZM527.12,7.62v.59h7.01v-.59h-7.01ZM534.13,9.72v-.59h-7.01v.59h7.01ZM533.66,15.25v-.78h-6.14v.78h6.14ZM537.05,18.23c-.24.21-.47.52-.7.93-.13.24-.23.36-.31.36-.03,0-.14-.04-.34-.13-1.18-.56-2.18-1.23-3-2.01-.05-.05-.07-.09-.07-.12s.05-.08.15-.15l.78-.57c.07-.05.12-.07.15-.07.04,0,.09.03.16.09.95.75,2.01,1.31,3.18,1.68Z"/>
        <path class="cls-2" d="M538.62,10.69c1.66-.9,2.98-2.11,3.98-3.62.18-.28.34-.61.48-.99.48.08.97.18,1.46.3.14.05.21.13.21.24,0,.08-.06.16-.17.23-.09.07-.21.23-.37.5l-.04.06h2.88c.18,0,.3-.01.36-.04.09-.03.16-.04.21-.04.09,0,.29.12.6.37.28.24.42.42.42.53,0,.1-.08.19-.24.27-.09.04-.24.2-.46.46-.47.57-.85,1-1.14,1.3h1.77l2.08-.03c.08,0,.13,0,.15.03s.02.07.02.14l-.03,1.28v1.81l.03,1.31c0,.08,0,.13-.03.14-.02.02-.06.03-.14.03l-2.08-.03h-6.38v1.77c0,.4.05.67.14.83.09.15.25.26.48.31.41.11,1.5.17,3.26.17,1.4,0,2.4-.03,2.98-.1.51-.06.86-.17,1.07-.31.21-.16.35-.4.41-.73.03-.18.07-.57.1-1.16.33.19.72.33,1.16.43.2.04.32.08.37.12.05.04.07.1.07.2,0,.05,0,.14-.02.27-.05.63-.17,1.12-.34,1.46-.15.3-.36.54-.64.73-.31.22-.9.38-1.77.46-.76.07-1.87.11-3.31.11-2.46,0-3.98-.14-4.56-.42-.63-.26-.95-.95-.95-2.07v-5.84c-.18.14-.47.33-.87.59-.19.12-.3.18-.33.18-.07,0-.15-.12-.24-.36-.14-.37-.32-.67-.56-.91ZM541.77,10.27h3.22c.45-.48.89-1.01,1.31-1.6h-3c-.46.58-.97,1.12-1.53,1.6ZM542.19,13.6h2.67v-2h-2.67v2ZM549.21,13.6v-2h-2.82v2h2.82Z"/>
        <path class="cls-2" d="M557.92,10.25c.15-.54.3-1.17.45-1.89.1-.6.15-1.15.15-1.66.73.16,1.33.32,1.79.49.16.05.24.15.24.3,0,.08-.04.16-.1.23-.12.16-.22.35-.3.57-.07.22-.17.54-.29.95-.11.38-.2.66-.26.85.37-.04.77-.07,1.2-.07,1.43,0,2.15.96,2.15,2.89,0,.9-.08,1.81-.24,2.72-.15.83-.34,1.5-.57,1.98-.42.94-1.1,1.41-2.02,1.41-.71,0-1.23-.08-1.56-.23-.18-.07-.27-.21-.27-.42-.06-.62-.15-1.08-.29-1.39.56.26,1.13.39,1.73.39.26,0,.47-.06.61-.19.12-.12.24-.32.35-.61.39-1.04.59-2.28.59-3.74,0-.56-.07-.93-.21-1.12-.13-.17-.34-.26-.65-.26-.33,0-.75.03-1.26.1-.98,2.86-1.99,5.21-3.02,7.05-.05.12-.13.18-.22.18-.05,0-.11-.02-.17-.05-.46-.22-.81-.44-1.04-.66-.08-.08-.12-.15-.12-.22,0-.06.02-.11.06-.17,1.19-2.06,2.1-4.02,2.75-5.88-.34.05-.83.14-1.46.26-.27.05-.54.13-.83.24-.07.02-.13.04-.18.04-.14,0-.24-.08-.3-.23-.14-.37-.3-.89-.46-1.55.55,0,1.21-.03,1.98-.1.54-.05,1.13-.13,1.77-.23ZM563.1,10.13c.56-.38.96-.64,1.21-.77.04-.02.07-.03.1-.03.05,0,.12.03.18.1,1.14,1.07,1.97,2.29,2.49,3.65.02.05.04.1.04.13,0,.06-.03.11-.1.17-.28.26-.66.51-1.13.75-.05.03-.11.04-.15.04-.1,0-.16-.05-.19-.16-.62-1.63-1.43-2.92-2.45-3.88ZM563.92,7.83l.8-.56s.06-.04.09-.04c.04,0,.08.02.13.07.51.4.99.93,1.43,1.6.03.04.04.08.04.11,0,.04-.03.09-.09.13l-.63.46s-.08.05-.12.05c-.05,0-.09-.03-.14-.1-.46-.71-.97-1.29-1.52-1.74ZM565.31,6.83l.75-.54s.07-.04.1-.04c.03,0,.08.02.13.07.57.44,1.04.96,1.42,1.55.03.04.04.08.04.12,0,.05-.03.1-.09.15l-.6.47s-.08.05-.12.05c-.05,0-.1-.03-.14-.1-.42-.67-.92-1.25-1.49-1.73Z"/>
        <path class="cls-2" d="M574.42,8.68c-.13-.38-.25-.71-.36-.97-.17-.4-.34-.72-.53-.96.63-.11,1.23-.16,1.82-.16.22,0,.33.09.33.27l-.03.29c0,.08.02.23.06.45.08.28.16.54.24.78,1-.19,2.02-.45,3.06-.79.05-.02.09-.04.12-.04.06,0,.1.04.12.11.1.31.19.65.26,1,0,.02,0,.04,0,.05,0,.11-.06.19-.18.22-.83.26-1.82.52-2.94.77.14.38.32.8.53,1.26.98-.21,1.89-.47,2.73-.78.05-.02.1-.04.13-.04.06,0,.11.04.14.13.09.23.18.56.27.99,0,.04.02.08.02.11,0,.07-.05.12-.14.16-.77.29-1.62.54-2.53.73.7,1.17,1.35,2.03,1.96,2.59.08.07.12.14.12.2,0,.04-.02.09-.05.16-.15.31-.35.62-.62.94-.08.1-.16.15-.23.15-.05,0-.12-.03-.21-.09-.17-.14-.47-.3-.89-.48-.74-.32-1.68-.48-2.82-.48-.75,0-1.32.11-1.72.34-.34.2-.51.47-.51.8,0,.5.35.85,1.05,1.05.56.16,1.4.24,2.53.24,0,0,.55-.03,1.65-.09.12,0,.18.05.18.15v.04c-.1.6-.2,1.05-.3,1.36-.04.14-.15.21-.31.23-.35.03-.71.04-1.08.04-1.84,0-3.21-.27-4.11-.82-.78-.47-1.17-1.14-1.17-2s.37-1.53,1.11-2c.65-.41,1.52-.62,2.61-.62s1.99.13,2.58.38c-.34-.4-.75-.99-1.24-1.77-1.76.27-3.13.42-4.11.45-.14,0-.23-.07-.27-.21-.14-.48-.23-.89-.27-1.22,1.37-.03,2.72-.15,4.04-.37-.05-.12-.15-.33-.29-.63-.13-.29-.23-.49-.29-.62-1.5.22-2.71.34-3.64.36-.17,0-.27-.07-.3-.21-.04-.12-.12-.52-.24-1.2,1.14.01,2.38-.07,3.74-.24Z"/>
        <path class="cls-2" d="M17.1,32.77c.79.08,1.36.17,1.71.29.21.05.32.15.32.3,0,.07-.04.16-.1.29-.06.12-.11.36-.14.74-.02.38-.04.88-.07,1.49.23.12.42.23.57.33.09.06.13.13.13.21,0,.04-.02.1-.07.17-.29.47-.55.94-.78,1.42v.07c.42-.47.88-.96,1.39-1.45,1.03-.98,1.93-1.47,2.71-1.47.6,0,1.06.2,1.38.6.28.35.42.82.42,1.4,0,.77-.04,1.67-.12,2.72-.02.38-.05.94-.1,1.68-.03.4-.04.67-.04.83,0,.38.05.62.15.73.08.08.21.12.4.12.31,0,.68-.18,1.11-.54.31-.26.61-.68.9-1.26.18.5.37.88.56,1.13.11.14.16.25.16.34,0,.07-.03.15-.1.26-.82,1.15-1.78,1.72-2.89,1.72-1.28,0-1.92-.76-1.92-2.29,0-.31.04-1.15.12-2.52.07-1.23.11-2.05.11-2.46,0-.66-.16-.99-.47-.99-.39,0-.95.32-1.68.97-.82.8-1.51,1.53-2.09,2.2,0,.36.01,1.4.04,3.13.02,1.1.02,1.95.02,2.55,0,.14-.07.21-.21.21-.26.04-.65.06-1.17.06-.14,0-.21-.09-.21-.26,0-1.96.01-3.39.04-4.29-.49.77-1.07,1.67-1.74,2.7-.05.1-.11.15-.16.15-.04,0-.1-.02-.18-.07-.36-.22-.67-.51-.93-.84-.06-.06-.09-.11-.09-.16,0-.08.04-.17.13-.26,1-1.27,1.98-2.59,2.94-3.94,0-.44,0-.78.02-1.02-.71.19-1.31.38-1.8.59-.03.01-.08.04-.14.08-.13.09-.23.13-.29.13-.12,0-.22-.08-.3-.24-.15-.24-.34-.7-.59-1.38.28,0,.65-.06,1.09-.14.8-.19,1.5-.37,2.12-.56v-2.04c0-.6-.05-1.08-.15-1.46Z"/>
        <path class="cls-2" d="M29.87,34.46c.82.1,1.45.26,1.9.49.16.07.24.16.24.27,0,.09-.04.23-.12.42-.09.27-.13.76-.13,1.47,0,1.25.09,2.39.27,3.42.26,1.47.67,2.2,1.23,2.2.25,0,.5-.18.73-.53.21-.31.44-.83.71-1.56.25.4.57.79.96,1.16.1.09.15.2.15.32,0,.07-.01.15-.04.23-.3.81-.7,1.41-1.19,1.82-.42.35-.87.52-1.36.52-.67,0-1.26-.38-1.79-1.14-.49-.71-.83-1.64-1.01-2.77-.24-1.43-.36-2.88-.36-4.37,0-.76-.06-1.41-.18-1.96ZM37.55,36.59c.49-.31.89-.54,1.18-.69.08-.04.14-.06.17-.06.05,0,.1.03.16.09.74.64,1.38,1.47,1.94,2.49.49.89.83,1.77,1,2.64,0,.03.01.06.01.09,0,.09-.06.17-.18.24-.44.28-.83.48-1.17.6-.05.01-.09.02-.13.02-.1,0-.16-.06-.18-.19-.28-1.18-.65-2.18-1.11-3.02-.43-.78-.99-1.52-1.69-2.22Z"/>
        <path class="cls-2" d="M44.37,35.39c.53-.02,1.33-.11,2.39-.26,3.97-.58,6.97-1.01,9.01-1.27.03,0,.06,0,.09,0,.14,0,.21.06.23.17.1.43.15.87.17,1.32,0,.15-.09.23-.29.23-.68.04-1.29.15-1.83.33-1.31.45-2.31,1.12-2.99,2.02-.56.73-.84,1.53-.84,2.4,0,1.93,1.33,2.98,3.99,3.15.22,0,.33.08.33.23,0,.47-.06.9-.17,1.29-.04.21-.13.31-.28.31-1.58,0-2.9-.43-3.97-1.3-1.04-.85-1.57-1.97-1.57-3.33,0-1.09.29-2.05.86-2.88.46-.67,1.14-1.29,2.02-1.88v-.03c-1.8.34-3.48.67-5.04,1-.52.12-.83.2-.95.24-.19.08-.3.12-.33.12-.13,0-.22-.08-.29-.23-.16-.33-.34-.87-.56-1.62ZM53.7,38.06l.79-.56s.07-.04.1-.04.07.02.13.07c.51.4.99.93,1.42,1.61.03.04.04.07.04.1,0,.05-.03.09-.08.13l-.63.47s-.09.04-.13.04-.08-.03-.13-.1c-.47-.71-.97-1.29-1.52-1.74ZM55.08,37.07l.75-.53s.07-.04.09-.04c.03,0,.08.02.12.07.58.43,1.05.95,1.43,1.55.03.05.04.09.04.13,0,.05-.03.1-.09.14l-.6.47s-.08.05-.12.05c-.05,0-.09-.03-.14-.1-.42-.67-.92-1.25-1.5-1.73Z"/>
        <path class="cls-2" d="M61.24,40.04c.39.2.77.4,1.16.6.08.04.12.09.12.15,0,.03-.01.08-.04.12-.26.4-.4.78-.4,1.14,0,.51.31.88.93,1.1.57.21,1.44.31,2.63.31,1.39,0,2.74-.14,4.06-.43.05,0,.1-.01.13-.01.1,0,.16.05.18.15.12.44.2.93.24,1.46v.03c0,.1-.08.17-.26.2-1.31.24-2.78.36-4.39.36-3.44,0-5.16-1.01-5.16-3.03,0-.61.27-1.32.8-2.15ZM61.57,34.37c1.1.26,2.5.39,4.21.39.92,0,1.96-.04,3.12-.13h.04c.11,0,.17.06.18.17.08.45.12.87.13,1.27,0,.2-.08.3-.26.31-1.18.17-2.4.67-3.67,1.49-.12.09-.25.13-.38.13-.1,0-.21-.03-.31-.09-.34-.22-.69-.38-1.05-.48.81-.53,1.47-.95,1.96-1.25-.22.03-.58.04-1.09.04-.96,0-1.88-.09-2.76-.26-.13-.03-.2-.12-.2-.27s.02-.6.07-1.33ZM69.07,33.65l.79-.56s.06-.04.09-.04c.04,0,.08.02.14.07.51.4.98.93,1.42,1.61.03.04.04.08.04.11,0,.04-.03.09-.09.12l-.63.47s-.08.04-.12.04c-.04,0-.09-.03-.14-.1-.46-.71-.97-1.29-1.51-1.74ZM70.45,32.66l.75-.54s.07-.04.1-.04.07.02.12.07c.58.43,1.05.95,1.43,1.55.03.05.04.09.04.12,0,.05-.03.1-.09.15l-.6.47s-.09.04-.12.04c-.05,0-.09-.03-.13-.1-.42-.67-.92-1.24-1.5-1.72Z"/>
        <path class="cls-2" d="M76.65,32.23c.52.07.96.14,1.32.22.17.05.26.11.26.18,0,.09-.06.16-.17.21l-.07.04c.72.83,1.55,1.5,2.5,2.02-.22.21-.41.49-.54.84-.08.23-.16.34-.23.34s-.18-.06-.34-.18c-.81-.6-1.51-1.26-2.09-1.99-.77,1.06-1.7,1.97-2.79,2.72-.14.1-.25.15-.31.15s-.12-.09-.17-.27c-.1-.43-.24-.77-.43-1.03,1.18-.72,2.1-1.59,2.76-2.61.12-.16.22-.38.31-.64ZM87.85,44.69c-.25.27-.48.62-.67,1.04-.1.23-.19.34-.26.34-.05,0-.16-.06-.32-.17-.88-.64-1.63-1.37-2.25-2.19-.62.79-1.36,1.52-2.19,2.19-.17.14-.29.21-.34.21-.07,0-.17-.11-.29-.33-.16-.29-.39-.55-.68-.8,1.09-.73,1.99-1.58,2.69-2.55-.66-1.22-1.11-2.69-1.35-4.42-.05,1.46-.16,2.7-.34,3.71-.31,1.6-.83,2.92-1.57,3.96-.14.2-.23.3-.27.3-.05,0-.14-.09-.27-.26-.22-.29-.49-.54-.81-.75.21-.26.42-.57.62-.92l-.67.41c-.07.05-.13.07-.18.07s-.09-.05-.12-.14l-.1-.29c-1.26.45-2.38.83-3.36,1.14-.29.09-.48.17-.57.23-.08.07-.16.1-.24.1-.08,0-.15-.06-.21-.18-.14-.4-.27-.88-.37-1.45.36-.03.71-.07,1.06-.13v-5.3l-.03-1.9c0-.08,0-.13.03-.15.02-.01.07-.02.14-.02l1.57.03h.09v-.42c0-.36-.03-.69-.09-.99.61.02,1.06.04,1.36.07.14.02.21.08.21.17,0,.04-.03.11-.09.21-.04.1-.06.27-.06.53v.43h.31l1.27-.03c.08,0,.13,0,.15.03.01.02.02.07.02.14l-.03,1.45v1.86l.03,1.39c0,.1-.06.15-.17.15l-1.27-.03h-2.02v2.07c.53-.15,1.13-.33,1.82-.56-.08-.18-.2-.43-.35-.75-.03-.05-.04-.08-.04-.1,0-.04.06-.09.19-.15l.72-.3c.07-.03.13-.04.16-.04.05,0,.09.04.14.12.34.63.64,1.28.89,1.95.29-.6.53-1.43.74-2.49.19-1.11.29-2.81.29-5.1l-.03-2.94c0-.09.01-.14.04-.16.02-.01.07-.02.15-.02l1.83.03h2.78l1.79-.03c.08,0,.13.01.15.04.01.02.02.07.02.15v1.14c0,.08,0,.13-.03.15s-.07.02-.14.02l-1.79-.03h-3.3v2.2h3.22c.21,0,.36-.02.42-.06.07-.05.14-.07.22-.07.09,0,.29.15.59.46.32.32.48.54.48.67,0,.08-.04.16-.12.23-.13.12-.22.3-.27.53-.4,1.59-.92,2.94-1.56,4.04.7.94,1.58,1.69,2.64,2.26ZM78.27,37.56h-2.05v.85h2.05v-.85ZM78.27,40.34v-.87h-2.05v.87h2.05ZM84.39,41.01c.42-.87.76-1.89,1.02-3.05h-1.96c.23,1.18.55,2.2.95,3.05Z"/>
        <path class="cls-2" d="M94.33,32.51c.7.11,1.27.25,1.71.42.12.04.18.13.18.26,0,.09-.03.17-.1.22-.09.07-.17.19-.26.36-.02.05-.05.12-.09.22-.09.21-.17.41-.26.59.97-.11,1.88-.27,2.73-.47.03,0,.06,0,.09,0,.08,0,.13.05.15.16.09.35.14.71.15,1.08v.04c0,.11-.09.17-.26.2-1.17.17-2.34.32-3.52.45-.49.79-.87,1.35-1.12,1.66v.03c.49-.31.99-.46,1.52-.46,1.08,0,1.69.54,1.82,1.62,1.03-.47,1.76-.83,2.21-1.05.48-.25.86-.52,1.14-.81.46.49.82.93,1.05,1.32.08.12.12.23.12.33,0,.11-.08.18-.23.21-.3.04-.61.12-.92.23-1.47.52-2.54.92-3.22,1.19v2.42c0,.15-.09.24-.29.27-.33.05-.68.07-1.06.07-.13,0-.2-.08-.2-.24,0-.86,0-1.47.02-1.82-.69.36-1.18.71-1.46,1.05-.23.28-.35.6-.35.94,0,.69.69,1.03,2.08,1.03,1.09,0,2.33-.1,3.74-.3h.04c.1,0,.15.06.16.17.09.42.14.83.14,1.23v.05c0,.15-.06.23-.17.23-1.02.13-2.25.2-3.71.2-2.51,0-3.77-.83-3.77-2.48,0-.77.28-1.45.84-2.04.49-.53,1.27-1.06,2.33-1.61-.02-.41-.1-.68-.23-.83-.12-.14-.31-.21-.59-.21h-.09c-.58.02-1.27.39-2.07,1.08-.46.45-.96,1-1.5,1.63-.07.09-.13.13-.18.13-.04,0-.09-.03-.16-.1-.43-.42-.71-.75-.86-.99-.04-.05-.06-.1-.06-.14,0-.05.03-.11.1-.16,1.36-1.22,2.41-2.46,3.14-3.72-.7.03-1.5.04-2.4.04-.11,0-.18-.08-.21-.24-.03-.19-.08-.6-.15-1.24.48.02.98.03,1.51.03.63,0,1.28-.02,1.94-.05.18-.44.33-.87.45-1.29.07-.3.11-.6.11-.92Z"/>
        <path class="cls-2" d="M103.47,36.44c2.33-.73,4.24-1.88,5.73-3.46.24-.24.44-.53.62-.87.57.06,1.09.16,1.58.29.17.04.26.1.26.17,0,.06-.05.12-.15.18l-.05.03c.76.77,1.72,1.46,2.89,2.09,1.12.61,2.28,1.06,3.48,1.35-.24.3-.43.65-.57,1.05-.1.26-.19.39-.27.39-.07,0-.19-.03-.36-.09-.6-.2-1.2-.45-1.8-.75l-.02,1.25v1.96c0,.53,0,.87.02,1.03.44.26.82.5,1.13.72.12.09.18.17.18.24,0,.1-.08.16-.23.2-.15.05-.31.14-.48.27-.75.55-1.33.95-1.74,1.22.85.35,2.08.66,3.71.93-.22.27-.41.62-.57,1.05-.1.26-.2.39-.31.39-.06,0-.17-.02-.33-.06-2.26-.56-3.95-1.32-5.07-2.29-.03.14-.05.36-.07.66-.01.25-.04.41-.08.45-.04.04-.18.09-.4.12-1.97.41-3.64.71-5,.92-.26.05-.46.11-.59.18-.1.06-.19.09-.26.09-.07,0-.13-.08-.18-.23-.1-.4-.2-.88-.29-1.45.61-.03,1.14-.07,1.61-.12l.42-.03v-7.29c-.45.22-.97.45-1.57.69-.19.07-.31.1-.34.1-.08,0-.18-.13-.29-.39-.15-.39-.35-.71-.6-.97ZM107.26,36.44h2.55v-.12c0-.52-.03-.99-.1-1.41.5.01,1,.05,1.51.1.15.01.23.07.23.17,0,.11-.03.21-.09.3-.06.1-.09.32-.09.66v.3h1.27c.8,0,1.32,0,1.54-.01-1.41-.78-2.58-1.71-3.51-2.78-.93,1.07-2.03,2-3.32,2.79ZM113.31,37.6h-5.49v.83h5.49v-.83ZM113.31,40.48v-.92h-5.49v.92h5.49ZM110.95,43.55c-.57-.53-1.07-1.17-1.5-1.92h-1.63v2.48c.99-.15,2.04-.34,3.13-.56ZM112.54,41.63h-1.47c.33.51.78.97,1.33,1.36.75-.48,1.36-.93,1.82-1.35h-1.68Z"/>
        <path class="cls-2" d="M118.86,39.79c.4-.16.83-.43,1.32-.81.61-.48,1.51-1.25,2.69-2.32.46-.42.89-.63,1.3-.63.26,0,.49.05.69.14.17.08.37.22.62.42,2.04,1.63,3.11,2.49,3.24,2.58.9.64,2.08,1.38,3.54,2.2.12.05.18.12.18.21,0,.03,0,.07-.03.1-.2.54-.44,1.01-.73,1.41-.07.1-.14.15-.2.15-.06,0-.13-.02-.21-.07-.74-.43-1.82-1.2-3.24-2.31-.74-.55-1.79-1.44-3.15-2.65-.24-.23-.46-.34-.66-.34-.11,0-.28.1-.51.31l-2.52,2.47c-.25.27-.43.49-.53.66-.08.12-.17.18-.27.18s-.2-.04-.29-.13c-.34-.34-.75-.86-1.23-1.56ZM127.75,35.28l.8-.55s.06-.04.09-.04c.04,0,.08.02.14.07.51.4.99.93,1.42,1.61.03.04.04.08.04.11,0,.04-.03.09-.09.13l-.63.46s-.08.04-.12.04c-.05,0-.09-.03-.14-.1-.46-.71-.97-1.29-1.52-1.74ZM129.13,34.3l.75-.54s.07-.04.1-.04c.03,0,.08.02.13.07.58.44,1.05.95,1.43,1.55.03.05.04.09.04.12,0,.05-.03.1-.09.15l-.6.47s-.08.04-.12.04c-.05,0-.09-.03-.13-.1-.42-.67-.92-1.24-1.5-1.72Z"/>
        <path class="cls-2" d="M139.49,35.27c.51-.05,1.13-.16,1.86-.32.05-.02.08-.03.11-.03.06,0,.1.05.11.15.08.37.12.77.14,1.22,0,.1-.06.16-.18.18-.52.11-1.34.24-2.48.4-1.04,2.75-2.01,4.9-2.92,6.44-.06.1-.12.15-.17.15-.04,0-.09-.02-.18-.07-.42-.25-.77-.51-1.04-.77-.07-.05-.1-.11-.1-.16,0-.06.02-.12.07-.18,1.11-1.83,1.98-3.57,2.6-5.23-.38.02-.88.03-1.5.03-.3,0-.58,0-.83-.01-.11,0-.18-.08-.21-.24-.06-.24-.11-.66-.15-1.27.54.04,1.01.06,1.39.06.58,0,1.16-.02,1.73-.07.13-.46.26-1.02.39-1.68.06-.35.09-.76.09-1.22.86.12,1.44.22,1.75.31.16.03.24.1.24.22,0,.1-.04.2-.13.29-.08.11-.16.3-.24.56-.02.08-.09.3-.18.65-.07.25-.13.46-.18.62ZM141.9,41.54c-.07-.74-.11-1.6-.13-2.58-.01-.41-.06-.76-.12-1.06.68.07,1.22.16,1.63.29.14.03.21.11.21.23,0,.03-.03.14-.09.31-.04.14-.07.29-.07.45,0,.03,0,.09,0,.17,0,.77.05,1.62.16,2.55,1.14.46,2.04.93,2.7,1.4.09.06.13.12.13.18,0,.03-.01.08-.04.14-.22.46-.45.86-.69,1.22-.04.07-.09.1-.14.1-.04,0-.09-.03-.15-.09-.45-.39-1.06-.81-1.83-1.26,0,.78-.28,1.35-.85,1.73-.47.31-1.12.46-1.93.46-.89,0-1.59-.22-2.1-.66-.44-.38-.67-.87-.67-1.47,0-.7.28-1.25.85-1.66.5-.36,1.14-.53,1.93-.53.41,0,.8.03,1.18.09ZM141.93,42.97c-.44-.15-.85-.23-1.22-.23-.42,0-.75.08-1,.25-.23.16-.34.36-.34.62,0,.48.43.72,1.28.72.42,0,.76-.11,1-.34.2-.19.3-.43.3-.73,0-.14,0-.24-.01-.3ZM142.81,36.7c.41-.73.63-1.12.67-1.17.06-.09.12-.14.18-.14.03,0,.08,0,.13.03.9.24,1.88.72,2.94,1.41.09.06.13.11.13.16,0,.05-.02.11-.06.18-.16.34-.37.71-.63,1.11-.04.07-.09.1-.14.1-.03,0-.08-.02-.13-.06-1.17-.8-2.21-1.34-3.11-1.63Z"/>
        <path class="cls-2" d="M152.92,36.5c.15-.54.3-1.17.45-1.89.1-.6.15-1.15.15-1.66.73.16,1.33.32,1.79.49.16.05.24.15.24.3,0,.08-.04.16-.1.23-.12.16-.22.35-.3.57-.07.22-.17.54-.29.95-.11.38-.2.66-.26.85.37-.04.77-.07,1.2-.07,1.43,0,2.15.96,2.15,2.89,0,.9-.08,1.81-.24,2.72-.15.83-.34,1.5-.57,1.98-.42.94-1.1,1.41-2.02,1.41-.71,0-1.23-.08-1.56-.23-.18-.07-.27-.21-.27-.42-.06-.62-.15-1.08-.29-1.39.56.26,1.13.39,1.73.39.26,0,.47-.06.61-.19.12-.12.24-.32.35-.61.39-1.04.59-2.28.59-3.74,0-.56-.07-.93-.21-1.12-.13-.17-.34-.26-.65-.26-.33,0-.75.03-1.26.1-.98,2.86-1.99,5.21-3.02,7.05-.05.12-.13.18-.22.18-.05,0-.11-.02-.17-.05-.46-.22-.81-.44-1.04-.66-.08-.08-.12-.15-.12-.22,0-.06.02-.11.06-.17,1.19-2.06,2.1-4.02,2.75-5.88-.34.05-.83.14-1.46.26-.27.05-.54.13-.83.24-.07.02-.13.04-.18.04-.14,0-.24-.08-.3-.23-.14-.37-.3-.89-.46-1.55.55,0,1.21-.03,1.98-.1.54-.05,1.13-.13,1.77-.23ZM158.1,36.38c.56-.38.96-.64,1.21-.77.04-.02.07-.03.1-.03.05,0,.12.03.18.1,1.14,1.07,1.97,2.29,2.49,3.65.02.05.04.1.04.13,0,.06-.03.11-.1.17-.28.26-.66.51-1.13.75-.05.03-.11.04-.15.04-.1,0-.16-.05-.19-.16-.62-1.63-1.43-2.92-2.45-3.88ZM158.92,34.08l.8-.56s.06-.04.09-.04c.04,0,.08.02.13.07.51.4.99.93,1.43,1.6.03.04.04.08.04.11,0,.04-.03.09-.09.13l-.63.46s-.08.05-.12.05c-.05,0-.09-.03-.14-.1-.46-.71-.97-1.29-1.52-1.74ZM160.31,33.08l.75-.54s.07-.04.1-.04c.03,0,.08.02.13.07.57.44,1.04.96,1.42,1.55.03.04.04.08.04.12,0,.05-.03.1-.09.15l-.6.47s-.08.05-.12.05c-.05,0-.1-.03-.14-.1-.42-.67-.92-1.25-1.49-1.73Z"/>
        <path class="cls-2" d="M166.5,35.93c.81.23,1.33.41,1.56.54.16.07.24.17.24.29,0,.07-.03.14-.07.23-.14.25-.24.52-.3.79-.18.9-.3,1.81-.37,2.73.77-.78,1.61-1.38,2.51-1.79.84-.39,1.67-.58,2.51-.58,1.16,0,2.05.33,2.68,1,.54.57.81,1.3.81,2.21,0,1.48-.75,2.6-2.26,3.36-.96.48-2.24.83-3.85,1.03-.1.01-.18.02-.23.02-.16,0-.28-.07-.37-.21-.32-.57-.66-1-1.02-1.27,1.74-.11,3.12-.39,4.12-.84,1.18-.51,1.77-1.26,1.77-2.26,0-.48-.16-.86-.48-1.14-.32-.27-.76-.41-1.33-.41-.7,0-1.46.23-2.27.69-.71.4-1.39.93-2.05,1.59-.25.25-.46.53-.64.83-.05.09-.12.13-.18.13-.03,0-.09,0-.16-.03-.42-.14-.76-.28-1.02-.4-.14-.05-.21-.15-.21-.3.08-1.51.23-3.12.46-4.84.09-.68.14-1.13.14-1.35ZM167.55,33.85c.38-.57.68-.96.89-1.17.06-.06.13-.1.19-.1.03,0,.06,0,.09.01,1.07.42,2.05,1.02,2.94,1.79.07.06.1.11.1.17,0,.03-.02.09-.07.18-.22.37-.48.72-.77,1.05-.06.08-.12.12-.16.12-.05,0-.12-.03-.18-.1-.94-.82-1.95-1.47-3.03-1.95Z"/>
        <path class="cls-2" d="M180.6,34.97h2.05l1.6-.03c.08,0,.13,0,.15.03.02.02.02.06.02.13v1.07c0,.08,0,.13-.03.15-.02.01-.07.02-.14.02l-1.6-.03h-2.05l-1.61.03c-.07,0-.11-.01-.12-.04-.01-.02-.02-.07-.02-.14v-1.07c0-.11.05-.16.15-.16l1.61.03ZM183.99,45.65c0,.08,0,.13-.03.15-.02.01-.07.02-.14.02h-1.09c-.08,0-.13,0-.15-.03-.01-.02-.02-.07-.02-.14v-.4h-1.66v.69c0,.1-.06.15-.17.15h-1.09c-.09,0-.14,0-.16-.03-.01-.02-.02-.06-.02-.12l.03-2.26v-1l-.03-1.41c0-.08.01-.13.04-.15.02-.01.07-.02.15-.02l1.36.03h1.44l1.38-.03c.08,0,.13,0,.15.03s.02.07.02.14l-.03,1.15v1.08l.03,2.16ZM181.05,32.92h1.44l1.35-.03c.09,0,.14,0,.15.03.02.02.03.06.03.13v1c0,.08-.01.12-.04.14-.02.01-.07.02-.15.02l-1.35-.03h-1.44l-1.36.03c-.08,0-.13,0-.15-.03-.01-.02-.02-.06-.02-.13v-1c0-.08,0-.12.03-.14s.07-.02.14-.02l1.36.03ZM181.09,37.09h1.28l1.26-.03c.09,0,.14,0,.16.03.02.02.02.06.02.13v.98c0,.08-.01.12-.04.14-.02.01-.07.02-.15.02l-1.26-.03h-1.28l-1.27.03c-.08,0-.12,0-.14-.03s-.02-.06-.02-.13v-.98c0-.08,0-.12.03-.14s.06-.02.13-.02l1.27.03ZM181.09,39.09h1.28l1.26-.03c.09,0,.14,0,.16.03.02.02.02.07.02.14v.96c0,.08-.01.13-.04.15-.02.01-.07.02-.15.02l-1.26-.04h-1.28l-1.27.04c-.08,0-.12,0-.14-.03s-.02-.07-.02-.14v-.96c0-.08,0-.13.03-.15s.06-.02.13-.02l1.27.03ZM182.56,42.37h-1.66v1.65h1.66v-1.65ZM186.57,38.33l-1.95.03c-.08,0-.13,0-.15-.03-.02-.02-.02-.06-.02-.13v-1.14c0-.1.06-.15.17-.15l1.95.03h.97v-2c-.67.12-1.36.23-2.07.32-.09,0-.16.01-.2.01-.08,0-.14-.03-.18-.08-.02-.03-.05-.12-.1-.27-.13-.42-.3-.76-.53-1.02,2.11-.15,4.01-.53,5.68-1.14.28-.1.54-.22.77-.37.34.36.64.72.9,1.08.07.1.1.18.1.26,0,.11-.1.16-.3.16-.13,0-.33.04-.59.12-.64.22-1.28.42-1.92.57v2.36h1.23l1.96-.03c.11,0,.16.05.16.15v1.14c0,.08-.01.12-.03.14-.02.01-.06.02-.13.02l-1.96-.03h-1.23v2.03h.63l1.8-.03c.08,0,.12,0,.14.03s.02.06.02.13l-.03,1.47v1.35l.03,2.53c0,.1-.05.15-.16.15h-1.23c-.11,0-.17-.05-.17-.15v-.54h-3.57v.62c0,.1-.05.15-.16.15h-1.23c-.11,0-.17-.05-.17-.15l.03-2.56v-1.17l-.03-1.69c0-.08,0-.12.03-.14s.07-.02.14-.02l1.79.03h.56v-2.03h-.97ZM186.58,41.71v2.26h3.57v-2.26h-3.57Z"/>
        <path class="cls-2" d="M200.57,35.06c0-.15,0-.38-.01-.69,0-.23,0-.42-.01-.56-.03-.38-.09-.74-.18-1.1.73.05,1.32.12,1.76.21.28.05.42.14.42.29,0,.08-.04.19-.13.34-.05.1-.1.25-.12.43,0,.06-.01.38-.03.96,1.34-.05,2.88-.07,4.61-.07.09,0,.15.01.18.04s.04.09.04.18c0,.2.01.39.01.57s0,.38-.01.57c0,.13-.06.2-.19.2h-.06c-.91-.03-1.87-.04-2.89-.04-.62,0-1.18,0-1.69,0,0,1.25,0,2.18.02,2.79.15.41.23.9.23,1.49,0,2.06-.89,3.67-2.67,4.84-.29.19-.49.29-.59.29-.11,0-.26-.08-.45-.23-.32-.26-.7-.46-1.14-.59.91-.41,1.65-.94,2.2-1.59.46-.54.75-1.11.88-1.71-.27.4-.74.6-1.41.6s-1.17-.23-1.56-.69c-.35-.42-.53-.95-.53-1.61,0-.72.25-1.3.76-1.72.42-.35.92-.53,1.5-.53.53,0,.91.1,1.14.3v-1.53c-2.18.12-3.91.27-5.21.45-.12.01-.27.05-.45.11-.13.04-.22.07-.26.07-.13,0-.21-.07-.26-.21-.1-.26-.23-.76-.37-1.51.15.01.31.02.48.02.15,0,.6-.03,1.35-.08.81-.07,2.36-.17,4.65-.3ZM199.61,38.92c-.28,0-.52.09-.71.27s-.29.42-.29.7c0,.34.11.61.32.8.17.15.39.23.64.23.32,0,.57-.1.76-.29.18-.19.26-.43.26-.75s-.1-.57-.31-.74c-.17-.15-.4-.22-.68-.22Z"/>
        <path class="cls-2" d="M216.57,35.69c-.38,2.78-1,4.93-1.88,6.46-.66,1.15-1.51,1.73-2.56,1.73-.76,0-1.4-.38-1.92-1.14-.49-.72-.73-1.63-.73-2.71,0-1.47.56-2.77,1.69-3.9,1.28-1.28,2.91-1.92,4.88-1.92s3.34.56,4.39,1.67c.88.94,1.32,2.11,1.32,3.53,0,2.71-1.54,4.54-4.62,5.46-.09.02-.16.04-.22.04-.15,0-.29-.1-.42-.31-.21-.34-.56-.65-1.05-.94,1.54-.37,2.67-.88,3.37-1.55.77-.73,1.16-1.71,1.16-2.94,0-1-.35-1.85-1.05-2.53-.63-.63-1.4-.94-2.31-.94h-.06ZM214.83,35.78c-1.07.21-1.92.67-2.56,1.36-.78.88-1.17,1.8-1.17,2.78,0,.69.12,1.24.37,1.66.2.32.41.48.64.48.41,0,.79-.31,1.13-.92.37-.67.7-1.53,1-2.58.27-.95.47-1.88.59-2.79Z"/>
        <path class="cls-2" d="M225.86,33.46c.7.17,1.24.35,1.61.55.23.12.34.24.34.36,0,.07-.08.22-.23.45-.13.23-.25.59-.36,1.06-.42,1.86-.63,3.48-.63,4.85,0,.64.03,1.22.09,1.75.68-1.48,1.02-2.23,1.02-2.23.05.16.23.48.53.94.07.12.1.19.1.23,0,.08-.02.16-.07.24-.42.94-.71,1.7-.86,2.26-.03.09-.04.25-.04.47l.03.42c0,.1-.07.17-.2.2-.42.12-.83.2-1.22.24h-.03c-.08,0-.14-.06-.17-.17-.22-.55-.4-1.29-.53-2.22-.11-.78-.16-1.53-.16-2.25,0-1.38.17-3.02.51-4.92.18-1.03.26-1.77.26-2.23ZM229.32,41.2l1.36-.12h.03c.08,0,.12.08.12.23.05.54.29.92.73,1.14.38.18.95.27,1.72.27.82,0,1.77-.06,2.86-.19.03,0,.06,0,.07,0,.08,0,.13.07.15.2.06.42.09.85.09,1.29,0,.1-.01.16-.04.18-.03.02-.1.03-.22.04-.93.11-1.75.17-2.45.17-1.16,0-2.05-.11-2.66-.33-.52-.19-.93-.5-1.24-.92-.35-.44-.52-1.09-.52-1.95ZM229.8,36.94c.01-.86.03-1.35.04-1.47.02-.15.09-.23.21-.26.97-.18,2.05-.27,3.26-.27.85,0,1.59.03,2.22.09.16,0,.26.03.3.06.03.02.04.07.04.14,0,.57,0,1-.03,1.27-.01.12-.07.18-.16.18h-.04c-.9-.06-1.71-.1-2.45-.1-.99,0-2.12.12-3.41.35Z"/>
        <path class="cls-2" d="M244.28,40.99c-.06.46-.09.87-.09,1.21,0,.73.18,1.24.54,1.54.31.25.79.38,1.45.38,1.82,0,2.73-.67,2.73-2.02,0-.49-.1-.93-.29-1.32-.21-.41-.56-.88-1.06-1.41.16.02.31.04.46.04.18,0,.54-.04,1.07-.12.03,0,.07-.01.1-.01.08,0,.15.02.21.07.85.81,1.27,1.75,1.27,2.82,0,1.13-.45,2.02-1.35,2.67-.78.56-1.77.83-2.97.83-2.52,0-3.78-1.13-3.78-3.38,0-.16.03-.63.1-1.41-.83-.13-1.51-.28-2.04-.45-.1-.03-.15-.12-.17-.29-.03-.32-.04-.62-.04-.9,0-.17,0-.34.02-.5.84.31,1.65.5,2.43.59.11-.81.19-1.53.26-2.15-1-.13-1.72-.27-2.16-.42-.16-.04-.24-.12-.24-.26-.03-.72-.04-1.18-.04-1.39.86.28,1.76.47,2.72.57.1-.75.17-1.33.19-1.73.02-.19.02-.38.02-.57,0-.24-.01-.47-.04-.69.76.1,1.36.24,1.8.42.22.08.33.19.33.34,0,.1-.04.19-.12.29-.09.09-.18.31-.27.64-.09.4-.17.87-.24,1.41.15,0,.31.01.48.01.41,0,.86-.03,1.36-.1.1,0,.15.06.15.18,0,.14,0,.28,0,.42,0,.27-.01.51-.04.71,0,.13-.08.21-.24.22-.47.05-.99.08-1.55.08h-.45c-.04.25-.15.97-.33,2.15.22,0,.41,0,.57,0,.5,0,1.02-.02,1.56-.06.03,0,.06,0,.09,0,.1,0,.15.06.15.18,0,.4-.02.78-.07,1.13-.01.16-.09.24-.21.24-.44.03-.95.05-1.53.05-.24,0-.5,0-.77,0Z"/>
        <path class="cls-2" d="M256.03,37.42c.39-.04.99-.18,1.79-.43,1.5-.5,2.64-.75,3.44-.75,1.06,0,1.88.36,2.44,1.08.48.62.72,1.45.72,2.48,0,1.32-.41,2.51-1.22,3.59-.68.93-1.64,1.72-2.89,2.39-.12.05-.2.07-.26.07-.11,0-.23-.07-.36-.2-.37-.35-.79-.62-1.24-.79,1.52-.72,2.62-1.56,3.29-2.5.55-.78.83-1.67.83-2.66,0-.65-.14-1.15-.42-1.47-.24-.28-.57-.42-.98-.42-.69,0-1.48.21-2.35.64-.61.3-1.04.54-1.27.72-.13.1-.24.15-.33.15-.14,0-.28-.11-.43-.33-.22-.34-.48-.86-.76-1.57ZM258.94,32.46c1.14.45,2.59.81,4.35,1.07.14.02.21.1.21.21,0,.02,0,.04,0,.06-.11.59-.22,1.03-.33,1.32-.04.14-.11.21-.18.21h-.03c-1.6-.26-3.05-.65-4.35-1.16-.08-.03-.12-.1-.12-.19,0-.03,0-.07.01-.11.07-.36.22-.83.45-1.41Z"/>
        <path class="cls-2" d="M270.42,39.05c.66-.1,1.44-.3,2.34-.58,1.84-.61,3.3-.92,4.38-.92s1.95.34,2.59,1.02c.55.59.83,1.32.83,2.19,0,1.47-.71,2.6-2.15,3.36-.98.54-2.01.87-3.1.99-.06,0-.11.01-.15.01-.15,0-.26-.08-.34-.23-.19-.34-.5-.67-.92-.99.84-.13,1.52-.27,2.04-.42s1.04-.35,1.58-.62c.9-.47,1.35-1.22,1.35-2.23,0-1.1-.62-1.65-1.86-1.65-.9,0-2.31.39-4.25,1.16-.34.15-.62.31-.83.47-.12.1-.22.15-.3.15-.11,0-.24-.09-.39-.27-.18-.22-.45-.71-.81-1.46Z"/>
        <path class="cls-2" d="M284.52,35.31c.53-.02,1.33-.1,2.39-.25,4.04-.59,7.04-1.02,9.01-1.27.03,0,.06,0,.09,0,.14,0,.21.06.23.17.1.43.15.88.17,1.33,0,.15-.09.22-.29.22-.68.04-1.29.15-1.83.33-1.31.45-2.31,1.12-2.99,2.02-.56.73-.83,1.53-.83,2.4,0,1.93,1.33,2.98,3.99,3.15.22,0,.33.08.33.23,0,.47-.06.9-.17,1.29-.04.21-.13.31-.28.31-1.57,0-2.9-.43-3.97-1.3-1.04-.85-1.57-1.97-1.57-3.33,0-1.09.29-2.05.86-2.89.46-.67,1.14-1.29,2.02-1.87v-.03c-1.77.33-3.45.66-5.04.99-.52.12-.83.2-.94.24-.19.08-.3.12-.33.12-.13,0-.22-.08-.29-.23-.16-.32-.34-.86-.56-1.62Z"/>
        <path class="cls-2" d="M299.06,37.04c.59-.07,1.56-.33,2.91-.78,2.46-.83,4.26-1.25,5.41-1.25,1.43,0,2.55.42,3.36,1.25.7.72,1.05,1.63,1.05,2.73,0,1.03-.25,1.89-.74,2.59-.42.6-1.05,1.12-1.9,1.57-.59.33-1.25.6-1.99.81-.36.1-.96.25-1.82.43-.09.02-.17.03-.22.03-.14,0-.24-.09-.31-.27-.2-.47-.55-.87-1.05-1.19,1.81-.3,3.16-.67,4.07-1.11,1.38-.7,2.07-1.69,2.07-2.99,0-.76-.25-1.34-.75-1.74-.45-.36-1.06-.53-1.82-.53-1.27,0-3.08.52-5.42,1.55-.63.31-.97.49-1.03.53-.18.15-.31.23-.41.23-.13,0-.28-.1-.43-.31-.33-.4-.65-.92-.96-1.56Z"/>
        <path class="cls-2" d="M315.94,33.11c.67.16,1.19.34,1.58.53.22.11.33.22.33.33,0,.09-.03.19-.09.3-.08.21-.18.58-.29,1.11-.38,2.16-.57,3.66-.57,4.5,0,1.12.05,1.91.15,2.37.62-1.33.96-2.04,1-2.15.13.34.29.68.49,1,.09.1.14.2.14.29s-.06.25-.18.49c-.28.62-.5,1.24-.67,1.83-.03.12-.04.25-.04.4v.36c0,.09-.07.16-.2.21-.38.17-.72.27-1.03.31-.03,0-.06,0-.09,0-.1,0-.19-.07-.26-.21-.26-.51-.48-1.27-.65-2.27-.16-.86-.23-1.65-.23-2.37,0-1.1.15-2.71.45-4.8.11-.84.17-1.58.17-2.23ZM322.94,36.17c-.05-1.23-.08-1.89-.09-1.99-.06-.52-.14-.93-.25-1.23.93.03,1.58.1,1.93.21.16.04.24.12.24.24,0,.08-.04.18-.11.3-.05.1-.07.31-.07.63v1.67c.72-.1,1.36-.21,1.92-.33.05-.01.1-.02.13-.02.08,0,.13.05.14.15.04.27.08.64.12,1.13v.04c0,.13-.07.21-.2.22-.63.12-1.33.22-2.07.3v2.31c.03,1.39-.19,2.55-.64,3.48-.46.99-1.18,1.77-2.15,2.33-.14.09-.27.13-.37.13-.12,0-.22-.04-.3-.13-.29-.26-.68-.51-1.17-.74.74-.4,1.31-.8,1.71-1.22.34-.35.62-.78.83-1.27.33-.75.48-1.87.47-3.35v-1.36c-.82.06-1.42.09-1.82.09-.17,0-.35.01-.54.01s-.42,0-.72-.01c-.21,0-.33-.08-.34-.23-.01-.08-.07-.53-.17-1.37.46.05,1.08.08,1.86.08.63,0,1.19-.02,1.67-.07Z"/>
        <path class="cls-2" d="M330.89,42.05c.64,0,1.18.24,1.61.71.38.41.56.89.56,1.45,0,.64-.24,1.18-.72,1.6-.42.37-.9.56-1.46.56-.64,0-1.18-.24-1.61-.71-.38-.41-.56-.89-.56-1.45,0-.64.24-1.18.72-1.6.42-.37.9-.56,1.46-.56ZM330.89,42.97c-.38,0-.69.13-.93.4-.21.23-.31.52-.31.84,0,.38.13.69.4.93.23.21.51.31.84.31.38,0,.69-.13.93-.4.21-.23.32-.52.32-.84,0-.38-.13-.69-.4-.93-.23-.21-.52-.31-.84-.31Z"/>
        <path class="cls-2" d="M344.34,36.1c2.06-.84,3.64-1.88,4.77-3.12.21-.21.39-.46.56-.78.51.08,1,.19,1.45.33.14.02.21.09.21.19,0,.08-.06.16-.18.23-.12.06-.26.18-.42.37l-.23.26h2.57c.24,0,.42-.02.54-.07.12-.04.21-.06.27-.06.14,0,.33.11.59.33.34.28.51.48.51.6,0,.1-.06.19-.18.26-.16.11-.32.26-.48.46-1.09,1.29-2.3,2.34-3.65,3.16-1.45.89-3.18,1.61-5.21,2.18-.16.04-.27.06-.32.06-.09,0-.2-.12-.33-.36-.21-.37-.43-.67-.67-.9,1.81-.4,3.41-.95,4.8-1.65-.42-.38-.78-.66-1.08-.84-.08-.06-.12-.11-.12-.13,0-.04.04-.09.12-.15l.75-.59c.06-.05.12-.07.16-.07s.1.02.18.07c.45.29.89.61,1.3.94.87-.58,1.63-1.24,2.28-1.98h-3.26c-1,.92-2.17,1.67-3.51,2.26-.16.08-.27.12-.33.12-.06,0-.16-.09-.29-.27-.19-.28-.46-.56-.81-.84ZM345.99,41.57c1.47-.5,2.69-1.04,3.65-1.64.79-.48,1.5-1.06,2.15-1.72.21-.22.38-.47.54-.75.44.12.87.27,1.29.43.15.06.23.14.23.24,0,.08-.06.16-.18.23-.1.05-.24.17-.4.34l-.32.31h2.39c.24,0,.41-.02.53-.07.12-.05.2-.07.23-.07.14,0,.36.13.67.4.28.24.42.42.42.53,0,.09-.06.17-.18.26-.15.11-.3.26-.45.45-1.28,1.67-2.72,2.93-4.31,3.8-1.46.8-3.32,1.42-5.57,1.87-.17.03-.28.04-.34.04-.11,0-.22-.12-.31-.36-.17-.39-.38-.72-.64-1,2.38-.38,4.31-.94,5.79-1.68-.41-.38-.8-.7-1.17-.96-.07-.07-.1-.12-.1-.15,0-.04.04-.09.11-.14l.81-.59c.07-.04.12-.07.17-.07s.1.02.18.07c.42.26.87.62,1.35,1.05.83-.56,1.6-1.27,2.31-2.12h-3.21c-1.1.91-2.51,1.73-4.22,2.46-.21.07-.33.1-.36.1-.07,0-.16-.1-.27-.31-.23-.41-.49-.73-.76-.96Z"/>
        <path class="cls-2" d="M366.8,32.71c.69.41,1.24.79,1.66,1.14.08.06.12.14.12.23,0,.13-.07.23-.21.29-.23.12-.47.3-.72.53-1.65,1.47-3.01,2.77-4.09,3.9-.13.16-.2.27-.2.33,0,.08.07.17.2.27,2.29,1.66,4.16,3.23,5.58,4.72.07.09.1.15.1.2,0,.05-.03.11-.1.18-.4.43-.75.78-1.04,1.04-.09.08-.16.12-.21.12s-.11-.04-.18-.13c-1.68-1.88-3.49-3.57-5.46-5.07-.53-.41-.8-.83-.8-1.27,0-.24.07-.47.22-.7.09-.15.26-.35.51-.62.39-.41,1.06-1.12,2.03-2.14.75-.78,1.34-1.41,1.79-1.89.37-.4.64-.78.81-1.13Z"/>
        <path class="cls-2" d="M381.57,35.69c-.38,2.78-1,4.93-1.88,6.46-.66,1.15-1.51,1.73-2.56,1.73-.76,0-1.4-.38-1.92-1.14-.49-.72-.73-1.63-.73-2.71,0-1.47.56-2.77,1.69-3.9,1.28-1.28,2.91-1.92,4.88-1.92s3.34.56,4.39,1.67c.88.94,1.32,2.11,1.32,3.53,0,2.71-1.54,4.54-4.62,5.46-.09.02-.16.04-.22.04-.15,0-.29-.1-.42-.31-.21-.34-.56-.65-1.05-.94,1.54-.37,2.67-.88,3.37-1.55.77-.73,1.16-1.71,1.16-2.94,0-1-.35-1.85-1.05-2.53-.63-.63-1.4-.94-2.31-.94h-.06ZM379.83,35.78c-1.07.21-1.92.67-2.56,1.36-.78.88-1.17,1.8-1.17,2.78,0,.69.12,1.24.37,1.66.2.32.41.48.64.48.41,0,.79-.31,1.13-.92.37-.67.7-1.53,1-2.58.27-.95.47-1.88.59-2.79Z"/>
        <path class="cls-2" d="M394.23,35.24c.47.78.88,1.6,1.22,2.45.6-.41,1.04-.89,1.32-1.44.26-.49.41-1.1.47-1.83l-1.52.03c-.08,0-.12-.01-.14-.04-.01-.02-.02-.07-.02-.14v-1.03c0-.09,0-.14.03-.16.01-.01.06-.02.13-.02l1.74.03h2.48l1.74-.03c.13,0,.2.07.2.2,0,.15-.02.34-.03.56,0,.23-.01.38-.01.44-.04,1.64-.16,2.78-.36,3.43-.22.79-.77,1.19-1.64,1.19-.38,0-.71-.01-1-.04-.24-.01-.39-.05-.43-.1-.03-.04-.07-.18-.11-.4-.08-.39-.17-.7-.29-.94.53.09,1.01.13,1.46.13.31,0,.52-.12.63-.36.17-.4.28-1.32.32-2.75h-1.77c-.14,2.15-1.03,3.73-2.65,4.73-.19.11-.32.16-.37.16-.08,0-.16-.09-.26-.26-.12-.21-.29-.42-.5-.64l-.33.15c-.09.04-.15.07-.18.07-.04,0-.08-.04-.1-.12-.02-.05-.06-.18-.13-.38-.05-.14-.09-.24-.12-.32-.98.38-2.26.81-3.85,1.29-.19.05-.33.13-.43.23-.07.07-.16.1-.26.1s-.17-.06-.23-.18c-.12-.33-.25-.8-.37-1.41.41-.04.81-.1,1.19-.18l-.14-2.95c-.03-.63-.08-1.15-.16-1.57.46.06.93.16,1.44.31.82-.17,1.64-.42,2.45-.75.29-.12.53-.25.71-.37.32.24.63.54.94.92.1.1.15.18.15.26,0,.1-.08.16-.23.18-.12.01-.31.06-.55.15-1.1.42-2.19.73-3.25.93l.1,2.53c.87-.24,1.54-.45,2.01-.62-.2-.4-.36-.7-.47-.9-.03-.05-.04-.09-.04-.12,0-.04.05-.09.15-.14l.79-.33c.08-.03.14-.04.17-.04.04,0,.08.04.13.11ZM391.95,46.04h-1.23c-.08,0-.12,0-.14-.03-.02-.02-.02-.06-.02-.13l.03-2.79v-1.4l-.03-1.92c0-.08,0-.12.03-.14s.06-.02.13-.02l2.1.03h5.6l2.1-.03c.1,0,.15.05.15.16l-.03,1.71v1.59l.03,2.78c0,.11-.05.16-.15.16h-1.25c-.08,0-.13,0-.15-.03-.01-.02-.02-.06-.02-.13v-.51h-6.99v.54c0,.08,0,.12-.03.14s-.07.02-.14.02ZM392.12,40.81v1.11h2.64v-1.11h-2.64ZM392.12,44.16h2.64v-1.15h-2.64v1.15ZM399.1,40.81h-2.85v1.11h2.85v-1.11ZM396.25,44.16h2.85v-1.15h-2.85v1.15Z"/>
        <path class="cls-2" d="M405.97,42.1l-1.88.03c-.08,0-.12,0-.14-.03s-.02-.06-.02-.13v-1.16c0-.08,0-.13.03-.15.02-.01.06-.02.13-.02l1.88.03h3.95c-.02-.56-.05-.99-.09-1.27l.87.09c.45-.29.91-.65,1.36-1.08h-3.24l-1.94.03c-.11,0-.16-.05-.16-.15v-1.05c0-.08,0-.12.03-.14s.06-.02.13-.02l1.94.03h4.06c.2,0,.31,0,.36-.03.1-.04.17-.06.19-.06.1,0,.32.16.65.48.28.29.42.51.42.64,0,.12-.06.2-.18.24-.21.11-.45.27-.72.5-.71.6-1.41,1.12-2.1,1.55v.24h3.75l1.88-.03c.08,0,.13,0,.15.03.02.02.02.07.02.14v1.16c0,.07,0,.12-.03.14-.02.02-.07.03-.14.03l-1.88-.03h-3.75v.97l.03,1.3c0,.6-.16,1.01-.48,1.23-.21.13-.49.22-.83.26-.32.04-.81.07-1.47.07-.24,0-.39-.02-.43-.06-.04-.04-.1-.16-.15-.37-.11-.42-.26-.79-.45-1.1.6.06,1.13.09,1.6.09.23,0,.39-.04.47-.12.08-.08.12-.21.12-.4v-1.88h-3.95ZM406.01,32.83l.9-.33c.07-.03.12-.04.16-.04.05,0,.11.04.17.12.39.5.72,1.02,1,1.56.03.06.04.1.04.12,0,.03-.06.07-.18.12l-.99.36h3.12c-.22-.65-.51-1.27-.86-1.88-.03-.05-.04-.09-.04-.11,0-.03.06-.07.18-.12l.99-.3c.06-.02.11-.03.14-.03.06,0,.11.04.16.12.32.53.6,1.11.83,1.74.01.05.02.08.02.1,0,.04-.06.08-.19.12l-.97.34h2.31c.22-.38.46-.88.73-1.52.09-.22.16-.49.23-.79.53.1,1.02.25,1.48.45.14.06.21.14.21.23,0,.08-.05.16-.15.23-.1.06-.2.18-.29.34-.21.39-.42.74-.62,1.06h.39l1.98-.03c.09,0,.14,0,.16.03.01.02.02.06.02.13l-.03.81v.69l.03,1.68c0,.09-.01.14-.04.16-.02.01-.07.02-.15.02h-1.18c-.08,0-.13-.01-.15-.04-.02-.02-.02-.07-.02-.15v-1.98h-9.6v1.98c0,.08,0,.13-.03.15s-.06.02-.13.02h-1.19c-.09,0-.14,0-.16-.03-.02-.02-.02-.07-.02-.14l.03-1.69v-.56l-.03-.93c0-.08.01-.12.04-.14.02-.01.07-.02.15-.02l1.98.03h.4c-.24-.58-.56-1.14-.96-1.68-.04-.05-.05-.09-.05-.12,0-.04.05-.08.16-.11Z"/>
        <path class="cls-2" d="M421.09,45.33l-1.9.03c-.08,0-.13,0-.15-.03-.01-.02-.02-.06-.02-.13v-1.27c0-.08.01-.12.04-.14.01-.01.06-.02.13-.02l1.9.03h3.77v-2.72h-1.65l-2.07.03c-.08,0-.12,0-.14-.03s-.02-.06-.02-.13v-1.22c0-.1.05-.15.16-.15l2.07.03h1.65v-2.56h-3.15c-.38.76-.82,1.46-1.32,2.09-.14.18-.23.27-.29.27-.04,0-.15-.08-.33-.24-.29-.29-.6-.51-.94-.67,1.03-1.2,1.83-2.66,2.41-4.39.11-.34.18-.67.21-.99.36.06.84.18,1.46.36.18.05.27.12.27.23,0,.06-.05.15-.15.27-.09.1-.19.29-.29.57l-.36.99h2.48v-.78c0-.95-.04-1.71-.12-2.28.7.02,1.26.06,1.69.11.16.01.24.07.24.16,0,.08-.03.18-.07.3-.07.18-.11.73-.11,1.66v.83h2.58l2.06-.03c.09,0,.14,0,.15.03s.02.06.02.13v1.24c0,.08-.01.12-.03.14-.02.01-.07.02-.15.02l-2.06-.03h-2.58v2.56h1.88l2.07-.03c.11,0,.16.05.16.15v1.22c0,.07,0,.12-.03.14-.02.02-.06.03-.14.03l-2.07-.03h-1.88v2.72h3.55l1.9-.03c.08,0,.13,0,.15.03.01.02.02.06.02.13v1.27c0,.07,0,.12-.03.14-.02.02-.07.03-.14.03l-1.9-.03h-8.95Z"/>
        <path class="cls-2" d="M437.92,36.5c.15-.54.3-1.17.45-1.89.1-.6.15-1.15.15-1.66.73.16,1.33.32,1.79.49.16.05.24.15.24.3,0,.08-.04.16-.1.23-.12.16-.22.35-.3.57-.07.22-.17.54-.29.95-.11.38-.2.66-.26.85.37-.04.77-.07,1.2-.07,1.43,0,2.15.96,2.15,2.89,0,.9-.08,1.81-.24,2.72-.15.83-.34,1.5-.57,1.98-.42.94-1.1,1.41-2.02,1.41-.71,0-1.23-.08-1.56-.23-.18-.07-.27-.21-.27-.42-.06-.62-.15-1.08-.29-1.39.56.26,1.13.39,1.73.39.26,0,.47-.06.61-.19.12-.12.24-.32.35-.61.39-1.04.59-2.28.59-3.74,0-.56-.07-.93-.21-1.12-.13-.17-.34-.26-.65-.26-.33,0-.75.03-1.26.1-.98,2.86-1.99,5.21-3.02,7.05-.05.12-.13.18-.22.18-.05,0-.11-.02-.17-.05-.46-.22-.81-.44-1.04-.66-.08-.08-.12-.15-.12-.22,0-.06.02-.11.06-.17,1.19-2.06,2.1-4.02,2.75-5.88-.34.05-.83.14-1.46.26-.27.05-.54.13-.83.24-.07.02-.13.04-.18.04-.14,0-.24-.08-.3-.23-.14-.37-.3-.89-.46-1.55.55,0,1.21-.03,1.98-.1.54-.05,1.13-.13,1.77-.23ZM443.1,36.38c.56-.38.96-.64,1.21-.77.04-.02.07-.03.1-.03.05,0,.12.03.18.1,1.14,1.07,1.97,2.29,2.49,3.65.02.05.04.1.04.13,0,.06-.03.11-.1.17-.28.26-.66.51-1.13.75-.05.03-.11.04-.15.04-.1,0-.16-.05-.19-.16-.62-1.63-1.43-2.92-2.45-3.88ZM443.92,34.08l.8-.56s.06-.04.09-.04c.04,0,.08.02.13.07.51.4.99.93,1.43,1.6.03.04.04.08.04.11,0,.04-.03.09-.09.13l-.63.46s-.08.05-.12.05c-.05,0-.09-.03-.14-.1-.46-.71-.97-1.29-1.52-1.74ZM445.31,33.08l.75-.54s.07-.04.1-.04c.03,0,.08.02.13.07.57.44,1.04.96,1.42,1.55.03.04.04.08.04.12,0,.05-.03.1-.09.15l-.6.47s-.08.05-.12.05c-.05,0-.1-.03-.14-.1-.42-.67-.92-1.25-1.49-1.73Z"/>
        <path class="cls-2" d="M462.41,44.43c-.23.28-.44.67-.62,1.17-.1.27-.19.4-.29.4-.05,0-.16-.02-.34-.06-2.34-.63-4.2-1.5-5.56-2.61-1.21,1.05-3.01,1.93-5.42,2.63-.18.05-.3.07-.34.07-.07,0-.13-.03-.17-.1-.02-.03-.07-.13-.13-.28-.15-.35-.38-.68-.67-1,2.34-.5,4.21-1.3,5.61-2.4-.67-.75-1.31-1.67-1.9-2.76-.02-.05-.04-.09-.04-.11,0-.05.06-.1.17-.16l.96-.48c.07-.03.12-.04.15-.04.04,0,.08.04.12.12.45.91,1.01,1.71,1.66,2.4.4-.46.72-.9.97-1.33.25-.41.46-.84.63-1.3.23.1.5.21.78.35.3.15.48.24.54.26.15.08.23.17.23.27s-.06.19-.18.3c-.14.11-.32.34-.55.67-.52.75-.96,1.34-1.33,1.77,1.38,1.03,3.29,1.77,5.73,2.21ZM448.99,39.13c1.2-.64,2.2-1.45,3.02-2.42.23-.26.42-.57.57-.92.54.25.94.47,1.19.64.18.13.27.23.27.3s-.07.15-.2.24c-.16.09-.33.27-.52.53-.78.96-1.74,1.82-2.9,2.58-.18.12-.3.18-.36.18s-.14-.09-.26-.26c-.28-.42-.55-.72-.81-.89ZM451.16,35.53l-1.9.03c-.11,0-.16-.05-.16-.15v-1.22c0-.08,0-.12.03-.14.02,0,.06-.01.13-.01h1.9s3.59.01,3.59.01v-.27c0-.59-.04-1.04-.11-1.38.47,0,1.01.02,1.6.07.15.01.23.06.23.15,0,.05-.03.14-.09.29-.04.12-.06.42-.06.89v.26h5.67c.08-.01.13,0,.15,0s.02.06.02.13v1.22c0,.1-.06.15-.17.15l-1.9-.03h-8.93ZM462.24,38.83c-.36.38-.61.7-.75.96-.13.23-.23.34-.32.34-.05,0-.17-.05-.36-.15-1.47-.85-2.69-1.94-3.63-3.26-.04-.05-.06-.1-.06-.12,0-.04.05-.1.15-.16l.81-.51c.09-.05.15-.07.18-.07.03,0,.07.03.13.09,1.12,1.35,2.4,2.31,3.85,2.89Z"/>
        <path class="cls-2" d="M464.73,36.37c.75.41,1.46.92,2.15,1.53.06.06.09.1.09.12,0,.03-.03.09-.09.18l-.69.96c-.04.07-.08.1-.12.1s-.08-.03-.14-.09c-.6-.6-1.3-1.15-2.1-1.64-.08-.04-.12-.08-.12-.1,0-.03.03-.09.1-.18l.62-.81c.07-.08.12-.12.17-.12.03,0,.07.02.13.05ZM463.86,44.95c.29-.35.55-.75.78-1.19.59-1.2,1.07-2.36,1.46-3.48.3.3.57.56.82.77.22.17.33.29.33.37,0,.06-.03.18-.09.34-.41,1.14-.89,2.25-1.43,3.31-.14.27-.22.47-.25.59-.03.13-.1.2-.18.2-.09,0-.19-.03-.29-.09-.42-.26-.81-.54-1.16-.83ZM465.31,32.6c.68.4,1.37.92,2.07,1.56.06.04.09.09.09.13,0,.03-.03.09-.09.18l-.67.94c-.06.07-.11.11-.15.11-.02,0-.07-.02-.12-.07-.74-.73-1.45-1.29-2.12-1.7-.07-.04-.1-.07-.1-.1,0-.03.03-.09.1-.18l.69-.81c.07-.08.12-.12.17-.12.03,0,.07.02.13.05ZM466.26,45c.9-.52,1.53-1.12,1.87-1.82.3-.62.46-1.44.46-2.47,0-.41-.03-.81-.08-1.2.52.01.98.05,1.38.1.19.03.29.1.29.18,0,0-.03.12-.09.33-.04.2-.07.44-.07.73,0,1.25-.2,2.27-.59,3.07-.34.68-.85,1.28-1.55,1.82-.19.14-.31.21-.37.21-.07,0-.19-.09-.34-.26-.24-.26-.54-.49-.9-.7ZM474.76,35.67c.86.74,1.66,1.62,2.4,2.64.04.06.06.1.06.12,0,.03-.05.08-.15.15l-.84.66c-.08.07-.15.11-.2.11-.04,0-.07-.03-.12-.1-.23-.37-.46-.7-.69-1-2.39.29-4.46.51-6.22.64-.32.03-.54.08-.64.14-.1.05-.19.07-.27.07s-.14-.08-.2-.23c-.1-.36-.19-.82-.29-1.38.25,0,.49.01.7.01.15,0,.41,0,.79-.01h.47c.39-.79.7-1.49.9-2.1h-.42l-2.05.03c-.08,0-.13,0-.15-.03-.01-.02-.02-.06-.02-.13v-1.08c0-.08,0-.12.03-.14s.07-.02.14-.02l2.05.03h1.34v-.26c0-.6-.03-1.08-.1-1.44.59.01,1.12.05,1.59.1.16.01.24.07.24.16,0,.07-.03.17-.09.31-.05.11-.07.39-.07.83v.29h1.93l2.07-.03c.08,0,.13,0,.15.03s.02.06.02.13v1.08c0,.08-.01.12-.03.14-.02.01-.07.02-.14.02l-2.07-.03h-2.78c-.29.73-.58,1.39-.89,1.96,1.4-.12,2.4-.21,3-.27-.18-.2-.38-.41-.62-.63-.05-.05-.08-.09-.08-.11,0-.03.05-.08.14-.14l.76-.57c.07-.05.12-.07.16-.07s.1.03.17.1ZM471.04,39.53c.65.02,1.14.06,1.46.12.15.01.23.07.23.17,0,.05-.01.11-.04.18l-.06.18c-.05.23-.07.68-.07,1.35v2.03l.03,1.75c0,.08,0,.13-.03.15-.02.01-.07.02-.14.02h-1.14c-.08,0-.12,0-.14-.03s-.02-.07-.02-.14l.03-1.75v-2.01c0-.79-.04-1.46-.1-2.01ZM476.37,42.68c.23.16.51.29.84.39.17.05.27.1.31.15.04.04.06.12.06.23,0,.04,0,.1,0,.17-.03.91-.18,1.51-.45,1.79-.3.3-.83.45-1.59.45-.59,0-1-.08-1.25-.23-.28-.16-.42-.49-.42-1v-3.66c0-.65-.02-1.16-.07-1.52.55.02,1.02.05,1.41.1.17.03.26.09.26.18,0,.05-.03.16-.09.31-.05.14-.07.52-.07,1.14v2.83c0,.19.03.31.1.36.08.04.22.06.41.06s.31-.06.39-.18c.11-.18.17-.7.18-1.56Z"/>
        <path class="cls-2" d="M484.33,32.51c.7.11,1.27.25,1.71.42.12.04.18.13.18.26,0,.09-.03.17-.1.22-.09.07-.17.19-.26.36-.02.05-.05.12-.09.22-.09.21-.17.41-.26.59.97-.11,1.88-.27,2.73-.47.03,0,.06,0,.09,0,.08,0,.13.05.15.16.09.35.14.71.15,1.08v.04c0,.11-.09.17-.26.2-1.17.17-2.34.32-3.52.45-.49.79-.87,1.35-1.12,1.66v.03c.49-.31.99-.46,1.52-.46,1.08,0,1.69.54,1.82,1.62,1.03-.47,1.76-.83,2.21-1.05.48-.25.86-.52,1.14-.81.46.49.82.93,1.05,1.32.08.12.12.23.12.33,0,.11-.08.18-.23.21-.3.04-.61.12-.92.23-1.47.52-2.54.92-3.22,1.19v2.42c0,.15-.09.24-.29.27-.33.05-.68.07-1.06.07-.13,0-.2-.08-.2-.24,0-.86,0-1.47.02-1.82-.69.36-1.18.71-1.46,1.05-.23.28-.35.6-.35.94,0,.69.69,1.03,2.08,1.03,1.09,0,2.33-.1,3.74-.3h.04c.1,0,.15.06.16.17.09.42.14.83.14,1.23v.05c0,.15-.06.23-.17.23-1.02.13-2.25.2-3.71.2-2.51,0-3.77-.83-3.77-2.48,0-.77.28-1.45.84-2.04.49-.53,1.27-1.06,2.33-1.61-.02-.41-.1-.68-.23-.83-.12-.14-.31-.21-.59-.21h-.09c-.58.02-1.27.39-2.07,1.08-.46.45-.96,1-1.5,1.63-.07.09-.13.13-.18.13-.04,0-.09-.03-.16-.1-.43-.42-.71-.75-.86-.99-.04-.05-.06-.1-.06-.14,0-.05.03-.11.1-.16,1.36-1.22,2.41-2.46,3.14-3.72-.7.03-1.5.04-2.4.04-.11,0-.18-.08-.21-.24-.03-.19-.08-.6-.15-1.24.48.02.98.03,1.51.03.63,0,1.28-.02,1.94-.05.18-.44.33-.87.45-1.29.07-.3.11-.6.11-.92Z"/>
        <path class="cls-2" d="M497.12,33.05c.95.11,1.58.2,1.88.27.24.06.36.15.36.29,0,.08-.05.24-.15.5-.07.21-.14.81-.21,1.82-.15,2.31-.23,4.25-.23,5.81,0,.82.09,1.33.28,1.55.18.21.55.31,1.1.31.8,0,1.67-.25,2.63-.74.95-.49,1.82-1.17,2.63-2.02.05.54.17,1.01.34,1.43.08.18.12.3.12.36,0,.14-.1.29-.3.47-.84.78-1.82,1.36-2.92,1.75-.92.33-1.84.5-2.77.5-1.05,0-1.79-.26-2.22-.77-.4-.48-.6-1.24-.6-2.29,0-.93.07-3.09.21-6.48.01-.51.02-.85.02-1.04,0-.67-.06-1.24-.18-1.71Z"/>
        <path class="cls-2" d="M509.52,35.31c.53-.02,1.33-.1,2.39-.25,4.04-.59,7.04-1.02,9.01-1.27.03,0,.06,0,.09,0,.14,0,.21.06.23.17.1.43.15.88.17,1.33,0,.15-.09.22-.29.22-.68.04-1.29.15-1.83.33-1.31.45-2.31,1.12-2.99,2.02-.56.73-.83,1.53-.83,2.4,0,1.93,1.33,2.98,3.99,3.15.22,0,.33.08.33.23,0,.47-.06.9-.17,1.29-.04.21-.13.31-.28.31-1.57,0-2.9-.43-3.97-1.3-1.04-.85-1.57-1.97-1.57-3.33,0-1.09.29-2.05.86-2.89.46-.67,1.14-1.29,2.02-1.87v-.03c-1.77.33-3.45.66-5.04.99-.52.12-.83.2-.94.24-.19.08-.3.12-.33.12-.13,0-.22-.08-.29-.23-.16-.32-.34-.86-.56-1.62Z"/>
        <path class="cls-2" d="M524.87,34.46c.82.1,1.45.26,1.9.49.16.07.24.16.24.27,0,.09-.04.23-.12.42-.09.27-.13.76-.13,1.47,0,1.25.09,2.39.27,3.42.26,1.47.67,2.2,1.23,2.2.25,0,.5-.18.73-.53.21-.31.44-.83.71-1.56.25.4.57.79.96,1.16.1.09.15.2.15.32,0,.07-.01.15-.04.23-.3.81-.7,1.41-1.19,1.82-.42.35-.87.52-1.36.52-.67,0-1.26-.38-1.79-1.14-.49-.71-.83-1.64-1.01-2.77-.24-1.43-.36-2.88-.36-4.37,0-.76-.06-1.41-.18-1.96ZM532.55,36.59c.49-.31.89-.54,1.18-.69.08-.04.14-.06.17-.06.05,0,.1.03.16.09.74.64,1.38,1.47,1.94,2.49.49.89.83,1.77,1,2.64,0,.03.01.06.01.09,0,.09-.06.17-.18.24-.44.28-.83.48-1.17.6-.05.01-.09.02-.13.02-.1,0-.16-.06-.18-.19-.28-1.18-.65-2.18-1.11-3.02-.43-.78-.99-1.52-1.69-2.22Z"/>
        <path class="cls-2" d="M546.08,34.94c-.94.17-1.9.36-2.9.57-.26.06-.47.12-.63.18-.12.05-.22.07-.3.07-.15,0-.26-.09-.33-.26-.16-.31-.33-.85-.52-1.62.25.03.52.05.81.05.2,0,.39,0,.58-.02,1.03-.1,2.17-.27,3.41-.51.42-.08.69-.16.82-.23.14-.08.23-.12.29-.12.12,0,.23.04.34.12.4.31.73.63,1,.96.11.13.17.25.17.37,0,.16-.09.28-.26.36-.17.08-.39.24-.66.48-.31.3-.88.87-1.71,1.71-.62.62-1.13,1.12-1.53,1.51l.02.04c.79-.45,1.59-.67,2.39-.67,1.18,0,2.11.37,2.81,1.12.61.65.91,1.48.91,2.48,0,1.34-.53,2.39-1.6,3.13-.93.65-2.14.97-3.63.97-1.02,0-1.79-.22-2.33-.66-.47-.38-.7-.9-.7-1.55,0-.54.23-.99.7-1.35.4-.32.88-.48,1.42-.48.76,0,1.39.21,1.89.63.45.38.76.9.93,1.56.57-.26.97-.58,1.21-.97.21-.35.32-.79.32-1.32,0-.73-.25-1.3-.74-1.72-.42-.36-.96-.54-1.62-.54-1.31,0-2.59.53-3.84,1.59-.19.18-.62.6-1.3,1.27-.11.11-.2.17-.26.17s-.13-.04-.23-.13c-.27-.24-.57-.57-.88-.98-.03-.04-.05-.08-.05-.12,0-.06.04-.14.12-.22,1.12-.9,2.3-2.01,3.55-3.31,1.02-1.05,1.8-1.91,2.33-2.57ZM545.97,44.17c-.2-.86-.63-1.29-1.28-1.29-.22,0-.41.06-.54.19-.12.1-.18.23-.18.38,0,.52.43.78,1.3.78.26,0,.49-.02.69-.06Z"/>
        <path class="cls-2" d="M555.89,42.05c.64,0,1.18.24,1.61.71.38.41.56.89.56,1.45,0,.64-.24,1.18-.72,1.6-.42.37-.9.56-1.46.56-.64,0-1.18-.24-1.61-.71-.38-.41-.56-.89-.56-1.45,0-.64.24-1.18.72-1.6.42-.37.9-.56,1.46-.56ZM555.89,42.97c-.38,0-.69.13-.93.4-.21.23-.31.52-.31.84,0,.38.13.69.4.93.23.21.51.31.84.31.38,0,.69-.13.93-.4.21-.23.32-.52.32-.84,0-.38-.13-.69-.4-.93-.23-.21-.52-.31-.84-.31Z"/>
      </g>
    </g>
  </g>
</svg>