<?xml version="1.0" encoding="UTF-8"?>
<svg id="_レイヤー_2" data-name="レイヤー 2" xmlns="http://www.w3.org/2000/svg" viewBox="0 0 591.44 54.75">
  <defs>
    <style>
      .cls-1 {
        fill: none;
        stroke: #fff;
        stroke-miterlimit: 10;
      }

      .cls-2 {
        fill: #fff;
        stroke-width: 0px;
      }
    </style>
  </defs>
  <g id="_レイヤー_5" data-name="レイヤー 5">
    <g>
      <rect class="cls-1" x=".5" y=".5" width="590.44" height="53.75"/>
      <g>
        <path class="cls-2" d="M17.21,16.53l-1.9.03c-.08,0-.13,0-.15-.03s-.02-.06-.02-.13v-1.04c0-.1.06-.15.17-.15h1.9s3.52.01,3.52.01c.01-.17.02-.31.02-.45s0-.28-.02-.44c.52.01,1,.04,1.44.09.21.03.32.1.32.2,0,.07-.03.17-.09.29-.04.07-.08.17-.11.31h5.84c.11-.01.16.03.16.13v1.04c0,.07,0,.12-.03.14-.02.02-.06.03-.14.03l-1.91-.03h-3.25c1.11,1.06,2.98,1.7,5.62,1.9-.23.31-.42.66-.56,1.05-.06.18-.12.29-.16.34-.04.04-.1.07-.18.07-.02,0-.12,0-.3-.03-2.6-.4-4.53-1.34-5.8-2.81-.93,1.4-2.79,2.33-5.58,2.81-.14.03-.24.04-.31.04-.09,0-.16-.03-.2-.09-.03-.04-.07-.15-.13-.31-.13-.38-.31-.71-.54-1,2.66-.23,4.44-.89,5.34-1.98h-2.95ZM17.74,8.72v3.16l.03,2.64c0,.08,0,.12-.03.14s-.06.02-.13.02h-1.17c-.09,0-.14,0-.16-.03-.01-.02-.02-.06-.02-.13l.03-2.66v-2.02l-.03-2.18c0-.08.01-.12.04-.14.02-.01.07-.02.15-.02l2.07.03h1.53c.03-.05.14-.29.34-.72.1-.24.18-.49.23-.75.76.1,1.28.19,1.57.26.13.03.2.09.2.18,0,.05-.04.12-.13.21-.11.11-.19.22-.24.31l-.26.51h3.21l2.07-.03c.08,0,.13,0,.15.03s.02.06.02.13l-.03,1.94v2.26l.03,2.66c0,.07,0,.12-.03.14-.02.02-.06.03-.14.03h-1.17c-.08,0-.13,0-.15-.03-.02-.02-.02-.06-.02-.13l.03-2.63v-3.18h-7.95ZM23.14,11.86h-.23c.64.55,1.5.98,2.58,1.27-.22.26-.41.57-.56.92-.06.16-.12.24-.19.24-.04,0-.14-.04-.3-.12-.89-.44-1.63-1.02-2.22-1.73,0,.32.02.68.04,1.08.01.29.02.46.02.51,0,.08,0,.13-.03.15-.02.01-.07.02-.14.02h-.99c-.07,0-.12,0-.13-.03,0-.02-.01-.07-.01-.14,0-.04,0-.24.01-.59.01-.33.02-.64.03-.93-.6.74-1.27,1.3-2.03,1.68-.16.08-.26.12-.3.12-.05,0-.13-.09-.22-.27-.15-.26-.34-.51-.57-.75,1.03-.34,1.84-.82,2.45-1.44h-.07l-1.82.03c-.1,0-.15-.05-.15-.16v-.77c0-.11.05-.16.15-.16l1.82.03h.7v-.59c0-.57-.01-.98-.04-1.22.61.02,1.02.05,1.25.08.16,0,.24.05.24.13,0,.03-.02.08-.06.16-.06.09-.09.24-.09.44v.99h.86l1.82-.03c.1,0,.15.05.15.16v.77c0,.11-.05.16-.15.16l-1.82-.03ZM19.75,9.2c.22.23.44.56.65.97.02.04.04.08.04.1,0,.04-.04.09-.12.12l-.74.3c-.08.03-.14.05-.16.05-.03,0-.06-.03-.1-.1-.16-.37-.34-.69-.56-.98-.05-.08-.07-.13-.07-.15,0-.02.05-.06.14-.1l.66-.26c.07-.02.12-.04.14-.04.03,0,.07.02.12.07ZM22.77,10.41c.25-.27.44-.54.59-.81.09-.16.15-.31.2-.48.47.12.8.22.99.3.12.05.18.1.18.16,0,.05-.02.1-.07.13-.1.08-.18.16-.23.23-.28.43-.43.66-.46.69-.09.11-.17.17-.23.17-.06,0-.19-.06-.39-.17-.14-.08-.33-.16-.57-.22Z"/>
        <path class="cls-2" d="M31.95,7.29c.7.17,1.24.35,1.61.55.23.12.34.24.34.36,0,.07-.08.22-.23.45-.13.23-.25.59-.36,1.06-.42,1.86-.63,3.48-.63,4.85,0,.64.03,1.22.09,1.75.68-1.48,1.02-2.23,1.02-2.23.05.16.23.48.53.94.07.12.1.19.1.23,0,.08-.02.16-.07.24-.42.94-.71,1.7-.86,2.26-.03.09-.04.25-.04.47l.03.42c0,.1-.07.17-.2.2-.42.12-.83.2-1.22.24h-.03c-.08,0-.14-.06-.17-.17-.22-.55-.4-1.29-.53-2.22-.11-.78-.16-1.53-.16-2.25,0-1.38.17-3.02.51-4.92.18-1.03.26-1.77.26-2.23ZM35.4,15.03l1.36-.12h.03c.08,0,.12.08.12.23.05.54.29.92.73,1.14.38.18.95.27,1.72.27.82,0,1.77-.06,2.86-.19.03,0,.06,0,.07,0,.08,0,.13.07.15.2.06.42.09.85.09,1.29,0,.1-.01.16-.04.18-.03.02-.1.03-.22.04-.93.11-1.75.17-2.45.17-1.16,0-2.05-.11-2.66-.33-.52-.19-.93-.5-1.24-.92-.35-.44-.52-1.09-.52-1.95ZM35.88,10.77c.01-.86.03-1.35.04-1.47.02-.15.09-.23.21-.26.97-.18,2.05-.27,3.26-.27.85,0,1.59.03,2.22.09.16,0,.26.03.3.06.03.02.04.07.04.14,0,.57,0,1-.03,1.27-.01.12-.07.18-.16.18h-.04c-.9-.06-1.71-.1-2.45-.1-.99,0-2.12.12-3.41.35Z"/>
        <path class="cls-2" d="M49.5,6.53c.8.1,1.39.21,1.76.34.18.06.27.15.27.27,0,.1-.02.18-.07.24-.1.12-.17.3-.21.54-.01.08-.04.21-.07.4-.02.14-.04.26-.06.34,1.32-.13,2.62-.34,3.9-.63.04,0,.07-.01.1-.01.08,0,.13.06.15.17.1.42.15.76.15,1.02,0,.16-.11.26-.32.3-1.46.3-2.88.51-4.25.63-.06.62-.1,1.12-.11,1.52.61-.21,1.37-.31,2.3-.33.16-.42.24-.79.25-1.1.65.2,1.09.39,1.33.56.18.12.27.23.27.33,0,.06-.03.12-.09.18-.04.04-.11.14-.19.29,1.04.28,1.83.76,2.36,1.45.47.61.71,1.35.71,2.21,0,1.11-.45,2.05-1.34,2.83-.71.62-1.66,1.09-2.83,1.4-.1.03-.19.04-.25.04-.17,0-.3-.11-.41-.32s-.4-.52-.89-.93c.56-.12,1.12-.29,1.69-.53.47-.2.83-.39,1.1-.57.8-.58,1.2-1.33,1.2-2.25,0-.61-.21-1.11-.62-1.52-.32-.31-.73-.53-1.23-.66-.8,1.51-1.74,2.82-2.83,3.93.03.11.12.33.26.68.03.06.04.11.04.15,0,.07-.05.14-.16.22-.3.22-.6.39-.9.52-.06.03-.11.05-.15.05-.05,0-.1-.04-.15-.12-.09-.16-.18-.36-.25-.59-1.05.72-1.92,1.08-2.62,1.08-.55,0-.97-.19-1.27-.56-.26-.33-.39-.76-.39-1.3,0-.98.4-1.93,1.19-2.87.64-.75,1.41-1.35,2.31-1.79.01-.54.04-1.16.07-1.88-.37.01-.7.02-1,.02h-.54c-.45,0-.74-.02-.86-.04-.17-.01-.26-.13-.27-.34-.02-.13-.03-.32-.04-.57-.01-.29-.02-.48-.03-.57.46.05.99.08,1.58.08.1,0,.54,0,1.33-.01.08-.73.12-1.27.12-1.64,0-.23-.02-.45-.07-.67ZM49.2,13.62c-.63.45-1.12.94-1.46,1.48-.31.49-.47.95-.47,1.4,0,.19.06.33.17.44.09.09.2.13.33.13.42,0,1-.29,1.74-.87-.18-1.06-.28-1.92-.3-2.58ZM50.86,15.2c.69-.79,1.27-1.66,1.74-2.59-.63.01-1.27.13-1.92.34.01.83.08,1.58.18,2.25Z"/>
        <path class="cls-2" d="M67.16,8.77c-.94.17-1.9.36-2.9.57-.26.06-.47.12-.63.18-.12.05-.22.07-.3.07-.15,0-.26-.09-.33-.26-.16-.31-.33-.85-.52-1.62.25.03.52.05.81.05.2,0,.39,0,.58-.02,1.03-.1,2.17-.27,3.41-.51.42-.08.69-.16.82-.23.14-.08.23-.12.29-.12.12,0,.23.04.34.12.4.31.73.63,1,.96.11.13.17.25.17.37,0,.16-.09.28-.26.36-.17.08-.39.24-.66.48-.31.3-.88.87-1.71,1.71-.62.62-1.13,1.12-1.53,1.51l.02.04c.79-.45,1.59-.67,2.39-.67,1.18,0,2.11.37,2.81,1.12.61.65.91,1.48.91,2.48,0,1.34-.53,2.39-1.6,3.13-.93.65-2.14.97-3.63.97-1.02,0-1.79-.22-2.33-.66-.47-.38-.7-.9-.7-1.55,0-.54.23-.99.7-1.35.4-.32.88-.48,1.42-.48.76,0,1.39.21,1.89.63.45.38.76.9.93,1.56.57-.26.97-.58,1.21-.97.21-.35.32-.79.32-1.32,0-.73-.25-1.3-.74-1.72-.42-.36-.96-.54-1.62-.54-1.31,0-2.59.53-3.84,1.59-.19.18-.62.6-1.3,1.27-.11.11-.2.17-.26.17s-.13-.04-.23-.13c-.27-.24-.57-.57-.88-.98-.03-.04-.05-.08-.05-.12,0-.06.04-.14.12-.22,1.12-.9,2.3-2.01,3.55-3.31,1.02-1.05,1.8-1.91,2.33-2.57ZM67.05,18c-.2-.86-.63-1.29-1.28-1.29-.22,0-.41.06-.54.19-.12.1-.18.23-.18.38,0,.52.43.78,1.3.78.26,0,.49-.02.69-.06Z"/>
        <path class="cls-2" d="M74.65,18.4c.31-.75.5-1.67.59-2.78.02-.28.02-.49.02-.62,0-.09,0-.19,0-.3.47.07.83.13,1.08.2.15.03.23.09.23.18,0,.07-.02.15-.06.23-.03.06-.06.24-.07.53-.1,1.07-.27,2-.53,2.79-.07.23-.14.34-.2.34-.06,0-.18-.06-.34-.18-.22-.16-.46-.29-.7-.39ZM79.15,10.99c.08-.02.13-.03.15-.03.04,0,.09.03.13.1.21.52.4,1.04.54,1.55.56-.68,1.03-1.37,1.41-2.07.17-.31.31-.61.42-.9.33.18.66.4,1,.66.04.04.07.06.09.07v-.31c0-.08,0-.12.03-.14s.07-.02.14-.02l1.6.03h.8c.39-.9.72-1.79.99-2.66.09-.27.15-.59.2-.94.55.12,1.03.25,1.42.4.12.05.18.11.18.19,0,.1-.05.19-.15.27-.08.07-.17.23-.27.48-.31.8-.62,1.55-.94,2.26l1.41-.03c.1,0,.15.05.15.16v1.1c0,.11-.05.16-.15.16l-1.6-.03h-.34v2.16h.54l1-.03c.08,0,.12,0,.14.03.02.02.03.07.03.14v1.05c0,.07,0,.12-.03.14-.02.02-.07.03-.14.03l-1-.03h-.54v3.11c.32.08.52.13.59.14.42.08,1.05.12,1.88.12-.15.39-.24.71-.27.97-.03.25-.06.4-.1.44-.04.03-.14.05-.3.06-.55-.01-1.05-.08-1.5-.2-1.24-.31-2.15-1.02-2.75-2.13-.14.68-.38,1.38-.7,2.1-.09.18-.17.27-.24.27-.05,0-.15-.08-.29-.23-.19-.23-.41-.43-.66-.6l.03.92c0,.08,0,.13-.03.15-.02.01-.06.02-.13.02h-1.05c-.08,0-.13,0-.15-.03-.01-.02-.02-.07-.02-.14l.03-1.85v-2.11c0-.07.01-.73.04-1.96-.06.08-.14.17-.25.28-.12.13-.19.21-.21.23-.15.15-.25.23-.3.23-.07,0-.15-.1-.26-.31l-.12-.24-.16.04c-.07.02-.12.04-.15.04-.07,0-.11-.05-.13-.15l-.1-.45c-.36.06-.61.1-.73.12v4.2l.03,1.96c0,.08-.01.13-.04.15-.02.01-.07.02-.14.02h-1.11c-.08,0-.12,0-.14-.03-.02-.02-.02-.07-.02-.14l.03-1.96v-4.04c-.24.03-.56.07-.97.1-.29.03-.48.08-.57.14-.08.05-.16.07-.24.07s-.13-.08-.16-.24c-.08-.36-.16-.77-.23-1.25.43,0,.73,0,.92-.01.32-.41.62-.83.9-1.26-.54-.73-1.11-1.4-1.71-2.01-.05-.04-.07-.08-.07-.11,0-.03.04-.09.11-.19l.52-.78c.04-.07.09-.1.12-.1.03,0,.07.03.12.09l.26.27c.32-.53.58-1.05.79-1.56.13-.3.23-.59.3-.85.59.24.98.41,1.18.51.13.06.2.14.2.24,0,.08-.04.14-.13.2-.11.07-.19.19-.26.36-.45.82-.85,1.5-1.19,2.05.13.15.31.38.55.67.28-.47.6-1.02.96-1.66.19-.34.32-.64.42-.92.41.17.8.36,1.19.59.13.08.2.15.2.21,0,.1-.06.18-.18.24-.08.04-.22.24-.42.58-.81,1.27-1.58,2.39-2.31,3.35.62-.05,1.13-.1,1.54-.15-.07-.2-.18-.49-.34-.87-.03-.06-.04-.1-.04-.13,0-.05.07-.1.21-.14l.62-.21ZM79.48,14.71c.06-.01.1-.02.13-.02.04,0,.08.05.11.14.21.79.35,1.72.43,2.79,0,.04,0,.07,0,.08,0,.08-.07.13-.21.16l-.66.17c-.07.01-.13.02-.17.02-.07,0-.1-.06-.1-.17-.04-1.05-.16-1.98-.37-2.78-.01-.04-.02-.08-.02-.1,0-.05.07-.1.2-.12l.64-.17ZM79.48,9.69c.77-.76,1.43-1.63,1.97-2.61.16-.28.27-.55.34-.8.41.19.77.39,1.09.6.15.1.23.19.23.26,0,.09-.04.16-.13.23-.12.07-.24.22-.37.43-.54.96-1.15,1.8-1.81,2.52-.17.17-.29.26-.34.26-.07,0-.18-.09-.33-.27-.22-.28-.44-.48-.65-.62ZM82.99,13.74c0-.12,0-.25,0-.39,0-.26-.02-.52-.05-.77.67.07,1.08.13,1.25.17.18.04.27.11.27.2,0,0-.03.1-.1.26-.04.09-.08.29-.1.59-.06.95-.1,1.53-.13,1.76.23.65.51,1.15.83,1.5v-5.76h-.3l-1.6.03c-.08,0-.13,0-.15-.03s-.02-.06-.02-.13v-.34l-.07.04c-.12.11-.24.26-.34.46-.16.28-.31.54-.47.78v6.67c.37-.73.62-1.54.77-2.42.12-.69.19-1.56.22-2.61ZM84.53,6.55c.34.67.62,1.38.84,2.15.01.04.02.07.02.1,0,.06-.07.11-.2.16l-.9.3c-.06.02-.12.03-.15.03-.07,0-.11-.05-.13-.15-.16-.76-.42-1.46-.76-2.12-.03-.06-.04-.1-.04-.12,0-.04.06-.08.19-.12l.83-.31c.07-.03.13-.04.16-.04.05,0,.1.04.15.13Z"/>
        <path class="cls-2" d="M91.98,19.29l-1.86.03c-.1,0-.15-.05-.15-.16v-1.17c0-.11.05-.17.15-.17l1.86.03h2.37v-6.96h-1.79l-1.96.03c-.09,0-.14-.01-.15-.04-.02-.02-.03-.07-.03-.15v-1.14c0-.08.01-.12.04-.14.02-.01.07-.02.15-.02l1.96.03h4.86c.48-.76.91-1.58,1.28-2.45.09-.21.16-.45.21-.72.63.13,1.14.26,1.52.39.14.05.21.12.21.23,0,.06-.04.13-.13.23-.13.13-.24.27-.32.43-.34.71-.7,1.34-1.06,1.89h1.75l1.97-.03c.08,0,.12,0,.14.03s.02.06.02.13v1.14c0,.09-.01.14-.03.16-.02.01-.06.02-.13.02l-1.97-.03h-2.02v6.96h2.58l1.86-.03c.1,0,.15.06.15.17v1.17c0,.11-.05.16-.15.16l-1.86-.03h-9.45ZM92.34,12.18c.5,1.07.95,2.29,1.36,3.65.01.05.02.09.02.1,0,.05-.07.1-.21.15l-1.02.39c-.08.02-.13.03-.17.03-.06,0-.1-.05-.13-.14-.37-1.37-.8-2.58-1.32-3.64-.02-.05-.04-.09-.04-.12,0-.04.06-.09.18-.14l1-.36c.09-.03.15-.04.18-.04.05,0,.1.04.14.12ZM94.29,6.47c.55.72.96,1.39,1.25,2.01.02.05.04.09.04.11,0,.04-.06.09-.19.15l-1,.43c-.07.03-.13.05-.16.05-.05,0-.11-.05-.15-.14-.3-.73-.7-1.4-1.18-2.01-.04-.04-.06-.08-.06-.1,0-.04.06-.09.18-.14l.97-.42c.07-.03.13-.05.16-.05.05,0,.1.04.15.11ZM95.85,17.85h1.49v-6.96h-1.49v6.96ZM99.21,16.19c.6-1,1.08-2.06,1.45-3.16.13-.35.21-.69.26-1.03.57.14,1.01.28,1.32.44.19.09.29.18.29.27,0,.05-.05.14-.16.26-.07.07-.15.22-.24.45-.37,1.03-.81,1.99-1.3,2.91-.13.22-.23.33-.29.33-.04,0-.16-.05-.36-.15-.21-.11-.53-.22-.96-.33Z"/>
        <path class="cls-2" d="M105.57,8.37c.24.03.52.05.83.05.19,0,.43,0,.72-.02.48-.03,1.14-.12,1.96-.26.56-.1.91-.2,1.05-.31.11-.08.19-.12.24-.12.06,0,.13.04.21.12.27.27.48.53.63.8.09.15.13.26.13.34,0,.11-.08.21-.24.3-.26.14-.53.35-.81.64-.03.03-.24.26-.61.67-.63.72-1.1,1.5-1.42,2.34-.28.73-.42,1.46-.42,2.17,0,.98.24,1.72.72,2.2.39.39.89.59,1.52.59,1.17,0,2.06-.46,2.69-1.37.62-.89.93-2.25.93-4.08,0-.93-.03-1.68-.09-2.25-.02-.23-.06-.5-.1-.78-.08-.29-.13-.5-.17-.62-.03-.1-.04-.17-.04-.22,0-.08.07-.14.2-.18.42-.14.8-.23,1.12-.29.02,0,.03,0,.04,0,.09,0,.15.06.18.17.23.64.56,1.4,1,2.26.69,1.27,1.51,2.4,2.46,3.4.06.06.09.13.09.2,0,.05-.03.13-.1.24-.19.26-.46.58-.83.94-.05.05-.1.07-.16.07-.1,0-.18-.06-.24-.18-.8-1.11-1.49-2.4-2.07-3.87l-.07.03c.14.88.21,1.65.21,2.3,0,.91-.13,1.77-.4,2.58-.24.73-.55,1.32-.94,1.76-.53.59-1.08,1-1.66,1.24-.54.21-1.2.32-1.99.32-1.26,0-2.25-.44-2.97-1.31-.62-.76-.94-1.75-.94-2.95,0-.81.15-1.65.45-2.53.25-.74.56-1.38.94-1.9.29-.44.59-.81.89-1.1-.03,0-.31.04-.83.11-.32.04-.6.09-.85.13-.08.01-.21.05-.37.1-.11.03-.19.05-.23.05-.11,0-.2-.08-.26-.23-.14-.35-.27-.85-.4-1.52ZM115,7.43l.8-.56s.06-.04.09-.04c.04,0,.08.02.13.07.51.4.99.93,1.43,1.6.03.04.04.08.04.11,0,.05-.03.09-.09.13l-.63.47s-.08.04-.12.04c-.05,0-.09-.03-.14-.1-.46-.71-.97-1.29-1.52-1.74ZM116.39,6.44l.75-.54s.07-.04.1-.04.07.02.13.07c.58.43,1.05.95,1.42,1.55.03.04.04.09.04.12,0,.05-.03.1-.09.15l-.6.46s-.08.05-.12.05c-.05,0-.1-.03-.14-.1-.42-.67-.92-1.24-1.49-1.72Z"/>
        <path class="cls-2" d="M122.02,7.99l-1.83.03c-.1,0-.15-.05-.15-.16v-1.07c0-.11.05-.16.15-.16l1.83.03h3l1.84-.03c.08,0,.12,0,.14.03.01.02.02.06.02.13v1.07c0,.08,0,.12-.03.14s-.06.02-.13.02l-1.84-.03h-.12v1.44l1.53-.03c.11,0,.17.05.17.15l-.03,2.83v2.79l.03,4.2c0,.08-.01.12-.04.14-.01.01-.06.02-.13.02h-.92c-.09,0-.14,0-.15-.03s-.02-.06-.02-.13v-.5h-3.57v.76c0,.11-.05.17-.15.17h-.94c-.08,0-.12,0-.14-.03-.01-.02-.02-.07-.02-.14l.03-4.31v-2.55l-.03-3.24c0-.1.05-.15.16-.15l1.53.03v-1.44h-.18ZM123.2,12.3c-.1.89-.3,1.66-.62,2.29-.05.09-.1.13-.15.13-.06,0-.12-.07-.18-.2-.11-.26-.27-.48-.48-.66v1.41h3.57v-1.26h-.56c-.37,0-.61-.06-.74-.17-.15-.12-.22-.41-.22-.85v-2.37h-.56c0,.68-.02,1.24-.07,1.68ZM121.77,10.62v3.08c.17-.26.29-.52.37-.79.06-.23.12-.56.17-1,.02-.24.03-.67.03-1.29h-.56ZM121.77,17.6h3.57v-1.08h-3.57v1.08ZM123.27,9.43h.56v-1.44h-.56v1.44ZM125.34,10.62h-.56v1.56c0,.29.02.46.04.51.03.07.13.1.29.1h.23v-2.18ZM127.75,6.64l1.56.03h1.92l1.58-.03c.09,0,.14,0,.15.03.02.02.03.07.03.14l-.03,1.6v3.38l.03,1.61c0,.07,0,.12-.03.14s-.07.03-.15.03h-1.2c-.08,0-.12,0-.14-.03-.01-.02-.02-.06-.02-.13v-.51h-2.34v4.35c0,.36.04.58.13.67.13.13.51.19,1.12.19.74,0,1.21-.1,1.4-.3.11-.13.19-.35.24-.68.04-.25.07-.68.1-1.28.3.19.64.33,1.02.42.21.06.33.11.37.15.05.04.07.11.07.22,0,.04,0,.12-.01.23-.07,1.05-.31,1.77-.73,2.15-.41.36-1.25.54-2.52.54s-2.05-.13-2.34-.39c-.25-.24-.37-.64-.37-1.2v-4.67l-.03-1.71c0-.09,0-.14.03-.16.02-.01.07-.02.15-.02l1.43.03h2.28v-3.32h-2.13l-1.56.03c-.11,0-.16-.05-.16-.15v-1.21c0-.08,0-.12.03-.14s.06-.02.13-.02Z"/>
        <path class="cls-2" d="M137.25,11.48l-1.9.03c-.08,0-.12,0-.14-.03s-.02-.06-.02-.13v-.9c0-.08,0-.13.03-.15s.06-.02.13-.02l1.9.03h4.01s.03-.13.08-.37c.03-.13.05-.23.06-.31h-3.62l-2.02.03c-.11,0-.17-.05-.17-.15l.03-.94v-.78l-.03-.92c0-.09,0-.14.03-.16.02-.01.07-.02.14-.02l2.02.03h7.88l2.03-.03c.08,0,.12,0,.14.03.01.02.02.08.02.15l-.03.92v.78l.03.94c0,.1-.05.15-.16.15l-2.03-.03h-2.75l-.15.69h3.47l1.89-.03c.08,0,.13,0,.15.03.01.02.02.07.02.14v.9c0,.08-.01.12-.03.14-.02.01-.07.02-.15.02l-1.89-.03h-3.74s-.03.15-.09.37c-.03.12-.05.22-.07.3h2.17l1.97-.03c.08,0,.12,0,.14.03.02.02.02.07.02.14l-.03,1.39v2.35l.03,1.38c0,.07,0,.12-.03.14-.02.02-.06.03-.14.03l-1.97-.03h-3.68l-1.97.03c-.08,0-.12,0-.14-.03-.02-.02-.02-.06-.02-.13l.03-1.38v-2.35l-.03-1.39c0-.08,0-.13.03-.15s.06-.02.13-.02l1.96.03.18-.67h-3.73ZM135.86,12.54c.54,0,1.06.03,1.58.09.17.02.26.08.26.18,0,.08-.04.2-.11.36-.06.13-.09.48-.09,1.05v3.96h8.72l2.07-.03c.08,0,.13,0,.15.03s.02.06.02.13v.95c0,.08-.01.12-.03.14-.02.01-.07.02-.14.02l-2.07-.03h-8.72v.36c0,.08,0,.13-.03.15-.02.01-.07.02-.14.02h-1.23c-.08,0-.12-.01-.14-.04-.01-.01-.02-.06-.02-.13l.03-1.68v-3.87c0-.66-.04-1.22-.1-1.66ZM137.12,8.6h2.15v-.84h-2.15v.84ZM140.16,13.12v.57h4.98v-.57h-4.98ZM140.16,15.12h4.98v-.56h-4.98v.56ZM145.14,16.57v-.6h-4.98v.6h4.98ZM142.74,8.6v-.84h-2.15v.84h2.15ZM146.3,8.6v-.84h-2.23v.84h2.23Z"/>
        <path class="cls-2" d="M157.65,9.53c-.38,2.78-1,4.93-1.88,6.46-.66,1.15-1.51,1.73-2.56,1.73-.76,0-1.4-.38-1.92-1.14-.49-.72-.73-1.63-.73-2.71,0-1.47.56-2.77,1.69-3.9,1.28-1.28,2.91-1.92,4.88-1.92s3.34.56,4.39,1.67c.88.94,1.32,2.11,1.32,3.53,0,2.71-1.54,4.54-4.62,5.46-.09.02-.16.04-.22.04-.15,0-.29-.1-.42-.31-.21-.34-.56-.65-1.05-.94,1.54-.37,2.67-.88,3.37-1.55.77-.73,1.16-1.71,1.16-2.94,0-1-.35-1.85-1.05-2.53-.63-.63-1.4-.94-2.31-.94h-.06ZM155.91,9.62c-1.07.21-1.92.67-2.56,1.36-.78.88-1.17,1.8-1.17,2.78,0,.69.12,1.24.37,1.66.2.32.41.48.64.48.41,0,.79-.31,1.13-.92.37-.67.7-1.53,1-2.58.27-.95.47-1.88.59-2.79Z"/>
        <path class="cls-2" d="M164.5,11.95c1.1-1.22,1.98-2.8,2.64-4.74.15-.42.23-.77.25-1.06.58.14,1.04.27,1.38.4.17.06.26.14.26.23,0,.07-.06.16-.17.27-.1.08-.2.29-.32.62-.28.77-.54,1.41-.78,1.92v7.86l.03,2.28c0,.08-.01.13-.04.15-.01.01-.06.02-.13.02h-1.25c-.08,0-.12,0-.14-.03-.02-.02-.02-.07-.02-.14l.03-2.28v-3.25c0-.87,0-1.55.01-2.01-.21.31-.5.68-.84,1.09-.13.13-.22.2-.26.2-.07,0-.13-.09-.18-.27-.13-.45-.29-.87-.5-1.25ZM170.26,19.88h-1.13c-.08,0-.12,0-.14-.03-.01-.02-.02-.07-.02-.14l.03-5.05v-3.8l-.03-3.76c0-.08,0-.13.03-.15s.06-.02.13-.02l2.06.03h4.59l2.07-.03c.08,0,.13,0,.15.03.01.02.02.07.02.14l-.03,3.43v4.1l.03,5c0,.1-.06.15-.17.15h-1.16c-.11,0-.16-.05-.16-.15v-.62h-6.1v.7c0,.08-.01.13-.04.15-.01.01-.06.02-.13.02ZM170.43,8.32v9.34h6.1v-9.34h-6.1ZM174.38,11.62h-.29v1.34h.03l1.26-.04c.08,0,.13,0,.15.03.01.02.02.07.02.14l-.04,1.16v1.32l.04,1.15c0,.1-.06.15-.17.15l-1.26-.03h-1.33l-1.26.03c-.11,0-.16-.05-.16-.15l.03-1.15v-1.32l-.03-1.16c0-.08,0-.13.03-.15s.06-.02.13-.02l1.27.04v-1.34h-.23l-1.59.04c-.08,0-.12,0-.14-.03-.02-.02-.02-.07-.02-.14v-.92c0-.08,0-.12.03-.14s.06-.02.13-.02l1.59.03h.23v-.12c0-.73-.03-1.27-.09-1.63.48.01.92.04,1.32.09.14.02.21.07.21.15,0,.03-.01.07-.03.12-.03.06-.04.11-.05.13-.05.2-.07.57-.07,1.12v.14h.29l1.58-.03c.08,0,.12,0,.14.03.01.02.02.06.02.13v.92c0,.08,0,.13-.03.15-.02.01-.06.02-.13.02l-1.58-.04ZM174.31,15.7v-1.63h-1.69v1.63h1.69Z"/>
        <path class="cls-2" d="M182.91,18.03c.71.09,1.19.13,1.44.13s.41-.07.51-.21c.09-.13.16-.36.21-.69.12-.75.18-1.64.18-2.65h-1.96c-.32,1.85-1.06,3.42-2.23,4.71-.13.15-.23.23-.29.23-.05,0-.14-.1-.26-.29-.23-.37-.5-.68-.81-.92.9-.83,1.51-1.77,1.85-2.84.29-.91.45-2.17.49-3.77-.42,0-.8.01-1.14.02-.22,0-.33,0-.34,0-.09,0-.14,0-.16-.03-.01-.02-.02-.07-.02-.14l.03-1.33v-1.94l-.03-1.33c0-.08.01-.13.04-.15.02-.01.07-.02.15-.02l1.75.03h2.5l1.75-.03c.08,0,.13,0,.15.03s.02.07.02.14l-.03,1.33v1.94l.03,1.33c0,.08,0,.13-.03.15s-.07.02-.14.02l-1.75-.03h-1.27c-.01.54-.04,1.05-.09,1.53h2l1.15-.03c.13,0,.2.06.2.18-.03.52-.04.96-.04,1.33-.02,1.6-.11,2.74-.29,3.42-.24.99-.88,1.49-1.9,1.49-.3,0-.55,0-.74-.03-.22-.02-.35-.06-.39-.1-.04-.04-.08-.17-.12-.38-.07-.43-.21-.8-.42-1.11ZM181.93,8.17v2.29h3.29v-2.29h-3.29ZM188.12,7.47c.56.01,1.06.05,1.52.1.15.01.23.07.23.17,0,.04-.01.1-.04.18-.03.08-.05.13-.06.15-.03.14-.04.68-.04,1.6v4.14l.03,1.98c0,.07,0,.12-.03.14-.02.02-.07.03-.15.03h-1.22c-.08,0-.13,0-.15-.03s-.02-.06-.02-.13l.03-1.98v-4.12c0-.93-.04-1.67-.1-2.22ZM189.04,18.05c.44.05.99.07,1.66.07.26,0,.44-.04.53-.13.09-.08.13-.23.13-.45v-9.02c0-.8-.04-1.52-.12-2.15.62.02,1.15.06,1.62.11.16.01.24.07.24.16,0,.05-.04.15-.11.31-.06.16-.09.67-.09,1.53v6.34l.04,2.98c0,.72-.18,1.21-.54,1.47-.21.15-.49.25-.83.3-.31.04-.8.07-1.49.07-.24,0-.39-.02-.43-.07-.04-.04-.09-.18-.14-.41-.11-.47-.27-.84-.48-1.12Z"/>
        <path class="cls-2" d="M198.13,19.8h-1.3c-.07,0-.12,0-.14-.03-.02-.02-.03-.06-.03-.14l.03-4.89v-2.77l-.03-3.73c0-.08,0-.12.03-.14s.07-.02.14-.02l2.08.03h.97c.17-.34.36-.81.56-1.41.06-.16.11-.4.16-.71.41.04.95.11,1.6.23.14.03.21.1.21.2,0,.06-.04.13-.12.21-.11.13-.19.25-.23.36-.18.43-.35.81-.52,1.13h2.92l2.09-.03c.08,0,.12,0,.14.03.01.02.02.06.02.13l-.03,3.32v3.16l.03,4.88c0,.08,0,.13-.03.15-.02.01-.06.02-.13.02h-1.33c-.08,0-.13-.01-.15-.04-.01-.01-.02-.06-.02-.13v-.67h-6.77v.7c0,.08-.01.13-.03.15-.02.01-.07.02-.14.02ZM198.3,9.56v1.63h6.77v-1.63h-6.77ZM198.3,14.27h6.77v-1.67h-6.77v1.67ZM198.3,17.49h6.77v-1.8h-6.77v1.8Z"/>
        <path class="cls-2" d="M214.19,9.79c0,.14-.01.44-.01.9,0,.09,0,.15,0,.19,0,.14-.03.23-.09.29-.03.02-.14.09-.34.19l-.14.07c.17,0,.4.01.67.01.21,0,.35-.04.42-.11.06-.06.09-.17.09-.31v-3.11h-2.76l-1.68.03c-.08,0-.13-.01-.15-.04-.01-.02-.02-.07-.02-.14v-1.03c0-.08,0-.13.03-.15.02-.01.07-.02.14-.02l1.68.03h2.34l1.71-.03c.08,0,.13.01.15.04.01.02.02.07.02.15l-.03,1.11v1.96l.04,1.55c0,.47-.11.81-.33,1.02.69.11,1.18.2,1.46.29.13.05.2.11.2.2,0,.09-.05.17-.16.26-.09.06-.17.16-.24.29l-.1.17h2.15l2.08-.03c.08,0,.13.01.15.04.01.02.02.07.02.15l-.03,1.67v1.55l.03,2.73c0,.08-.01.13-.03.15-.02.01-.06.02-.13.02h-1.2c-.09,0-.14,0-.15-.03-.02-.02-.03-.07-.03-.14v-.39h-6.42v.46c0,.08,0,.13-.03.15s-.07.02-.14.02h-1.23c-.08,0-.12,0-.14-.03s-.02-.07-.02-.14l.03-2.78v-1.36l-.03-1.88c0-.09,0-.14.03-.16.02-.01.06-.02.13-.02l2.09.03h1.28s.06-.14.12-.3c.11-.27.19-.55.24-.84-.25.2-.84.31-1.77.31-.09,0-.14,0-.17,0-.13,0-.21-.03-.25-.09-.03-.04-.07-.16-.11-.35-.08-.34-.17-.6-.26-.77-.64.33-1.28.62-1.93.89-.25.1-.4.18-.46.24-.09.07-.16.1-.23.1-.09,0-.16-.06-.2-.18-.09-.23-.21-.66-.37-1.29.34-.05.73-.15,1.16-.29.89-.28,1.86-.7,2.91-1.25ZM211.67,8.13c.6.24,1.17.57,1.73.97.07.05.1.1.1.14,0,.03-.04.08-.11.15l-.69.62c-.1.09-.16.14-.19.14s-.07-.02-.12-.07c-.46-.38-1.01-.73-1.65-1.05-.06-.03-.09-.06-.09-.09s.04-.08.11-.15l.62-.6c.07-.06.13-.1.18-.1.03,0,.07.01.12.04ZM213.54,14.82v.98h6.42v-.98h-6.42ZM213.54,18.08h6.42v-1.11h-6.42v1.11ZM220.79,9.7c-.01.2-.02.41-.02.63,0,.09,0,.19,0,.29v.16c0,.15-.03.25-.09.31-.04.03-.15.09-.34.19l-.27.13c.2.02.46.03.79.03.22,0,.38-.04.46-.11.06-.06.1-.17.1-.31v-3.11h-2.75l-1.68.03c-.08,0-.13-.01-.15-.04-.02-.02-.02-.07-.02-.14v-1.03c0-.08.01-.13.04-.15.02-.01.06-.02.13-.02l1.68.03h2.31l1.72-.03c.08,0,.13.01.15.04.01.02.02.07.02.15l-.03,1.11v1.96l.03,1.55c0,.5-.12.85-.37,1.06-.26.2-.86.31-1.8.33-.09,0-.15,0-.18,0-.13,0-.21-.03-.24-.08-.02-.04-.06-.14-.09-.31-.06-.31-.16-.6-.3-.86-.35.16-.91.41-1.68.73-.32.13-.48.2-.5.21-.01,0-.06.03-.15.08-.04.02-.08.04-.11.04-.08,0-.15-.05-.19-.16-.14-.45-.26-.88-.34-1.28.48-.07.88-.16,1.19-.26.72-.23,1.61-.62,2.67-1.16ZM218.21,8.13c.58.26,1.15.61,1.71,1.03.07.05.1.1.1.12,0,.04-.04.09-.11.15l-.73.63c-.09.08-.15.12-.18.12s-.07-.02-.12-.06c-.44-.41-.99-.78-1.63-1.12-.07-.04-.11-.07-.11-.1s.04-.08.11-.15l.63-.54c.07-.07.14-.1.2-.1.03,0,.07,0,.13.03Z"/>
        <path class="cls-2" d="M233.35,13.23c1.4,1.04,2.78,2.24,4.15,3.63.08.08.12.15.12.21s-.04.14-.1.22c-.32.39-.65.73-1,1.03-.06.06-.12.09-.18.09s-.13-.04-.21-.12c-1.13-1.32-2.43-2.56-3.9-3.72-1.57,1.64-3.25,2.96-5.04,3.96-.18.08-.3.12-.34.12-.1,0-.18-.04-.26-.13-.28-.35-.7-.67-1.26-.98,1.21-.61,2.24-1.24,3.11-1.89.7-.53,1.43-1.17,2.17-1.93,1.07-1.11,2.01-2.36,2.82-3.76h-3.87c-.77.01-1.56.05-2.37.11-.1,0-.16-.08-.2-.26-.09-.38-.13-.9-.13-1.56.54.04,1.38.06,2.54.06h4.12c.52,0,.87-.05,1.03-.14.05-.04.11-.06.17-.06.05,0,.13.04.26.12.32.25.65.61.97,1.05.05.08.07.15.07.19,0,.1-.07.2-.2.3-.21.18-.39.4-.55.67-.56.95-1.2,1.89-1.92,2.81Z"/>
        <path class="cls-2" d="M240.11,14.03c.52-.33,1.03-.75,1.53-1.27.76-.77,1.48-1.53,2.17-2.26.32-.34.57-.56.76-.66.17-.09.37-.14.59-.14.25,0,.47.05.66.14.18.09.39.25.64.48,1.82,1.62,4.06,3.25,6.72,4.88.12.05.18.13.18.23,0,.05-.02.11-.05.17-.25.52-.51.95-.78,1.3-.08.11-.15.17-.23.17-.05,0-.11-.02-.16-.06-2.27-1.57-4.49-3.32-6.65-5.24-.08-.07-.16-.1-.23-.1-.08,0-.16.04-.24.12-.29.3-.69.73-1.19,1.31-.57.64-.98,1.12-1.25,1.41-.27.29-.47.55-.6.76-.08.13-.17.2-.27.2-.07,0-.14-.03-.21-.1-.35-.29-.82-.73-1.39-1.33ZM250.63,7.68c.48,0,.88.17,1.2.52.28.31.42.67.42,1.08,0,.48-.18.88-.53,1.19-.31.27-.67.41-1.08.41-.49,0-.89-.18-1.21-.53-.28-.3-.42-.66-.42-1.08,0-.49.18-.9.54-1.21.3-.26.67-.4,1.09-.4ZM250.63,8.4c-.28,0-.5.1-.67.29-.15.16-.22.36-.22.6,0,.27.1.5.29.67.17.15.37.22.61.22.27,0,.5-.1.67-.29.15-.16.22-.36.22-.6,0-.27-.09-.5-.29-.67-.17-.15-.37-.22-.6-.22Z"/>
        <path class="cls-2" d="M255.77,12.14c.78.12,1.86.18,3.24.18h4.83c.47,0,1.08,0,1.83-.02.95-.01,1.49-.02,1.62-.03h.07c.13,0,.2.07.2.21.01.23.02.47.02.71s0,.47-.02.7c0,.15-.07.23-.21.23h-.06c-1.5-.02-2.62-.03-3.35-.03h-5.4l-2.2.18c-.19,0-.31-.1-.34-.31-.09-.4-.16-1-.23-1.82Z"/>
        <path class="cls-2" d="M278.35,13.23c1.4,1.04,2.78,2.24,4.15,3.63.08.08.12.15.12.21s-.04.14-.1.22c-.32.39-.65.73-1,1.03-.06.06-.12.09-.18.09s-.13-.04-.21-.12c-1.13-1.32-2.43-2.56-3.9-3.72-1.57,1.64-3.25,2.96-5.04,3.96-.18.08-.3.12-.34.12-.1,0-.18-.04-.26-.13-.28-.35-.7-.67-1.26-.98,1.21-.61,2.24-1.24,3.11-1.89.7-.53,1.43-1.17,2.17-1.93,1.07-1.11,2.01-2.36,2.82-3.76h-3.87c-.77.01-1.56.05-2.37.11-.1,0-.16-.08-.2-.26-.09-.38-.13-.9-.13-1.56.54.04,1.38.06,2.54.06h4.12c.52,0,.87-.05,1.03-.14.05-.04.11-.06.17-.06.05,0,.13.04.26.12.32.25.65.61.97,1.05.05.08.07.15.07.19,0,.1-.07.2-.2.3-.21.18-.39.4-.55.67-.56.95-1.2,1.89-1.92,2.81Z"/>
        <path class="cls-2" d="M289.01,10.33c.15-.54.3-1.17.45-1.89.1-.6.15-1.15.15-1.66.73.16,1.33.32,1.79.49.16.05.24.15.24.3,0,.08-.04.16-.1.23-.12.16-.22.35-.3.57-.07.22-.17.54-.29.95-.11.38-.2.66-.26.85.37-.04.77-.07,1.2-.07,1.43,0,2.15.96,2.15,2.89,0,.9-.08,1.81-.24,2.72-.15.83-.34,1.5-.57,1.98-.42.94-1.1,1.41-2.02,1.41-.71,0-1.23-.08-1.56-.23-.18-.07-.27-.21-.27-.42-.06-.62-.15-1.08-.29-1.39.56.26,1.13.39,1.73.39.26,0,.47-.06.61-.19.12-.12.24-.32.35-.61.39-1.04.59-2.28.59-3.74,0-.56-.07-.93-.21-1.12-.13-.17-.34-.26-.65-.26-.33,0-.75.03-1.26.1-.98,2.86-1.99,5.21-3.02,7.05-.05.12-.13.18-.22.18-.05,0-.11-.02-.17-.05-.46-.22-.81-.44-1.04-.66-.08-.08-.12-.15-.12-.22,0-.06.02-.11.06-.17,1.19-2.06,2.1-4.02,2.75-5.88-.34.05-.83.14-1.46.26-.27.05-.54.13-.83.24-.07.02-.13.04-.18.04-.14,0-.24-.08-.3-.23-.14-.37-.3-.89-.46-1.55.55,0,1.21-.03,1.98-.1.54-.05,1.13-.13,1.77-.23ZM294.18,10.22c.56-.38.96-.64,1.21-.77.04-.02.07-.03.1-.03.05,0,.12.03.18.1,1.14,1.07,1.97,2.29,2.49,3.65.02.05.04.1.04.13,0,.06-.03.11-.1.17-.28.26-.66.51-1.13.75-.05.03-.11.04-.15.04-.1,0-.16-.05-.19-.16-.62-1.63-1.43-2.92-2.45-3.88ZM295,7.91l.8-.56s.06-.04.09-.04c.04,0,.08.02.13.07.51.4.99.93,1.43,1.6.03.04.04.08.04.11,0,.04-.03.09-.09.13l-.63.46s-.08.05-.12.05c-.05,0-.09-.03-.14-.1-.46-.71-.97-1.29-1.52-1.74ZM296.39,6.91l.75-.54s.07-.04.1-.04c.03,0,.08.02.13.07.57.44,1.04.96,1.42,1.55.03.04.04.08.04.12,0,.05-.03.1-.09.15l-.6.47s-.08.05-.12.05c-.05,0-.1-.03-.14-.1-.42-.67-.92-1.25-1.49-1.73Z"/>
        <path class="cls-2" d="M309.62,15.47v-4.91h-5.24c-.98,0-1.73.03-2.25.09-.15,0-.23-.09-.23-.26-.05-.45-.07-.98-.07-1.6.7.07,1.53.1,2.5.1h4.45c.52,0,1.31-.02,2.37-.06.2,0,.3.07.3.21v.04l-.03,2.37v3.59c0,.71.02,1.61.06,2.71,0,.13-.09.2-.27.21-.21.01-.42.02-.66.02s-.45,0-.66-.02c-.13,0-.21-.03-.24-.06s-.04-.1-.04-.2v-.6h-5.16c-.39,0-.86,0-1.4.03-.6.02-.95.03-1.06.03-.13,0-.2-.08-.21-.23-.05-.43-.07-.95-.07-1.55.78.05,1.7.07,2.76.07h5.14Z"/>
        <path class="cls-2" d="M322.18,11.66c.52-.79,1-1.68,1.44-2.66.28-.67.47-1.29.57-1.85.89.32,1.52.64,1.89.94.1.07.15.16.15.26,0,.13-.06.24-.17.33-.16.14-.38.47-.67,1-.68,1.32-1.25,2.31-1.71,2.97.68.53,1.42,1.21,2.21,2.04.06.07.09.14.09.21,0,.04-.03.11-.07.19-.2.26-.5.62-.92,1.07-.05.07-.12.1-.18.1s-.13-.04-.21-.13c-.62-.74-1.28-1.4-1.96-1.98-1.6,2.01-3.31,3.57-5.13,4.69-.13.08-.24.12-.34.12-.11,0-.2-.03-.29-.1-.52-.43-.97-.71-1.35-.83,1.26-.74,2.35-1.51,3.26-2.32.82-.73,1.62-1.6,2.4-2.6-.92-.69-1.9-1.28-2.92-1.79.55-.7.88-1.11.99-1.23.05-.05.1-.07.15-.07.04,0,.1.02.18.06.82.41,1.69.94,2.61,1.58Z"/>
        <path class="cls-2" d="M331.2,9.37c.25-.3.6-.69,1.05-1.17.06-.08.13-.12.21-.12.04,0,.11.02.2.07.93.5,1.89,1.21,2.86,2.13.09.09.13.16.13.21s-.03.12-.09.19c-.33.43-.64.81-.93,1.13-.08.08-.14.12-.18.12-.05,0-.11-.04-.19-.12-.91-.94-1.93-1.76-3.06-2.45ZM331.53,16.86c.8-.22,1.48-.47,2.03-.75.97-.5,1.77-.96,2.41-1.38.56-.37,1.2-.83,1.9-1.41,1-.82,1.8-1.52,2.39-2.11.56-.57,1.13-1.22,1.72-1.97.08.66.22,1.24.42,1.75.05.12.07.21.07.29,0,.11-.08.26-.24.45-.88,1.02-2.02,2.08-3.45,3.18-1.24.97-2.75,1.95-4.53,2.94-.53.32-.86.55-1,.7-.1.1-.19.15-.27.15s-.16-.05-.26-.16c-.46-.52-.86-1.08-1.2-1.67Z"/>
        <path class="cls-2" d="M351.2,11.01c1.88.59,3.47,1.27,4.77,2.04.13.07.2.15.2.26,0,.04,0,.08-.03.13-.19.47-.4.9-.64,1.3-.06.11-.13.17-.2.17-.06,0-.11-.02-.17-.07-1.41-.9-2.72-1.55-3.94-1.93v3.32c0,.55.02,1.53.06,2.94v.04c0,.12-.09.18-.27.18-.23.01-.45.02-.67.02s-.45,0-.67-.02c-.19,0-.29-.08-.29-.23.04-.97.06-1.95.06-2.95v-7.38c0-.91-.05-1.65-.15-2.22.88.06,1.5.14,1.88.24.19.04.29.12.29.26,0,.08-.04.2-.12.34-.07.13-.1.6-.1,1.41v2.15Z"/>
        <path class="cls-2" d="M359.74,12.11c1.26-1.25,2.28-2.9,3.05-4.94.1-.27.19-.63.27-1.08.79.22,1.28.36,1.45.43.16.07.24.14.24.23,0,.09-.05.18-.15.27-.1.08-.21.29-.33.63-.26.68-.56,1.34-.88,1.98v7.81l.03,2.28c0,.08,0,.13-.03.15-.02.01-.07.02-.14.02h-1.28c-.08,0-.12,0-.14-.03s-.02-.07-.02-.14l.03-2.28v-3.45c0-.38,0-1.01.03-1.89-.26.38-.64.83-1.13,1.38-.1.12-.19.18-.26.18-.09,0-.15-.09-.19-.26-.13-.56-.31-.99-.56-1.3ZM363.79,11.95c.62-.65,1.19-1.47,1.74-2.44.44-.79.78-1.53,1.01-2.24.13-.4.21-.78.24-1.14.66.13,1.16.24,1.48.34.19.04.29.12.29.22,0,.11-.05.21-.14.29-.13.11-.26.36-.39.73-.16.42-.31.8-.46,1.11h3.92l1.85-.03c.09,0,.14,0,.16.03.02.02.02.07.02.15v1.1c0,.08,0,.13-.03.15-.02.01-.08.02-.15.02l-1.85-.03h-2.45v1.79h1.92l1.66-.03c.08,0,.13,0,.15.03.02.02.02.06.02.13v1.1c0,.07,0,.12-.03.14-.02.02-.07.03-.14.03l-1.66-.03h-1.92v1.84h1.92l1.69-.03c.11,0,.17.05.17.15v1.11c0,.08,0,.13-.03.15-.02.02-.07.03-.14.03l-1.69-.03h-1.92v.83l.03,2.34c0,.08-.01.13-.04.15-.02.01-.06.02-.13.02h-1.27c-.08,0-.12-.01-.14-.04-.01-.01-.02-.06-.02-.13l.03-2.34v-7.19h-.6c-.59,1.06-1.19,1.97-1.8,2.71-.13.16-.23.24-.29.24-.07,0-.17-.1-.29-.3-.21-.37-.45-.67-.72-.91Z"/>
        <path class="cls-2" d="M387.38,16.08c.15.18.43.37.84.58.18.09.28.16.32.2.05.05.07.11.07.19,0,.05-.01.15-.04.31-.23,1.56-.8,2.34-1.7,2.34-1.01,0-1.93-.78-2.78-2.35-.84.92-1.74,1.66-2.71,2.23-.19.11-.31.17-.36.17-.07,0-.18-.1-.32-.31-.21-.3-.47-.56-.77-.79,1.31-.69,2.47-1.63,3.48-2.82-.6-1.52-.96-3.44-1.09-5.74h-4.62v1.93h2.16l1.27-.03c.12,0,.18.07.18.2,0,.15-.02.45-.04.92-.01.32-.03.56-.04.73-.08,1.4-.2,2.33-.34,2.79-.29.83-.87,1.25-1.74,1.25-.33,0-.59,0-.77-.03-.18-.01-.29-.05-.33-.1-.03-.05-.07-.18-.1-.4-.08-.45-.2-.81-.36-1.08.48.08.89.12,1.23.12.38,0,.62-.18.72-.54.1-.33.18-1.13.23-2.41h-2.1c-.04.99-.13,1.87-.27,2.63-.23,1.33-.62,2.5-1.17,3.51-.1.19-.19.29-.25.29-.07,0-.17-.08-.3-.24-.32-.37-.63-.65-.93-.84.55-.81.94-1.92,1.17-3.32.14-.96.21-2.17.21-3.63l-.03-3.01c0-.09.01-.14.04-.16.02-.01.07-.02.15-.02l2.01.03h3.99v-.31c-.01-.94-.06-1.64-.12-2.12.85.04,1.39.08,1.62.11.15.01.23.07.23.18,0,.07-.03.16-.07.29-.05.16-.08.5-.08,1.04,0,.17,0,.32,0,.46v.36h2.25l1.99-.03c.08,0,.13.01.15.04.01.02.02.07.02.14v1.15c0,.08,0,.12-.03.14s-.07.02-.14.02l-1.99-.03h-2.21c.07,1.6.27,3.01.62,4.24.36-.59.66-1.17.9-1.76.2-.53.33-.99.4-1.38.49.14.96.31,1.39.53.15.07.23.15.23.24,0,.05-.07.15-.21.31-.09.09-.21.33-.37.74-.49,1.11-1.06,2.13-1.71,3.04.28.6.59,1.07.92,1.44.27.29.5.44.68.44s.33-.15.42-.46c.08-.28.15-.74.19-1.38ZM385.99,6.34c.52.4.95.82,1.29,1.26.04.05.06.1.06.13,0,.05-.04.1-.13.15l-.72.54c-.1.07-.17.1-.19.1-.03,0-.07-.03-.12-.1-.3-.46-.7-.9-1.22-1.32-.06-.06-.09-.1-.09-.14,0-.02.04-.07.12-.13l.69-.48c.08-.05.14-.08.18-.08.03,0,.08.02.14.07Z"/>
        <path class="cls-2" d="M389.74,14.67c2.39-.78,4.4-1.65,6.04-2.61h-3.73l-1.86.03c-.08,0-.12,0-.14-.03s-.02-.06-.02-.13v-1.08c0-.1.05-.15.16-.15l1.86.03h3.19v-1.44h-1.37l-1.9.03c-.08,0-.13,0-.15-.03-.02-.02-.02-.06-.02-.13v-1.07c0-.08,0-.12.03-.14s.07-.02.14-.02l1.9.03h1.37v-.21c0-.66-.04-1.18-.12-1.55.62.02,1.16.06,1.62.11.16.01.24.06.24.15s-.02.18-.07.3c-.07.15-.11.5-.11,1.03v.17h.45l1.89-.03c.09,0,.14,0,.15.03.02.02.03.06.03.13v1.14c.38-.38.73-.79,1.08-1.22.26-.32.49-.69.67-1.11.52.25.95.51,1.29.75.12.08.18.17.18.27,0,.08-.06.15-.17.21-.17.08-.38.26-.62.56-.73.82-1.42,1.49-2.05,2.04h1.69l1.88-.03c.1,0,.15.05.15.15v1.08c0,.11-.05.16-.15.16l-1.88-.03h-3.22c-.61.42-1.21.82-1.82,1.19h2.92l2.01-.03c.08,0,.13.01.15.04.01.02.02.07.02.15l-.03,2.02v1.5l.03,2.74c0,.07-.01.12-.04.13-.02.01-.07.02-.14.02h-1.25c-.11,0-.17-.05-.17-.15v-.48h-5.02v.54c0,.08-.01.12-.04.14-.01.01-.06.02-.13.02h-1.25c-.08,0-.13,0-.15-.03s-.02-.06-.02-.13l.03-2.82v-2.06c-.99.45-1.74.77-2.23.97-.2.07-.31.1-.33.1-.08,0-.19-.12-.33-.37-.19-.35-.41-.64-.66-.87ZM399.86,14.49h-5.02v1.1h5.02v-1.1ZM394.84,17.94h5.02v-1.14h-5.02v1.14ZM399.13,9.32l-1.89-.03h-.45v1.44h.84c.57-.43,1.1-.9,1.58-1.41h-.09Z"/>
        <path class="cls-2" d="M413.67,6.01c-1.02,1.16-1.73,2.35-2.15,3.59-.34,1.02-.51,2.16-.51,3.42,0,1.45.23,2.74.68,3.88.42,1.06,1.08,2.1,1.98,3.12l-.45.42c-1.32-1.17-2.26-2.4-2.83-3.7-.49-1.12-.74-2.36-.74-3.73,0-1.54.32-2.94.97-4.2.58-1.11,1.45-2.19,2.59-3.22l.45.42Z"/>
        <path class="cls-2" d="M431.94,18.12c-.3.34-.54.75-.7,1.24-.1.26-.2.39-.3.39-.06,0-.18-.02-.35-.07-2.06-.72-3.85-1.71-5.35-2.97-1.48,1.24-3.26,2.22-5.35,2.94-.22.06-.34.09-.36.09-.09,0-.19-.12-.29-.37-.15-.42-.38-.8-.67-1.11,2.31-.71,4.15-1.59,5.49-2.66-1.23-1.33-2.2-3.14-2.92-5.44h-.29l-1.9.03c-.08,0-.12,0-.14-.03-.02-.02-.02-.06-.02-.13v-1.22c0-.08,0-.12.03-.14s.06-.02.13-.02l1.9.03h3.45v-.72c0-.74-.04-1.31-.12-1.73.75.02,1.31.06,1.66.11.16,0,.24.05.24.16,0,.06-.03.16-.09.3-.06.1-.09.48-.09,1.13v.75h3.7l1.9-.03c.09,0,.14,0,.16.03.01.02.02.06.02.13v1.22c0,.08-.01.12-.03.14-.03.01-.08.02-.15.02l-1.9-.03h-.34c-.62,2.25-1.56,4.06-2.82,5.43,1.43,1.09,3.26,1.94,5.49,2.55ZM427.51,10.14h-4.73c.56,1.8,1.38,3.26,2.48,4.38,1.01-1.05,1.76-2.51,2.26-4.38Z"/>
        <path class="cls-2" d="M435.58,15.93l-1.88.03c-.08,0-.12,0-.14-.03s-.02-.06-.02-.13v-1.16c0-.08,0-.13.03-.15.02-.01.06-.02.13-.02l1.88.03h3.95c-.02-.56-.05-.99-.09-1.27l.87.09c.45-.29.91-.65,1.36-1.08h-3.24l-1.94.03c-.11,0-.16-.05-.16-.15v-1.05c0-.08,0-.12.03-.14s.06-.02.13-.02l1.94.03h4.06c.2,0,.31,0,.36-.03.1-.04.17-.06.19-.06.1,0,.32.16.65.48.28.29.42.51.42.64,0,.12-.06.2-.18.24-.21.11-.45.27-.72.5-.71.6-1.41,1.12-2.1,1.55v.24h3.75l1.88-.03c.08,0,.13,0,.15.03.02.02.02.07.02.14v1.16c0,.07,0,.12-.03.14-.02.02-.07.03-.14.03l-1.88-.03h-3.75v.97l.03,1.3c0,.6-.16,1.01-.48,1.23-.21.13-.49.22-.83.26-.32.04-.81.07-1.47.07-.24,0-.39-.02-.43-.06-.04-.04-.1-.16-.15-.37-.11-.42-.26-.79-.45-1.1.6.06,1.13.09,1.6.09.23,0,.39-.04.47-.12.08-.08.12-.21.12-.4v-1.88h-3.95ZM435.62,6.66l.9-.33c.07-.03.12-.04.16-.04.05,0,.11.04.17.12.39.5.72,1.02,1,1.56.03.06.04.1.04.12,0,.03-.06.07-.18.12l-.99.36h3.12c-.22-.65-.51-1.27-.86-1.88-.03-.05-.04-.09-.04-.11,0-.03.06-.07.18-.12l.99-.3c.06-.02.11-.03.14-.03.06,0,.11.04.16.12.32.53.6,1.11.83,1.74.01.05.02.08.02.1,0,.04-.06.08-.19.12l-.97.34h2.31c.22-.38.46-.88.73-1.52.09-.22.16-.49.23-.79.53.1,1.02.25,1.48.45.14.06.21.14.21.23,0,.08-.05.16-.15.23-.1.06-.2.18-.29.34-.21.39-.42.74-.62,1.06h.39l1.98-.03c.09,0,.14,0,.16.03.01.02.02.06.02.13l-.03.81v.69l.03,1.68c0,.09-.01.14-.04.16-.02.01-.07.02-.15.02h-1.18c-.08,0-.13-.01-.15-.04-.02-.02-.02-.07-.02-.15v-1.98h-9.6v1.98c0,.08,0,.13-.03.15s-.06.02-.13.02h-1.19c-.09,0-.14,0-.16-.03-.02-.02-.02-.07-.02-.14l.03-1.69v-.56l-.03-.93c0-.08.01-.12.04-.14.02-.01.07-.02.15-.02l1.98.03h.4c-.24-.58-.56-1.14-.96-1.68-.04-.05-.05-.09-.05-.12,0-.04.05-.08.16-.11Z"/>
        <path class="cls-2" d="M450.57,13.03l-1.93.03c-.1,0-.15-.05-.15-.16v-1.08c0-.11.05-.16.15-.16l1.93.03h2.17c.21-.54.39-1.11.55-1.71.05-.19.09-.43.12-.75.55.1.99.2,1.3.3.15.05.23.11.23.2,0,.08-.04.16-.12.23-.07.07-.14.19-.2.35-.15.46-.32.92-.51,1.38l1.69-.03c.08,0,.13,0,.15.03.01.02.02.06.02.13v1.08c0,.08,0,.12-.03.14s-.07.02-.14.02l-1.9-.03h-3.34ZM450.83,9l-1.84.03c-.08,0-.13,0-.15-.03s-.02-.06-.02-.13v-1.05c0-.08,0-.13.03-.15.02-.01.07-.02.14-.02l1.84.03h.68v-.27c0-.56-.03-.97-.09-1.25.32,0,.82.04,1.52.1.16.02.24.07.24.14,0,.06-.04.16-.1.3-.04.09-.07.33-.07.72v.26h.77l1.83-.03c.08,0,.12,0,.14.03s.02.07.02.15v1.05c0,.08,0,.12-.03.14s-.06.02-.13.02l-1.83-.03h-2.94ZM450.72,19.72h-1.16c-.11,0-.17-.05-.17-.15l.03-2.53v-1.08l-.03-1.68c0-.08,0-.12.03-.14.02-.01.07-.02.14-.02l1.66.03h2.16l1.66-.03c.09,0,.14,0,.16.03.02.02.02.06.02.13l-.03,1.47v1.24l.03,2.52c0,.09-.01.14-.04.16-.02.01-.07.02-.15.02h-1.15c-.08,0-.13-.01-.15-.04-.01-.02-.02-.07-.02-.15v-.69h-2.85v.75c0,.1-.05.15-.16.15ZM449.83,9.67s-.03-.09-.03-.11c0-.04.07-.08.2-.12l.82-.22c.06-.01.11-.02.14-.02.06,0,.11.05.15.14.22.58.39,1.13.48,1.65,0,.04,0,.07,0,.09,0,.05-.06.1-.19.14l-.89.26c-.07.02-.12.03-.15.03-.06,0-.1-.06-.12-.18-.11-.66-.25-1.21-.42-1.65ZM450.88,15.45v2.05h2.85v-2.05h-2.85ZM458.41,16.52h.15c1.29,0,1.93-.41,1.93-1.23,0-.53-.14-1.02-.43-1.48-.28-.45-.78-1.01-1.5-1.67.57-1.19,1.09-2.5,1.54-3.93h-2.1v8.4l.03,3.13c0,.08,0,.12-.03.14s-.06.02-.13.02h-1.21c-.08,0-.13,0-.15-.03-.01-.02-.02-.06-.02-.13l.03-3.12v-6.48l-.03-3.16c0-.08.01-.13.04-.15.02-.01.07-.02.15-.02l1.33.03h2.4c.19,0,.31-.01.37-.04.09-.03.17-.04.23-.04.12,0,.33.15.63.45.24.27.36.48.36.61,0,.09-.05.18-.14.27-.09.06-.19.25-.32.56-.45,1.19-.9,2.28-1.36,3.25.77.69,1.28,1.33,1.54,1.92.2.44.29.97.29,1.59,0,1.54-.88,2.39-2.64,2.56-.13,0-.21.01-.25.01-.11,0-.18-.03-.21-.1-.02-.05-.04-.17-.07-.37-.07-.42-.22-.75-.43-.99Z"/>
        <path class="cls-2" d="M464.72,19.42c-.11.2-.19.3-.26.3-.05,0-.15-.08-.3-.24-.3-.35-.63-.61-.97-.8.53-.76.88-1.74,1.05-2.96.12-.82.18-1.95.18-3.4l-.03-2.5c0-.08,0-.13.03-.15s.06-.02.13-.02l1.52.03h1.88l1.5-.03c.08,0,.13,0,.15.03.01.02.02.07.02.14l-.03,1.39v2.29l.03,1.36c0,.09-.01.14-.04.16-.01.01-.06.02-.13.02h-1.16c-.08,0-.12-.01-.14-.04-.02-.02-.02-.07-.02-.15v-.4h-2.25c-.11,2.01-.49,3.66-1.16,4.95ZM469.86,6.91c.08,0,.12,0,.14.03s.02.07.02.14v1.09c0,.08-.01.13-.03.15-.02.01-.06.02-.13.02l-1.74-.03h-2.52l-1.74.03c-.08,0-.13-.01-.15-.04-.01-.02-.02-.07-.02-.14v-1.09c0-.08,0-.13.03-.15.02-.01.07-.02.14-.02l1.74.03h2.52l1.74-.03ZM468.13,11.02h-2.2v2.12h2.2v-2.12ZM468.24,18.61c.98-.82,1.65-1.81,2.01-2.99.28-.94.42-2.23.42-3.88v-1.83c0-.87-.04-1.69-.11-2.44.56.09,1.03.21,1.43.36,1.07-.25,2.04-.61,2.91-1.07.25-.12.52-.29.8-.52.36.29.69.65.99,1.06.08.09.12.19.12.3,0,.09-.08.15-.24.17-.11,0-.3.07-.57.18-1.37.56-2.64.98-3.82,1.25v1.85h2.74l2.06-.03c.08,0,.12,0,.14.03.01.02.02.06.02.13v1.11c0,.08,0,.12-.03.14s-.06.02-.13.02c-.02,0-.09,0-.21,0-.42,0-.88-.02-1.39-.02v5.44l.03,1.88c0,.1-.05.15-.15.15h-1.23c-.1,0-.15-.05-.15-.15v-1.88s.01-5.44.01-5.44h-1.71c-.03,1.65-.21,2.97-.53,3.98-.36,1.13-.98,2.14-1.85,3.04-.15.16-.25.24-.31.24-.06,0-.16-.09-.3-.26-.28-.32-.59-.59-.94-.81Z"/>
        <path class="cls-2" d="M478.12,18.54c.63-.88,1.07-2.06,1.3-3.54.2-1.28.3-2.92.3-4.92l-.03-3.3c0-.08.01-.13.04-.15.02-.01.07-.02.15-.02l2.05.03h7.13l2.05-.03c.09,0,.14,0,.16.03.01.02.02.07.02.14l-.03.97v.97l.03.96c0,.09-.01.14-.04.16-.02.01-.07.02-.15.02l-2.05-.03h-7.81v.69c0,1.82-.11,3.46-.33,4.92-.26,1.58-.7,2.88-1.32,3.91-.12.19-.2.29-.24.29-.04,0-.12-.08-.26-.24-.35-.41-.67-.7-.97-.86ZM489.72,8.69v-.84h-8.47v.84h8.47ZM483.79,19.15c-.09,0-.16-.08-.21-.23-.09-.31-.18-.7-.26-1.15.15,0,.3,0,.46,0,.24,0,.61-.02,1.1-.05l.66-.04v-1.1h-2.75v2l.03,1.18c0,.08,0,.13-.03.15-.02.01-.07.02-.14.02h-1.14c-.09,0-.14,0-.16-.03-.01-.02-.02-.07-.02-.14l.03-1.25v-1.63l-.03-1.27c0-.07.01-.12.04-.13.02-.01.07-.02.15-.02l2.1.03h1.92v-.7h-1.1l-1.98.03c-.08,0-.13,0-.15-.03-.01-.02-.02-.06-.02-.13l.03-.79v-.75l-.03-.78c0-.09,0-.14.03-.16.02-.01.07-.02.14-.02l1.98.03h1.1v-.66c-.86.05-1.85.08-2.96.1-.16,0-.26,0-.29-.03-.04-.03-.08-.1-.11-.23-.1-.35-.23-.64-.4-.86h.64c2.6,0,4.66-.11,6.19-.33.35-.05.64-.13.88-.23.31.25.61.52.88.8.09.09.13.17.13.26,0,.09-.08.13-.24.13-.09,0-.17,0-.23,0-.12,0-.23,0-.35.02-.69.11-1.59.2-2.7.29v.75h1.33l1.97-.03c.08,0,.13.01.15.04.01.02.02.07.02.15l-.03.78v.75l.03.79c0,.07,0,.12-.03.14-.02.02-.07.03-.14.03l-1.97-.03h-1.33v.7h2.22l2.1-.03c.11,0,.17.05.17.15l-.03,1.33v.45l.03,1.15c0,.42-.12.73-.36.93-.26.22-.78.33-1.56.33-.19,0-.3-.02-.34-.07-.03-.04-.07-.18-.1-.4-.02-.11-.06-.26-.12-.44l-.27.07c-.1.02-.15.03-.17.03-.03,0-.06-.04-.07-.12l-.13-.49c-1.27.23-2.56.42-3.84.56-.25.03-.41.08-.49.12-.1.06-.17.09-.21.09ZM483.69,13.91h1.85v-.83h-1.85v.83ZM487.86,16.99s-.03-.08-.03-.1c0-.05.06-.09.18-.12l.59-.15s.06-.01.1-.01c.05,0,.1.04.15.12.28.56.51,1.17.67,1.82h.2c.19,0,.29-.13.29-.4v-1.55h-3.05v.94l1.05-.13-.15-.41ZM489.01,13.91v-.83h-2.04v.83h2.04Z"/>
        <path class="cls-2" d="M497.23,5.59c1.31,1.18,2.25,2.41,2.82,3.71.49,1.12.74,2.36.74,3.71,0,1.56-.32,2.96-.97,4.22-.58,1.11-1.44,2.18-2.59,3.21l-.46-.42c1.02-1.16,1.74-2.35,2.15-3.58.34-1.01.51-2.15.51-3.42,0-1.46-.22-2.75-.67-3.88-.42-1.07-1.09-2.11-1.98-3.13l.46-.42Z"/>
        <path class="cls-2" d="M514.71,9.53c-.38,2.78-1,4.93-1.88,6.46-.66,1.15-1.51,1.73-2.56,1.73-.76,0-1.4-.38-1.92-1.14-.49-.72-.73-1.63-.73-2.71,0-1.47.56-2.77,1.69-3.9,1.28-1.28,2.91-1.92,4.88-1.92s3.34.56,4.39,1.67c.88.94,1.32,2.11,1.32,3.53,0,2.71-1.54,4.54-4.62,5.46-.09.02-.16.04-.22.04-.15,0-.29-.1-.42-.31-.21-.34-.56-.65-1.05-.94,1.54-.37,2.67-.88,3.37-1.55.77-.73,1.16-1.71,1.16-2.94,0-1-.35-1.85-1.05-2.53-.63-.63-1.4-.94-2.31-.94h-.06ZM512.96,9.62c-1.07.21-1.92.67-2.56,1.36-.78.88-1.17,1.8-1.17,2.78,0,.69.12,1.24.37,1.66.2.32.41.48.64.48.41,0,.79-.31,1.13-.92.37-.67.7-1.53,1-2.58.27-.95.47-1.88.59-2.79Z"/>
        <path class="cls-2" d="M524.22,13.69l-1.9.03c-.11,0-.17-.05-.17-.15v-1.46c0-.1.06-.15.17-.15l1.9.03h9.04l1.91-.03c.11,0,.16.05.16.15v1.46c0,.1-.05.15-.16.15l-1.91-.03h-9.04Z"/>
        <path class="cls-2" d="M541.12,11.16c.16-.16.34-.37.54-.62h-.04s-.13,0-.37,0c-.26,0-.55-.02-.87-.02v2.29c.6-.21,1.08-.39,1.44-.55-.04.36-.06.7-.06,1.03v.19c0,.15-.03.24-.09.29-.04.04-.15.09-.34.16l-.96.39v.73l.02,3.03c0,.42-.04.74-.11.94-.07.21-.19.37-.37.5-.29.21-.87.31-1.75.31-.24,0-.39-.02-.44-.07-.04-.04-.08-.17-.13-.4-.1-.45-.23-.83-.4-1.14.36.04.79.06,1.29.06.16,0,.27-.03.32-.1s.07-.18.07-.36v-3l-.81.23c-.09.03-.26.11-.49.23-.09.07-.17.1-.24.1-.1,0-.17-.06-.2-.18-.09-.36-.18-.85-.28-1.48.46-.07.92-.17,1.38-.29.18-.04.39-.1.64-.18v-2.78h-.27l-1.49.03c-.08,0-.12,0-.14-.03-.02-.02-.02-.07-.02-.14v-1.14c0-.08,0-.12.03-.14s.06-.02.13-.02l1.49.03h.27v-.74c0-.89-.04-1.6-.12-2.12.6.01,1.12.05,1.57.1.16.01.24.07.24.17,0,.07-.03.17-.1.31-.06.12-.09.62-.09,1.51v.77l1.25-.03c.08,0,.12,0,.14.03s.02.06.02.13v1.17c.7-.89,1.22-1.87,1.57-2.94.17-.53.27-.97.3-1.33.58.1,1.05.2,1.42.3.18.07.27.14.27.21s-.06.16-.18.27c-.04.04-.16.29-.35.76-.2.47-.37.85-.52,1.14h1.93c.19-.41.39-.9.59-1.49.13-.35.22-.71.27-1.09.59.1,1.05.2,1.41.31.17.07.26.15.26.23s-.06.18-.17.27c-.08.07-.19.26-.33.59-.24.58-.41.97-.5,1.17h.7l1.74-.03c.08,0,.12,0,.14.03s.02.06.02.13v1.07c0,.08-.01.12-.03.14-.02.01-.06.02-.13.02l-1.74-.03h-.95v1.58h.51l1.74-.03c.09,0,.14.01.16.04.01.02.02.07.02.14v1.01c0,.08-.01.13-.04.15-.02.01-.07.02-.15.02l-1.74-.03h-.51v1.6h.53l1.74-.03c.08,0,.13,0,.15.03.01.02.02.06.02.13v1.04c0,.07,0,.12-.03.14-.02.02-.07.03-.14.03l-1.74-.03h-.53v1.76h1.05l1.82-.03c.1,0,.15.05.15.16v1.07c0,.11-.05.16-.15.16l-1.82-.03h-4.54v.73c0,.08,0,.13-.03.15s-.07.02-.14.02h-1.19c-.08,0-.12,0-.14-.03-.01-.02-.02-.07-.02-.14l.03-1.72v-6.45l-.29.36c-.14.17-.24.25-.3.25-.04,0-.12-.09-.23-.27-.17-.31-.37-.57-.59-.79ZM544,11.75h2.07v-1.58h-2.07v1.58ZM544,14.65h2.07v-1.6h-2.07v1.6ZM544,17.72h2.07v-1.76h-2.07v1.76Z"/>
        <path class="cls-2" d="M555.25,6.88c.95.11,1.58.2,1.88.27.24.06.36.15.36.29,0,.08-.05.24-.15.5-.07.21-.14.81-.21,1.82-.15,2.31-.23,4.25-.23,5.81,0,.82.09,1.33.28,1.55.18.21.55.31,1.1.31.8,0,1.67-.25,2.63-.74.95-.49,1.82-1.17,2.63-2.02.05.54.17,1.01.34,1.43.08.18.12.3.12.36,0,.14-.1.29-.3.47-.84.78-1.82,1.36-2.92,1.75-.92.33-1.84.5-2.77.5-1.05,0-1.79-.26-2.22-.77-.4-.48-.6-1.24-.6-2.29,0-.93.07-3.09.21-6.48.01-.51.02-.85.02-1.04,0-.67-.06-1.24-.18-1.71Z"/>
        <path class="cls-2" d="M569.27,6.12c.46.06.95.13,1.47.23.14.04.21.11.21.19,0,.07-.06.17-.18.29-.08.08-.21.29-.39.64h1.51c.15,0,.28-.02.38-.06.07-.03.14-.04.19-.04.12,0,.32.13.59.39.25.23.37.4.37.51,0,.1-.07.2-.21.29-.1.06-.2.19-.29.39-.22.4-.49.82-.78,1.27h.34l1.78-.03c.07,0,.12,0,.14.03v-.97c0-.11.05-.17.15-.17l1.49.03v-.76c0-.77-.03-1.47-.1-2.12.29,0,.79.04,1.49.1.14.02.21.08.21.18,0,.09-.02.2-.07.33-.07.2-.11.64-.11,1.35,0,.41,0,.72,0,.92h.89l1.67-.03c.12,0,.18.06.18.18-.02.64-.03,1.14-.03,1.5-.03,2.17-.16,3.82-.38,4.95-.07.32-.17.59-.29.79.29.14.59.23.92.27.16.02.26.06.3.1.04.03.07.1.07.19,0,.05,0,.12-.01.21-.09.98-.4,1.62-.93,1.92-.33.19-.81.31-1.44.36-.54.05-1.45.07-2.75.07-1.95,0-3.15-.1-3.6-.31-.25-.13-.43-.28-.52-.47-.1-.21-.15-.51-.15-.91v-3.46h-.86c-.04,1.39-.28,2.5-.72,3.34-.33.64-.85,1.25-1.54,1.8-.18.13-.29.2-.33.2-.07,0-.17-.1-.31-.3-.22-.33-.5-.6-.84-.83.8-.48,1.36-1.01,1.68-1.6.36-.64.56-1.51.61-2.61-.29,0-.56.01-.81.02-.17,0-.25,0-.26,0-.08,0-.13,0-.15-.03-.01-.02-.02-.07-.02-.14l.03-1.2v-1.57c0-.28,0-.47-.01-.59l-.08.08c-.13.13-.22.19-.28.19-.06,0-.14-.1-.23-.31-.15-.35-.34-.65-.57-.92,1.02-.81,1.79-1.8,2.32-2.98.12-.25.22-.55.29-.9ZM568.56,10.22h1.99c.35-.53.64-1.03.87-1.52h-1.73c-.36.56-.73,1.06-1.13,1.52ZM569.18,13.26h1.25v-1.82h-1.25v1.82ZM573.06,13.26v-1.82h-1.29v1.82h1.29ZM578.76,10.46h-1.37c-.08,1.25-.24,2.31-.48,3.19-.41,1.45-1.12,2.71-2.13,3.76-.15.15-.25.23-.3.23-.06,0-.16-.09-.31-.27-.24-.3-.53-.54-.86-.73,1.04-.91,1.78-2.03,2.22-3.38.24-.76.39-1.7.46-2.81l-1.44.03c-.07,0-.11,0-.13-.01v1.08s-.01,1.57-.01,1.57l.03,1.2c0,.08,0,.13-.03.15s-.07.02-.14.02c0,0-.15,0-.43-.01-.3,0-.63,0-.98-.01v2.97c0,.36.12.58.37.67.3.1,1.14.15,2.5.15,1.08,0,1.84-.02,2.26-.07.39-.04.67-.12.83-.23.25-.18.39-.54.42-1.1-.26.25-.65.37-1.16.37-.19,0-.47,0-.83-.03-.21-.01-.33-.05-.37-.1-.03-.04-.06-.18-.08-.4-.04-.35-.15-.68-.32-.99.58.08,1.01.12,1.3.12.21,0,.37-.07.48-.21.1-.14.17-.38.23-.73.17-1.06.27-2.54.3-4.44Z"/>
        <path class="cls-2" d="M15.42,44.35c.59.09,1.03.13,1.33.13.32,0,.55-.08.67-.23.27-.35.47-1.54.59-3.57h-1.44l-.1.56c-.03.1-.09.15-.2.15-.07,0-.28-.02-.63-.06-.44-.06-.66-.13-.66-.21,0-.02,0-.05.01-.1.27-1.26.45-2.42.54-3.46.03-.28.05-.55.05-.79,0-.07,0-.16,0-.27,0-.13.07-.2.2-.2l.99.03h1.32v-1.89h-1.44l-1.29.03c-.08,0-.13,0-.15-.03-.01-.02-.02-.06-.02-.13v-1.08c0-.08,0-.13.03-.15.02-.01.07-.02.15-.02l1.29.03h1.65l1.03-.03c.08,0,.13.01.15.04.01.02.02.07.02.15l-.03,1.34v1.55l.03,1.35c0,.08-.01.13-.04.15-.02.01-.07.02-.14.02l-1.03-.03h-1.33c-.05.52-.12,1.1-.21,1.76h1.6l.96-.03c.12,0,.18.05.18.15v.05c-.02.15-.04.5-.07,1.05-.11,2.16-.32,3.63-.64,4.41-.15.37-.39.62-.7.78-.29.14-.7.21-1.21.21-.3,0-.54,0-.72-.01-.17-.01-.27-.05-.3-.1-.03-.04-.06-.18-.1-.4-.08-.43-.2-.8-.35-1.11ZM25.88,42.88s-.04-.07-.04-.1c0-.04.06-.09.17-.14l.77-.33c.05-.03.1-.04.13-.04.04,0,.09.04.14.13.64.85,1.17,1.79,1.6,2.82.01.04.02.08.02.1,0,.05-.05.1-.16.15l-.85.39c-.07.02-.12.04-.15.04-.06,0-.11-.05-.15-.14-.19-.47-.33-.82-.44-1.04-1.75.33-3.7.62-5.85.89-.26.03-.47.09-.63.17-.12.05-.21.07-.26.07-.13,0-.21-.08-.26-.24-.09-.29-.19-.78-.32-1.47.2.01.4.02.6.02.31,0,.69-.01,1.13-.04.59-.03,1.22-.1,1.89-.18v-1.85h-.87l-1.91.03c-.08,0-.13,0-.15-.03s-.02-.07-.02-.14l.03-1.19v-1.6l-.03-1.19c0-.08,0-.13.03-.15s.07-.02.14-.02l1.91.03h.87v-1.26c-.72.06-1.41.11-2.06.14-.23,0-.42.05-.55.12-.08.05-.16.07-.24.07-.1,0-.17-.08-.21-.24-.09-.46-.15-.91-.2-1.33.17.01.37.02.6.02h.58c.38-.65.69-1.29.93-1.94.15-.37.24-.71.29-1.02.61.08,1.1.17,1.46.27.15.05.23.12.23.22s-.05.19-.15.27c-.08.07-.18.21-.29.42-.28.59-.59,1.16-.92,1.72.75-.03,1.8-.1,3.16-.21-.27-.35-.57-.71-.92-1.07-.04-.04-.07-.08-.07-.11,0-.03.05-.08.14-.13l.75-.43c.07-.04.13-.07.17-.07s.08.03.13.08c.88.88,1.68,1.84,2.39,2.88.03.06.05.11.05.14,0,.04-.05.1-.15.16l-.9.54c-.09.06-.15.09-.18.09-.04,0-.09-.04-.13-.13-.2-.36-.35-.63-.47-.81-.72.09-1.4.16-2.04.21v1.39h1.02l1.92-.03c.08,0,.13,0,.15.03s.02.07.02.14l-.03,1.19v1.6l.03,1.19c0,.08,0,.13-.03.14-.02.02-.06.03-.14.03l-1.92-.03h-1.02v1.66l1.62-.22-.39-.65ZM21.7,40.85h1.53v-1.77h-1.53v1.77ZM26.31,40.85v-1.77h-1.66v1.77h1.66Z"/>
        <path class="cls-2" d="M34.33,40.09c-.01.17-.02.48-.02.93v.21c0,.14-.03.24-.08.29-.03.03-.14.1-.31.2-.96.53-1.88.96-2.76,1.29-.25.09-.41.16-.48.21-.11.09-.2.13-.27.13-.08,0-.16-.07-.23-.2-.12-.28-.25-.73-.4-1.33.53-.1,1.02-.22,1.49-.37.04-.02.1-.04.18-.07s.13-.04.17-.06v-3.72h-.12l-1.38.04c-.1,0-.15-.06-.15-.17v-1.14c0-.11.05-.16.15-.16l1.38.03h.12v-1.29c0-.95-.04-1.71-.12-2.26.5,0,1.01.04,1.54.09.16.01.24.07.24.16,0,.06-.03.16-.1.3-.06.16-.09.71-.09,1.67v1.33l1.19-.03c.08,0,.12,0,.14.03s.02.06.02.13v1.14c0,.08,0,.13-.03.15-.02.01-.06.02-.13.02l-1.19-.04v3.11c.64-.31,1.05-.51,1.25-.62ZM35.98,45.18c1.75-.94,2.98-2.16,3.68-3.66h-.81c-.92,1.42-2.08,2.53-3.49,3.33-.19.11-.32.16-.38.16-.07,0-.2-.1-.37-.29-.16-.19-.37-.36-.63-.52,1.41-.66,2.52-1.56,3.35-2.69h-.94c-.57.7-1.23,1.29-1.98,1.77-.21.13-.34.2-.38.2-.06,0-.16-.09-.31-.27-.19-.23-.43-.44-.72-.63,1.19-.64,2.11-1.46,2.78-2.46.1-.14.2-.35.31-.63l-1.77.03c-.08,0-.12,0-.14-.03-.01-.02-.02-.07-.02-.15v-.98c0-.08,0-.12.03-.14s.06-.02.13-.02l2.04.03h5.02l2.04-.03c.08,0,.13,0,.15.03.01.02.02.06.02.13v.98c0,.08,0,.13-.03.15-.02.02-.07.03-.14.03l-2.04-.03h-4.5l.5.12c.14.05.21.11.21.2s-.04.15-.12.2c-.11.09-.19.18-.23.27h3.91l1.8-.03c.13,0,.2.05.2.14v.03s0,.02,0,.03l-.1,1.51c-.07,1.3-.23,2.26-.46,2.88-.17.43-.39.73-.67.92-.26.16-.6.24-1.03.24-.33,0-.58,0-.76-.03-.18-.01-.29-.05-.33-.1-.03-.04-.08-.18-.14-.4-.1-.35-.23-.68-.39-.99.37.06.83.1,1.36.1.19,0,.32-.03.39-.09.07-.06.14-.19.2-.38.17-.54.3-1.4.4-2.58h-.53c-.75,1.76-1.98,3.21-3.69,4.34-.19.11-.31.17-.36.17-.07,0-.2-.1-.37-.29-.21-.24-.43-.43-.66-.56ZM40.2,32.94l1.82-.03c.08,0,.13,0,.15.03.02.02.02.07.02.14l-.03,1.27v1.82l.03,1.29c0,.08,0,.12-.03.14s-.07.02-.14.02l-1.82-.03h-2.82l-1.83.03c-.08,0-.12,0-.14-.03-.02-.02-.02-.06-.02-.13l.03-1.29v-1.82l-.03-1.27c0-.08,0-.13.03-.15s.06-.02.13-.02l1.83.03h2.82ZM40.73,34.07h-3.93v.71h3.93v-.71ZM40.73,36.51v-.74h-3.93v.74h3.93Z"/>
        <path class="cls-2" d="M46.19,45.67c-.11.2-.19.3-.26.3-.05,0-.15-.08-.3-.24-.3-.35-.63-.61-.97-.8.53-.76.88-1.74,1.05-2.96.12-.82.18-1.95.18-3.4l-.03-2.5c0-.08,0-.13.03-.15s.06-.02.13-.02l1.52.03h1.88l1.5-.03c.08,0,.13,0,.15.03.01.02.02.07.02.14l-.03,1.39v2.29l.03,1.36c0,.09-.01.14-.04.16-.01.01-.06.02-.13.02h-1.16c-.08,0-.12-.01-.14-.04-.02-.02-.02-.07-.02-.15v-.4h-2.25c-.11,2.01-.49,3.66-1.16,4.95ZM51.33,33.16c.08,0,.12,0,.14.03s.02.07.02.14v1.09c0,.08-.01.13-.03.15-.02.01-.06.02-.13.02l-1.74-.03h-2.52l-1.74.03c-.08,0-.13-.01-.15-.04-.01-.02-.02-.07-.02-.14v-1.09c0-.08,0-.13.03-.15.02-.01.07-.02.14-.02l1.74.03h2.52l1.74-.03ZM49.6,37.27h-2.2v2.12h2.2v-2.12ZM49.72,44.86c.98-.82,1.65-1.81,2.01-2.99.28-.94.42-2.23.42-3.88v-1.83c0-.87-.04-1.69-.11-2.44.56.09,1.03.21,1.43.36,1.07-.25,2.04-.61,2.91-1.07.25-.12.52-.29.8-.52.36.29.69.65.99,1.06.08.09.12.19.12.3,0,.09-.08.15-.24.17-.11,0-.3.07-.57.18-1.37.56-2.64.98-3.82,1.25v1.85h2.74l2.06-.03c.08,0,.12,0,.14.03.01.02.02.06.02.13v1.11c0,.08,0,.12-.03.14s-.06.02-.13.02c-.02,0-.09,0-.21,0-.42,0-.88-.02-1.39-.02v5.44l.03,1.88c0,.1-.05.15-.15.15h-1.23c-.1,0-.15-.05-.15-.15v-1.88s.01-5.44.01-5.44h-1.71c-.03,1.65-.21,2.97-.53,3.98-.36,1.13-.98,2.14-1.85,3.04-.15.16-.25.24-.31.24-.06,0-.16-.09-.3-.26-.28-.32-.59-.59-.94-.81Z"/>
        <path class="cls-2" d="M67.84,33.09l-.4,8.93h-1.52l-.42-8.93h2.34ZM65.59,43.48h2.13v2.02h-2.13v-2.02Z"/>
        <path class="cls-2" d="M74.61,40.17c1.12-.88,2.07-2.07,2.85-3.57.15-.3.26-.6.33-.9.53.21.93.39,1.2.53.16.1.24.19.24.26s-.06.15-.17.24c-.08.07-.18.21-.29.43-.28.53-.5.91-.64,1.14v5.8l.03,1.89c0,.08-.01.13-.04.15-.02.01-.07.02-.14.02h-1.22c-.09,0-.14,0-.16-.03-.01-.02-.02-.07-.02-.14l.03-1.89v-1.92c0-.44,0-1.09.03-1.95-.31.39-.63.73-.97,1.03-.15.12-.26.18-.32.18-.08,0-.15-.09-.21-.27-.15-.4-.33-.73-.53-1ZM78.71,32.36c.45,0,.95.04,1.5.1.14.01.21.07.21.15,0,.07-.02.15-.07.22-.06.09-.1.34-.1.74h2.79c0-.52-.03-.93-.09-1.22.57.01,1.07.04,1.49.09.14.01.21.07.21.15,0,.08-.03.16-.07.23-.06.09-.09.34-.09.74h1.79l1.89-.03c.1,0,.15.05.15.16v1.08c0,.08,0,.13-.03.15-.01.01-.06.02-.12.02l-1.89-.03h-1.79l.03.75c0,.08,0,.13-.03.15s-.07.02-.14.02h-1.19c-.08,0-.12,0-.14-.03-.01-.02-.02-.07-.02-.14,0-.01,0-.1,0-.25,0-.17.02-.33.02-.5h-2.79l.03.75c0,.09,0,.14-.03.16-.02.01-.06.02-.13.02h-1.19c-.08,0-.13-.01-.15-.04-.01-.02-.02-.07-.02-.15,0,0,0-.09.01-.24,0-.17,0-.33.01-.51h-1.71l-1.88.03c-.09,0-.14-.01-.15-.04-.02-.02-.03-.07-.03-.14v-1.08c0-.08.01-.12.04-.14.02-.01.07-.02.15-.02l1.88.03h1.71c-.01-.56-.04-.96-.09-1.22ZM81.48,37.92l-2.06.03c-.08,0-.12-.01-.13-.04,0-.01-.01-.06-.01-.14v-1.02c0-.09,0-.15.02-.16.01-.01.06-.02.12-.02l2.06.03h4.7l2.02-.03c.09,0,.14.01.16.04.01.02.02.07.02.15v1.02c0,.08-.01.13-.04.15-.02.01-.07.02-.15.02,0,0-.07,0-.17,0-.34,0-.74-.02-1.18-.02v3.85l.03,2.5c0,.7-.14,1.16-.43,1.4-.22.16-.49.27-.8.32-.32.05-.8.08-1.44.08-.25,0-.39-.02-.44-.07-.04-.04-.08-.17-.11-.4-.09-.42-.22-.77-.4-1.07.49.05.94.07,1.35.07.28,0,.47-.05.56-.15.08-.08.12-.23.12-.43v-6.12h-3.82ZM80.63,44.25h-1.04c-.08,0-.13,0-.15-.03-.01-.02-.02-.07-.02-.14l.03-2.34v-1.03l-.03-1.48c0-.08.01-.13.04-.15.02-.01.07-.02.14-.02l1.38.03h1.51l1.38-.03c.08,0,.13,0,.15.03s.02.07.02.14l-.03,1.22v1.11l.03,2.22c0,.08,0,.13-.03.14-.02.02-.06.03-.13.03h-1.03c-.08,0-.13,0-.15-.03s-.02-.07-.02-.14v-.43h-1.89v.73c0,.11-.05.17-.15.17ZM80.78,40.3v1.83h1.89v-1.83h-1.89Z"/>
        <path class="cls-2" d="M89.81,38.58c.37-1.21.58-2.52.63-3.93,0-.11,0-.21,0-.32,0-.21-.01-.43-.04-.64.54.06.95.12,1.25.17.15.03.23.09.23.18,0,.06-.02.14-.06.23-.04.09-.07.26-.09.51-.02.32-.04.57-.06.73h.72v-.82c0-.84-.04-1.6-.12-2.27.57.02,1.08.06,1.55.11.16.01.24.06.24.15,0,.05-.03.16-.09.31-.06.15-.09.7-.09,1.67v.85l1.17-.03c.11,0,.16.05.16.15v1.02c.71-.84,1.27-1.86,1.67-3.05.13-.42.22-.82.27-1.2.61.09,1.07.18,1.41.26.17.05.26.12.26.21,0,.08-.05.18-.15.3-.08.09-.19.32-.31.69-.11.33-.27.74-.48,1.23h3.49l1.59-.03c.14,0,.21.07.21.2-.02.54-.03.93-.03,1.16-.03,3.22-.18,5.62-.44,7.21-.13.87-.39,1.49-.78,1.87-.35.34-.84.51-1.46.51-.46,0-.82,0-1.08-.03-.24-.01-.39-.05-.43-.1-.04-.04-.08-.19-.12-.42-.09-.45-.21-.83-.36-1.12.58.1,1.16.15,1.75.15.34,0,.59-.12.75-.37.12-.19.21-.48.27-.88.26-1.9.42-4.06.46-6.48-.59,2.08-1.31,3.8-2.17,5.17-.8,1.28-1.79,2.38-2.97,3.29-.19.14-.32.21-.38.21-.08,0-.18-.1-.32-.29-.22-.34-.5-.61-.82-.82,1.46-.99,2.63-2.2,3.54-3.65.73-1.17,1.33-2.58,1.8-4.23h-.99c-.68,2.25-1.79,4.07-3.32,5.46-.16.16-.28.24-.36.24-.07,0-.17-.09-.3-.26-.24-.3-.52-.55-.84-.77,1.62-1.18,2.74-2.74,3.38-4.68h-.79c-.32.52-.69,1.03-1.11,1.52-.16.17-.26.26-.31.26-.06,0-.17-.08-.33-.24-.23-.22-.52-.43-.86-.63l.4-.4c-.05,0-.19,0-.41-.01-.26,0-.48,0-.67-.01v2.42c.59-.29,1.06-.52,1.4-.71,0,.45,0,.79.02,1.01,0,.12.02.2.02.23,0,.11-.03.2-.09.26-.04.04-.14.1-.3.18-.4.21-.75.39-1.05.53v2.54l.03,2.64c0,.08-.01.12-.03.14-.02.01-.07.02-.14.02h-1.22c-.08,0-.12,0-.14-.03-.02-.02-.02-.06-.02-.13l.03-2.62v-1.86c-.13.05-.48.19-1.05.42-.26.12-.42.21-.48.27-.1.1-.18.15-.26.15-.1,0-.18-.06-.23-.17-.12-.29-.29-.78-.51-1.45.44-.09.91-.22,1.41-.39.25-.08.63-.21,1.13-.39v-3.06h-.87c-.08.67-.19,1.26-.31,1.76-.07.24-.13.36-.19.36-.04,0-.15-.05-.33-.15-.23-.12-.53-.22-.89-.3Z"/>
        <path class="cls-2" d="M109.01,36.58c.15-.54.3-1.17.45-1.89.1-.6.15-1.15.15-1.66.73.16,1.33.32,1.79.49.16.05.24.15.24.3,0,.08-.04.16-.1.23-.12.16-.22.35-.3.57-.07.22-.17.54-.29.95-.11.38-.2.66-.26.85.37-.04.77-.07,1.2-.07,1.43,0,2.15.96,2.15,2.89,0,.9-.08,1.81-.24,2.72-.15.83-.34,1.5-.57,1.98-.42.94-1.1,1.41-2.02,1.41-.71,0-1.23-.08-1.56-.23-.18-.07-.27-.21-.27-.42-.06-.62-.15-1.08-.29-1.39.56.26,1.13.39,1.73.39.26,0,.47-.06.61-.19.12-.12.24-.32.35-.61.39-1.04.59-2.28.59-3.74,0-.56-.07-.93-.21-1.12-.13-.17-.34-.26-.65-.26-.33,0-.75.03-1.26.1-.98,2.86-1.99,5.21-3.02,7.05-.05.12-.13.18-.22.18-.05,0-.11-.02-.17-.05-.46-.22-.81-.44-1.04-.66-.08-.08-.12-.15-.12-.22,0-.06.02-.11.06-.17,1.19-2.06,2.1-4.02,2.75-5.88-.34.05-.83.14-1.46.26-.27.05-.54.13-.83.24-.07.02-.13.04-.18.04-.14,0-.24-.08-.3-.23-.14-.37-.3-.89-.46-1.55.55,0,1.21-.03,1.98-.1.54-.05,1.13-.13,1.77-.23ZM114.18,36.47c.56-.38.96-.64,1.21-.77.04-.02.07-.03.1-.03.05,0,.12.03.18.1,1.14,1.07,1.97,2.29,2.49,3.65.02.05.04.1.04.13,0,.06-.03.11-.1.17-.28.26-.66.51-1.13.75-.05.03-.11.04-.15.04-.1,0-.16-.05-.19-.16-.62-1.63-1.43-2.92-2.45-3.88ZM115,34.16l.8-.56s.06-.04.09-.04c.04,0,.08.02.13.07.51.4.99.93,1.43,1.6.03.04.04.08.04.11,0,.04-.03.09-.09.13l-.63.46s-.08.05-.12.05c-.05,0-.09-.03-.14-.1-.46-.71-.97-1.29-1.52-1.74ZM116.39,33.16l.75-.54s.07-.04.1-.04c.03,0,.08.02.13.07.57.44,1.04.96,1.42,1.55.03.04.04.08.04.12,0,.05-.03.1-.09.15l-.6.47s-.08.05-.12.05c-.05,0-.1-.03-.14-.1-.42-.67-.92-1.25-1.49-1.73Z"/>
        <path class="cls-2" d="M122.25,37.73l-1.9.03c-.08,0-.12,0-.14-.03s-.02-.06-.02-.13v-.9c0-.08,0-.13.03-.15s.06-.02.13-.02l1.9.03h4.01s.03-.13.08-.37c.03-.13.05-.23.06-.31h-3.62l-2.02.03c-.11,0-.17-.05-.17-.15l.03-.94v-.78l-.03-.92c0-.09,0-.14.03-.16.02-.01.07-.02.14-.02l2.02.03h7.88l2.03-.03c.08,0,.12,0,.14.03.01.02.02.08.02.15l-.03.92v.78l.03.94c0,.1-.05.15-.16.15l-2.03-.03h-2.75l-.15.69h3.47l1.89-.03c.08,0,.13,0,.15.03.01.02.02.07.02.14v.9c0,.08-.01.12-.03.14-.02.01-.07.02-.15.02l-1.89-.03h-3.74s-.03.15-.09.37c-.03.12-.05.22-.07.3h2.17l1.97-.03c.08,0,.12,0,.14.03.02.02.02.07.02.14l-.03,1.39v2.35l.03,1.38c0,.07,0,.12-.03.14-.02.02-.06.03-.14.03l-1.97-.03h-3.68l-1.97.03c-.08,0-.12,0-.14-.03-.02-.02-.02-.06-.02-.13l.03-1.38v-2.35l-.03-1.39c0-.08,0-.13.03-.15s.06-.02.13-.02l1.96.03.18-.67h-3.73ZM120.86,38.79c.54,0,1.06.03,1.58.09.17.02.26.08.26.18,0,.08-.04.2-.11.36-.06.13-.09.48-.09,1.05v3.96h8.72l2.07-.03c.08,0,.13,0,.15.03s.02.06.02.13v.95c0,.08-.01.12-.03.14-.02.01-.07.02-.14.02l-2.07-.03h-8.72v.36c0,.08,0,.13-.03.15-.02.01-.07.02-.14.02h-1.23c-.08,0-.12-.01-.14-.04-.01-.01-.02-.06-.02-.13l.03-1.68v-3.87c0-.66-.04-1.22-.1-1.66ZM122.12,34.85h2.15v-.84h-2.15v.84ZM125.16,39.37v.57h4.98v-.57h-4.98ZM125.16,41.37h4.98v-.56h-4.98v.56ZM130.14,42.82v-.6h-4.98v.6h4.98ZM127.74,34.85v-.84h-2.15v.84h2.15ZM131.3,34.85v-.84h-2.23v.84h2.23Z"/>
        <path class="cls-2" d="M137.03,33.19c.67.16,1.19.34,1.58.53.22.11.33.22.33.33,0,.09-.03.19-.09.3-.08.21-.18.58-.29,1.11-.38,2.16-.57,3.66-.57,4.5,0,1.12.05,1.91.15,2.37.62-1.33.96-2.04,1-2.15.13.34.29.68.49,1,.09.1.14.2.14.29s-.06.25-.18.49c-.28.62-.5,1.24-.67,1.83-.03.12-.04.25-.04.4v.36c0,.09-.07.16-.2.21-.38.17-.72.27-1.03.31-.03,0-.06,0-.09,0-.1,0-.19-.07-.26-.21-.26-.51-.48-1.27-.65-2.27-.16-.86-.23-1.65-.23-2.37,0-1.1.15-2.71.45-4.8.11-.84.17-1.58.17-2.23ZM144.02,36.25c-.05-1.23-.08-1.89-.09-1.99-.06-.52-.14-.93-.25-1.23.93.03,1.58.1,1.93.21.16.04.24.12.24.24,0,.08-.04.18-.11.3-.05.1-.07.31-.07.63v1.67c.72-.1,1.36-.21,1.92-.33.05-.01.1-.02.13-.02.08,0,.13.05.14.15.04.27.08.64.12,1.13v.04c0,.13-.07.21-.2.22-.63.12-1.33.22-2.07.3v2.31c.03,1.39-.19,2.55-.64,3.48-.46.99-1.18,1.77-2.15,2.33-.14.09-.27.13-.37.13-.12,0-.22-.04-.3-.13-.29-.26-.68-.51-1.17-.74.74-.4,1.31-.8,1.71-1.22.34-.35.62-.78.83-1.27.33-.75.48-1.87.47-3.35v-1.36c-.82.06-1.42.09-1.82.09-.17,0-.35.01-.54.01s-.42,0-.72-.01c-.21,0-.33-.08-.34-.23-.01-.08-.07-.53-.17-1.37.46.05,1.08.08,1.86.08.63,0,1.19-.02,1.67-.07Z"/>
        <path class="cls-2" d="M150.61,35.4c.53-.02,1.33-.1,2.39-.25,4.04-.59,7.04-1.02,9.01-1.27.03,0,.06,0,.09,0,.14,0,.21.06.23.17.1.43.15.88.17,1.33,0,.15-.09.22-.29.22-.68.04-1.29.15-1.83.33-1.31.45-2.31,1.12-2.99,2.02-.56.73-.83,1.53-.83,2.4,0,1.93,1.33,2.98,3.99,3.15.22,0,.33.08.33.23,0,.47-.06.9-.17,1.29-.04.21-.13.31-.28.31-1.57,0-2.9-.43-3.97-1.3-1.04-.85-1.57-1.97-1.57-3.33,0-1.09.29-2.05.86-2.89.46-.67,1.14-1.29,2.02-1.87v-.03c-1.77.33-3.45.66-5.04.99-.52.12-.83.2-.94.24-.19.08-.3.12-.33.12-.13,0-.22-.08-.29-.23-.16-.32-.34-.86-.56-1.62Z"/>
        <path class="cls-2" d="M172.34,35.51c-.05-.45-.12-.91-.21-1.37-.12-.46-.25-.81-.39-1.03.27-.02.52-.04.75-.04.33,0,.66.03.99.09.23.04.34.13.34.29l-.04.35v.05c.09.6.16,1.12.2,1.56h.24c1.09,0,2,.41,2.72,1.23.63.71.95,1.56.95,2.55,0,1.43-.52,2.53-1.54,3.3-.38.29-.84.52-1.37.68-.47.15-.93.22-1.38.22h-.27c-.58,1.03-1.29,1.84-2.12,2.43-.13.1-.25.15-.36.15-.09,0-.19-.04-.3-.13-.38-.28-.77-.49-1.17-.62,1-.6,1.75-1.3,2.26-2.1-.52-.17-.95-.42-1.3-.73-.35-.31-.6-.65-.77-1.02-.04-.1-.06-.17-.06-.2,0-.05.03-.13.1-.24.21-.33.38-.73.51-1.19.27.61.59,1.07.95,1.38.4.33.79.53,1.19.62.18-.77.27-1.69.27-2.78,0-.61-.03-1.28-.09-2.03-.92.21-1.81.72-2.67,1.55-.81.81-1.39,1.67-1.73,2.59-.18.5-.27.98-.27,1.46,0,.13,0,.25.01.37,0,.14-.08.23-.29.27-.14.05-.49.11-1.05.2-.15,0-.24-.08-.27-.24-.23-.86-.34-1.86-.34-2.98,0-.97.08-2.24.26-3.82.06-.7.09-1.18.09-1.44,0-.29-.01-.5-.04-.62.84.17,1.41.33,1.72.49.14.05.21.15.21.29,0,.06-.02.15-.06.27-.11.2-.18.39-.23.59-.15.75-.27,1.5-.36,2.25-.05.55-.08,1.13-.1,1.73.48-1.19,1.11-2.12,1.89-2.81.87-.79,1.91-1.31,3.12-1.56ZM173.9,41.86c.48-.02.93-.18,1.33-.49.68-.52,1.03-1.28,1.03-2.27,0-1.36-.72-2.11-2.15-2.26.04.94.07,1.67.07,2.19,0,1.05-.09,1.99-.27,2.83Z"/>
        <path class="cls-2" d="M181.5,39.13c.66-.1,1.44-.3,2.34-.58,1.84-.61,3.3-.92,4.38-.92s1.95.34,2.59,1.02c.55.59.83,1.32.83,2.19,0,1.47-.71,2.6-2.15,3.36-.98.54-2.01.87-3.1.99-.06,0-.11.01-.15.01-.15,0-.26-.08-.34-.23-.19-.34-.5-.67-.92-.99.84-.13,1.52-.27,2.04-.42s1.04-.35,1.58-.62c.9-.47,1.35-1.22,1.35-2.23,0-1.1-.62-1.65-1.86-1.65-.9,0-2.31.39-4.25,1.16-.34.15-.62.31-.83.47-.12.1-.22.15-.3.15-.11,0-.24-.09-.39-.27-.18-.22-.45-.71-.81-1.46Z"/>
        <path class="cls-2" d="M200.78,35.59c.62-.11,1.33-.28,2.13-.51.03,0,.06-.01.08-.01.09,0,.14.05.15.16.06.4.09.76.11,1.08v.07c0,.11-.08.19-.23.22-.86.24-1.73.43-2.61.57-.99,3.23-1.91,5.94-2.75,8.12-.04.12-.1.18-.18.18-.03,0-.08,0-.15-.03-.51-.21-.91-.39-1.2-.56-.09-.05-.14-.12-.14-.21,0-.03,0-.06.02-.09,1.05-2.4,1.92-4.77,2.6-7.1-1.06.11-1.93.17-2.62.17-.19,0-.29-.08-.32-.24-.05-.26-.12-.72-.21-1.37.21.03.58.05,1.11.05.79,0,1.59-.05,2.42-.15.12-.46.24-1.08.38-1.88.06-.45.09-.91.09-1.38.91.14,1.54.28,1.88.42.11.04.17.12.17.24,0,.09-.03.17-.07.24-.19.33-.29.52-.31.59-.05.2-.12.47-.21.83-.07.28-.12.48-.15.6ZM201.05,42.48c.58-.15,1.01-.23,1.27-.23.14,0,.21.07.23.21.06.56.3.95.73,1.16.34.17.86.26,1.56.26.56,0,1.4-.07,2.52-.21.02,0,.04,0,.05,0,.08,0,.12.05.13.14.08.52.12.96.12,1.31,0,.03,0,.06,0,.07,0,.1-.08.15-.24.16-.75.11-1.43.17-2.04.17-1.04,0-1.86-.09-2.43-.26-.5-.15-.91-.39-1.23-.72-.42-.42-.64-1.11-.67-2.06ZM202.22,39.65c-.04-.71-.07-1.16-.07-1.36,0-.11.02-.19.06-.22.03-.03.11-.06.21-.08,1.11-.23,2.09-.34,2.92-.34.59,0,1.17.05,1.76.15.12.02.19.04.21.07.03.02.04.08.04.16.01.21.02.43.02.69,0,.15,0,.32,0,.51,0,.19-.06.29-.18.29-.03,0-.07,0-.11-.01-.6-.12-1.22-.18-1.86-.18-.86,0-1.86.11-3.01.34Z"/>
        <path class="cls-2" d="M213.34,32.97c.74.15,1.28.3,1.63.46.19.07.29.17.29.3,0,.08-.03.16-.1.24-.09.11-.18.34-.27.7-.14.66-.28,1.61-.42,2.86-.04.66-.06,1.08-.06,1.27,0,.13,0,.26,0,.38.36-.64.71-1.29,1.05-1.93.11.37.27.69.47.97.06.07.09.15.09.24,0,.1-.05.23-.15.37-.47.89-.76,1.53-.89,1.92-.03.1-.06.25-.08.45,0,.13-.06.21-.19.23-.19.05-.59.11-1.2.18-.1.01-.17-.05-.21-.2-.3-.81-.45-1.82-.45-3.04,0-.64.12-1.89.36-3.74.08-.7.12-1.27.12-1.71ZM218.14,33c.84.04,1.42.1,1.71.18.21.05.31.15.31.28,0,.03,0,.08,0,.13-.02.14-.04.37-.04.69.14,1.89.21,3.18.21,3.87,0,2.29-.38,4.03-1.14,5.21-.59.94-1.41,1.74-2.48,2.42-.1.07-.2.1-.3.1s-.2-.06-.32-.17c-.38-.33-.8-.56-1.27-.69,1.19-.66,2.04-1.33,2.56-2.01.48-.65.81-1.35,1-2.1.18-.71.26-1.6.26-2.69,0-1.29-.06-2.48-.18-3.58-.06-.62-.17-1.17-.31-1.63Z"/>
        <path class="cls-2" d="M226.97,42.14c.64,0,1.18.24,1.61.71.38.41.56.89.56,1.45,0,.64-.24,1.18-.72,1.6-.42.37-.9.56-1.46.56-.64,0-1.18-.24-1.61-.71-.38-.41-.56-.89-.56-1.45,0-.64.24-1.18.72-1.6.42-.37.9-.56,1.46-.56ZM226.97,43.05c-.38,0-.69.13-.93.4-.21.23-.31.52-.31.84,0,.38.13.69.4.93.23.21.51.31.84.31.38,0,.69-.13.93-.4.21-.23.32-.52.32-.84,0-.38-.13-.69-.4-.93-.23-.21-.52-.31-.84-.31Z"/>
      </g>
    </g>
  </g>
</svg>