<?xml version="1.0" encoding="UTF-8"?>
<svg id="_レイヤー_2" data-name="レイヤー 2" xmlns="http://www.w3.org/2000/svg" viewBox="0 0 450.83 97.63">
  <defs>
    <style>
      .cls-1 {
        fill: #31699e;
        stroke: #f9cfbe;
        stroke-width: 6px;
      }

      .cls-1, .cls-2 {
        stroke-miterlimit: 10;
      }

      .cls-2 {
        fill: #fff;
        stroke: #fff;
      }
    </style>
  </defs>
  <g id="_レイヤー_4" data-name="レイヤー 4">
    <g>
      <rect class="cls-1" x="3" y="3" width="444.83" height="91.63"/>
      <g>
        <path class="cls-2" d="M77.72,43.53v31.62H29.79v-14.16c-.65.06-1.24.18-1.88.24l-3.71.42v-16.14c3.88-.36,8.82-1.08,11.35-1.74l-1.82-1.86c-3.12.66-5.65,1.2-8.88,1.68v-15.78c5.12-.6,10.41-3.6,12.82-7.08h37.93v12.9c-2.06,3.48-5.88,7.44-8.7,9.9h10.82ZM72.25,32.37v-8.22h-32.7c-1.35,2.28-6.35,5.46-11.35,6.48v9.12c1.94-.3,4.41-.78,6.29-1.5l7.47,6.72c-4.18,1.62-8.94,2.88-14.41,3.48v9.36c1.94-.18,3.82-.6,5.59-.96v14.88h41.22v-25.14h-16.88c6.12-4.14,11.11-9.12,14.76-14.22ZM38.55,36.39c2.18-1.14,4.18-2.52,6-4.26h16.11c-2.47,3.18-5.82,5.88-10.11,8.64l-6.35-4.38h-5.65ZM42.2,54.15h23.41v9.84h-23.41v-9.84ZM62.2,57.63h-16.64v2.94h16.64v-2.94ZM50.67,37.23c1.18-.78,2.47-1.56,3.53-2.52h-7.06l3.53,2.52Z"/>
        <path class="cls-2" d="M82.42,25.59l3.12-.24c3.18-.24,5.59-1.5,6.47-3.36l.88-1.98h14.94v3.24c-.24.84-.35,1.44-.53,2.04h4.94c-.18-.54-.41-1.5-.53-2.04v-3.24h14.94l.94,2.04c.82,1.86,3.12,3.06,6.41,3.3l3.12.24v28.14l-2.41-.12v21.54h-49.87v-21.6l-2.41.18v-28.14ZM85.77,28.77v8.76c9.59-1.32,16.11-6.06,18.58-14.1h-9.29c-1.41,3-4.71,5.04-9.29,5.34ZM105.29,28.71c-2,5.64-10.41,11.46-19.52,12.3v9.06c.82-.06,1.65-.18,2.41-.3v21.96h43.17v-21.96c.82.12,1.65.24,2.41.3v-9.06c-9.12-.84-17.53-6.66-19.52-12.3h-8.94ZM110.06,37.53c3.53,4.92,9.53,8.7,16,10.74h-32.29c6.7-2.04,12.82-5.76,16.29-10.74ZM97.41,63.93v-7.68h24.7v7.68h-24.7ZM118.7,61.23v-2.28h-17.94v2.28h17.94ZM114.88,45.81c-1.82-.96-3.59-2.4-4.76-3.54-1.18,1.14-3.35,2.64-5.12,3.54h9.88ZM124.46,23.43h-9.29c2.41,8.04,8.94,12.78,18.58,14.1v-8.76c-4.59-.3-7.94-2.22-9.29-5.34Z"/>
        <path class="cls-2" d="M181.56,70.77l.76,4.08h-17.17l-.53-2.82-.82-4.86h-21.41v-16.8h18.94c-.35-2.34-.65-4.62-.88-6.96h-17.52v-16.62h15.76l-.12-1.62-.18-3.6h16.94l.12,3.36c0,.6.06,1.2.06,1.86h18.52v16.62h-16.94c.35,2.34.65,4.62,1,6.96h16.47v16.8h-13.7c.24,1.2.41,2.34.71,3.6ZM191.2,53.85h-16c-.76-4.68-1.41-9.48-1.94-13.86h17.41v-9.78h-18.35c-.18-1.92-.23-3.66-.29-5.22h-10.11c.06,1.08.18,2.88.41,5.22h-16.05v9.78h17.11c.53,4.32,1.18,9.12,1.82,13.86h-19.41v9.84h20.88l1.29,7.74h10.23l-1.41-7.74h14.41v-9.84Z"/>
        <path class="cls-2" d="M227.48,74.25h-15.05l-2.12-26.1h-4.94v-15.06h3.82l-.35-4.08h14.82l.35,4.08h25.58v10.98c0,16.74-11.17,21.42-22.76,22.8l.65,7.38ZM246.24,36.51h-25.29l-.35-4.08h-8.12l.35,4.08h-4.12v8.16h4.71l2.12,26.1h8.23l-2.18-26.1h15.82v1.56c0,5.04-3.53,7.8-11.82,8.82l.65,8.64c13.94-1.14,20-7.44,20-19.62v-7.56ZM225.07,47.85l.24,3.84c5.23-.12,8.06-1.98,8.53-3.84h-8.76Z"/>
        <path class="cls-2" d="M260.17,74.49v-16.74h16.47c12.64,0,18.47-5.34,18.47-18.18v-15.24h16.47v15.36c0,22.14-11.7,34.8-33.99,34.8h-17.41ZM260.82,39.81v-16.86h3.41c11.17,0,20.35,1.2,26.4,3.24v16.14c-6.17-1.38-13.23-2.52-26.4-2.52h-3.41ZM308.16,27.75h-9.64v11.82c0,14.22-6.82,21.66-21.88,21.66h-13.11v9.84h14.05c25.05,0,30.58-16.56,30.58-31.38v-11.94ZM287.28,28.53c-5.59-1.44-13.11-2.16-23.05-2.16v9.96c11.11,0,19.41,1.26,23.05,2.16v-9.96Z"/>
        <path class="cls-2" d="M340.79,22.77c0,22.68-1.82,41.46-4.82,52.02h-18.23c2.47-10.86,6-29.34,6-52.02h17.05ZM327.03,26.25c0,18.42-3.12,37.26-5,45.06h11.29c1.94-7.02,3.94-27.06,3.94-45.06h-10.23ZM366.37,36.63c2.65,13.14,4.29,27.36,5,38.22h-17.05c-1.12-17.22-3.94-37.38-8.23-52.08h10.41c1.59-2.28,4.29-3.78,7.23-3.78,4.94,0,8.94,4.02,8.94,9,0,4.08-2.65,7.5-6.29,8.64ZM354.96,26.25h-4.82c3.47,12.42,6.17,31.2,7.23,45.12h10.29c-.24-8.28-2.06-22.56-4.47-34.38-4.65-.3-8.41-4.2-8.41-9,0-.6.06-1.2.18-1.74ZM363.72,22.23c-3.12,0-5.65,2.64-5.65,5.88s2.53,5.7,5.65,5.7,5.76-2.58,5.76-5.7-2.59-5.88-5.76-5.88ZM363.72,30.27c-1.18,0-2.18-1.08-2.18-2.16,0-1.32,1-2.28,2.18-2.28,1.24,0,2.29.96,2.29,2.28,0,1.08-1.06,2.16-2.29,2.16Z"/>
        <path class="cls-2" d="M429.87,56.13v18.9h-2.71l-16.41-9.78c-8.23,6.48-19.7,9.66-33.05,9.72v-16.56c15.64-.36,28.11-7.5,30.7-18.6h-29.23v-16.74h47.16v8.64c0,6.72-1.23,13.86-4.35,20.04l7.88,4.38ZM426.46,57.93l-8.88-5.22c3.47-5.7,5.35-12.96,5.35-21v-5.16h-40.4v9.78h29.76c-.76,14.82-14.23,24.12-31.23,25.14v9.72c12.47-.66,22.35-3.96,29.58-10.32l15.82,9.72v-12.66Z"/>
      </g>
    </g>
  </g>
</svg>